<svg width="327" height="326" viewBox="0 0 327 326" fill="none" xmlns="http://www.w3.org/2000/svg">
<rect y="277.558" width="326.074" height="6.76971" fill="#1F4773"/>
<path d="M194.219 103.474C193.439 129.019 196.789 159.792 184.111 183.129C174.19 201.382 155.417 212.747 136.37 219.505C94.4915 234.364 37.5519 232.371 12.1796 189.988C2.07106 173.049 2.67755 139.446 22.4035 128.601C32.512 123.07 44.0646 122.492 55.2706 120.369C69.9712 117.597 80.975 110.261 88.6431 97.4086C103.647 72.2818 102.506 52.9602 107.142 24.9019C108.022 19.7032 109.64 14.6345 115.156 10.6056C120.137 6.3912 126.173 3.61524 132.615 2.57655C138.177 0.64747 144.13 0.121674 149.944 1.04584C162.348 3.29859 173.482 15.7609 182.609 23.6744C191.735 31.5879 195.779 39.6458 195.605 51.9926C195.504 69.1626 194.739 86.3182 194.219 103.474Z" fill="#263238"/>
<path d="M196.457 115.719C195.677 92.2385 194.421 68.8301 193.324 45.3784C193.324 45.234 193.107 45.2196 193.107 45.3784C193.439 64.7001 193.526 84.0073 194.118 103.329C194.696 122.261 196.587 141.683 195.562 160.615C193.136 203.085 148.211 217.035 112.297 212.212C110.665 211.995 110.506 214.623 112.167 214.782C143.821 218.031 182.493 210.075 194.696 176.327C201.324 157.857 197.107 134.94 196.457 115.719Z" fill="#263238"/>
<path d="M109.467 22.8365C109.45 22.7549 109.406 22.6815 109.341 22.6288C109.277 22.5761 109.196 22.5474 109.113 22.5474C109.029 22.5474 108.949 22.5761 108.884 22.6288C108.82 22.6815 108.776 22.7549 108.759 22.8365C105.871 46.0861 104.788 73.379 89.986 92.7584C82.6658 102.236 72.6549 109.282 61.2635 112.975C52.238 115.864 42.9238 115.474 33.624 116.586C-2.70883 120.918 -6.80998 169.222 17.8547 190.06C18.3602 190.493 19.1399 189.627 18.6345 189.15C1.43565 173.164 -2.59329 146.175 13.8258 127.835C26.9957 113.12 49.6387 119.835 66.621 112.643C101.813 97.7404 107.604 56.7577 109.467 22.8365Z" fill="#263238"/>
<path d="M113.207 121.943C75.4731 160.196 28.0065 240.674 36.8443 256.978C46.7072 275.159 99.257 221.526 99.0548 218.392C98.8959 216.024 117.394 167.142 131.416 131.589C145.438 96.0364 122.55 112.427 113.207 121.943Z" fill="#D3766A"/>
<path d="M99.4014 218.393C101.019 213.166 126.174 148.717 133.366 128.327C140.557 107.936 133.886 101.64 113.351 120.312C92.8164 138.984 47.7903 201.339 37.523 234.393C27.6167 266.279 44.0358 266.279 65.6968 251.578C83.43 239.607 99.4014 218.393 99.4014 218.393Z" fill="#FFC727"/>
<path d="M136.066 117.323C136.066 117.698 135.994 118.074 135.936 118.478C135.815 118.652 135.653 118.795 135.464 118.893C135.276 118.991 135.066 119.042 134.853 119.041C134.618 119.041 134.387 118.975 134.187 118.853C133.986 118.73 133.822 118.555 133.714 118.346C133.606 118.137 133.558 117.902 133.574 117.667C133.59 117.433 133.671 117.207 133.806 117.015C133.942 116.823 134.128 116.671 134.344 116.577C134.559 116.484 134.797 116.451 135.03 116.482C135.263 116.514 135.483 116.609 135.666 116.758C135.848 116.906 135.987 117.101 136.066 117.323ZM93.2496 144.298C92.9914 144.295 92.7381 144.369 92.5222 144.511C92.3063 144.653 92.1375 144.855 92.0373 145.094C91.9371 145.332 91.9102 145.594 91.9599 145.848C92.0096 146.101 92.1336 146.334 92.3163 146.516C92.4989 146.699 92.7318 146.823 92.9852 146.873C93.2387 146.923 93.5012 146.896 93.7392 146.795C93.9773 146.695 94.1801 146.527 94.3218 146.311C94.4635 146.095 94.5377 145.841 94.5348 145.583C94.5348 145.242 94.3994 144.915 94.1584 144.674C93.9174 144.433 93.5905 144.298 93.2496 144.298ZM114.044 144.298C113.787 144.298 113.535 144.375 113.321 144.518C113.107 144.661 112.94 144.865 112.842 145.104C112.744 145.342 112.719 145.604 112.771 145.857C112.822 146.109 112.947 146.341 113.13 146.522C113.314 146.703 113.547 146.826 113.8 146.874C114.053 146.923 114.314 146.895 114.552 146.794C114.789 146.694 114.991 146.525 115.132 146.309C115.273 146.093 115.347 145.841 115.344 145.583C115.344 145.413 115.31 145.245 115.245 145.088C115.179 144.931 115.083 144.789 114.962 144.669C114.841 144.55 114.698 144.455 114.54 144.392C114.383 144.328 114.214 144.296 114.044 144.298ZM103.647 130.969C103.389 130.969 103.137 131.046 102.923 131.189C102.709 131.333 102.543 131.537 102.445 131.775C102.347 132.013 102.322 132.275 102.373 132.528C102.425 132.78 102.55 133.012 102.733 133.193C102.916 133.374 103.149 133.497 103.402 133.545C103.655 133.594 103.917 133.566 104.154 133.465C104.392 133.365 104.594 133.196 104.735 132.98C104.876 132.765 104.949 132.512 104.947 132.254C104.947 132.084 104.913 131.916 104.847 131.759C104.782 131.602 104.686 131.46 104.565 131.34C104.444 131.221 104.301 131.127 104.143 131.063C103.986 130.999 103.817 130.967 103.647 130.969ZM124.456 130.969C124.198 130.966 123.944 131.04 123.729 131.182C123.513 131.324 123.344 131.527 123.244 131.765C123.144 132.003 123.117 132.265 123.166 132.519C123.216 132.772 123.34 133.005 123.523 133.188C123.705 133.37 123.938 133.494 124.192 133.544C124.445 133.594 124.708 133.567 124.946 133.467C125.184 133.367 125.386 133.198 125.528 132.982C125.67 132.766 125.744 132.513 125.741 132.254C125.741 131.914 125.606 131.587 125.365 131.346C125.124 131.105 124.797 130.969 124.456 130.969ZM72.4695 172.125C72.2112 172.122 71.958 172.196 71.742 172.338C71.5261 172.48 71.3573 172.683 71.2571 172.921C71.157 173.159 71.13 173.421 71.1797 173.675C71.2294 173.928 71.3535 174.161 71.5361 174.344C71.7187 174.526 71.9516 174.65 72.2051 174.7C72.4585 174.75 72.721 174.723 72.9591 174.623C73.1971 174.523 73.4 174.354 73.5417 174.138C73.6834 173.922 73.7575 173.669 73.7547 173.41C73.7547 173.24 73.721 173.072 73.6555 172.915C73.59 172.758 73.494 172.616 73.3731 172.496C73.2523 172.377 73.1089 172.283 72.9513 172.219C72.7937 172.155 72.625 172.123 72.455 172.125H72.4695ZM93.2641 172.125C93.0058 172.122 92.7526 172.196 92.5366 172.338C92.3207 172.48 92.1519 172.683 92.0517 172.921C91.9516 173.159 91.9246 173.421 91.9743 173.675C92.024 173.928 92.1481 174.161 92.3307 174.344C92.5133 174.526 92.7462 174.65 92.9997 174.7C93.2531 174.75 93.5156 174.723 93.7537 174.623C93.9918 174.523 94.1946 174.354 94.3363 174.138C94.478 173.922 94.5521 173.669 94.5493 173.41C94.5493 173.24 94.5156 173.072 94.4501 172.915C94.3846 172.758 94.2886 172.616 94.1678 172.496C94.0469 172.377 93.9035 172.283 93.7459 172.219C93.5883 172.155 93.4196 172.123 93.2496 172.125H93.2641ZM114.059 172.125C113.801 172.125 113.549 172.202 113.335 172.345C113.121 172.489 112.955 172.693 112.857 172.931C112.759 173.169 112.734 173.431 112.785 173.684C112.836 173.936 112.962 174.168 113.145 174.349C113.328 174.53 113.561 174.653 113.814 174.701C114.067 174.75 114.329 174.722 114.566 174.621C114.803 174.521 115.005 174.352 115.146 174.136C115.287 173.921 115.361 173.668 115.358 173.41C115.358 173.239 115.324 173.07 115.258 172.912C115.191 172.754 115.094 172.611 114.972 172.491C114.849 172.372 114.704 172.277 114.545 172.215C114.386 172.152 114.215 172.121 114.044 172.125H114.059ZM82.8668 158.796C82.6085 158.794 82.3553 158.868 82.1393 159.009C81.9234 159.151 81.7546 159.354 81.6544 159.592C81.5543 159.83 81.5273 160.093 81.577 160.346C81.6267 160.599 81.7508 160.832 81.9334 161.015C82.116 161.198 82.3489 161.322 82.6024 161.371C82.8558 161.421 83.1183 161.394 83.3564 161.294C83.5944 161.194 83.7973 161.025 83.939 160.809C84.0807 160.593 84.1548 160.34 84.152 160.082C84.152 159.912 84.1183 159.743 84.0528 159.586C83.9873 159.43 83.8913 159.287 83.7704 159.168C83.6496 159.048 83.5062 158.954 83.3486 158.89C83.191 158.826 83.0223 158.794 82.8523 158.796H82.8668ZM103.661 158.796C103.404 158.796 103.152 158.873 102.938 159.016C102.724 159.16 102.557 159.364 102.459 159.602C102.361 159.84 102.337 160.102 102.388 160.355C102.439 160.607 102.564 160.839 102.748 161.02C102.931 161.201 103.164 161.324 103.417 161.372C103.67 161.421 103.932 161.393 104.169 161.293C104.406 161.192 104.608 161.023 104.749 160.808C104.89 160.592 104.964 160.339 104.961 160.082C104.961 159.91 104.927 159.741 104.861 159.583C104.794 159.425 104.697 159.282 104.574 159.162C104.452 159.043 104.307 158.949 104.148 158.886C103.988 158.823 103.818 158.793 103.647 158.796H103.661ZM72.455 199.924C72.1967 199.921 71.9435 199.995 71.7276 200.136C71.5116 200.278 71.3428 200.481 71.2427 200.719C71.1425 200.957 71.1156 201.22 71.1653 201.473C71.215 201.727 71.339 201.959 71.5217 202.142C71.7043 202.325 71.9372 202.449 72.1906 202.498C72.4441 202.548 72.7066 202.521 72.9446 202.421C73.1827 202.321 73.3855 202.152 73.5272 201.936C73.6689 201.72 73.7431 201.467 73.7402 201.209C73.7402 200.868 73.6048 200.541 73.3638 200.3C73.1228 200.059 72.7959 199.924 72.455 199.924ZM93.2496 199.924C92.9914 199.921 92.7381 199.995 92.5222 200.136C92.3063 200.278 92.1375 200.481 92.0373 200.719C91.9371 200.957 91.9102 201.22 91.9599 201.473C92.0096 201.727 92.1336 201.959 92.3163 202.142C92.4989 202.325 92.7318 202.449 92.9852 202.498C93.2387 202.548 93.5012 202.521 93.7392 202.421C93.9773 202.321 94.1801 202.152 94.3218 201.936C94.4635 201.72 94.5377 201.467 94.5348 201.209C94.5348 200.868 94.3994 200.541 94.1584 200.3C93.9174 200.059 93.5905 199.924 93.2496 199.924ZM62.0577 186.624C61.8 186.624 61.5482 186.7 61.3342 186.844C61.1201 186.987 60.9536 187.191 60.8556 187.429C60.7577 187.668 60.7328 187.93 60.7842 188.182C60.8355 188.435 60.9607 188.666 61.1439 188.847C61.3271 189.029 61.5601 189.151 61.8131 189.2C62.0662 189.248 62.3279 189.22 62.5651 189.12C62.8024 189.019 63.0043 188.85 63.1454 188.635C63.2864 188.419 63.3602 188.166 63.3574 187.909C63.3574 187.739 63.3237 187.571 63.2582 187.414C63.1927 187.257 63.0967 187.114 62.9758 186.995C62.855 186.875 62.7116 186.781 62.554 186.717C62.3964 186.654 62.2277 186.622 62.0577 186.624ZM82.8668 186.624C82.6085 186.621 82.3553 186.695 82.1393 186.837C81.9234 186.978 81.7546 187.181 81.6544 187.419C81.5543 187.657 81.5273 187.92 81.577 188.173C81.6267 188.427 81.7508 188.66 81.9334 188.842C82.116 189.025 82.3489 189.149 82.6024 189.199C82.8558 189.248 83.1183 189.221 83.3564 189.121C83.5944 189.021 83.7973 188.852 83.939 188.636C84.0807 188.42 84.1548 188.167 84.152 187.909C84.152 187.739 84.1183 187.571 84.0528 187.414C83.9873 187.257 83.8913 187.114 83.7704 186.995C83.6496 186.875 83.5062 186.781 83.3486 186.717C83.191 186.654 83.0223 186.622 82.8523 186.624H82.8668ZM103.661 186.624C103.404 186.624 103.152 186.7 102.938 186.844C102.724 186.987 102.557 187.191 102.459 187.429C102.361 187.668 102.337 187.93 102.388 188.182C102.439 188.435 102.564 188.666 102.748 188.847C102.931 189.029 103.164 189.151 103.417 189.2C103.67 189.248 103.932 189.22 104.169 189.12C104.406 189.019 104.608 188.85 104.749 188.635C104.89 188.419 104.964 188.166 104.961 187.909C104.961 187.738 104.927 187.568 104.861 187.41C104.794 187.252 104.697 187.109 104.574 186.99C104.452 186.87 104.307 186.776 104.148 186.713C103.988 186.65 103.818 186.62 103.647 186.624H103.661ZM51.6748 227.78C51.4213 227.782 51.1742 227.86 50.9648 228.003C50.7553 228.146 50.5929 228.348 50.4978 228.583C50.4027 228.818 50.3793 229.076 50.4305 229.324C50.4817 229.573 50.6053 229.8 50.7856 229.979C50.9659 230.157 51.1949 230.278 51.4438 230.326C51.6927 230.375 51.9504 230.348 52.1844 230.251C52.4184 230.153 52.6183 229.988 52.7589 229.777C52.8995 229.566 52.9745 229.318 52.9745 229.065C52.9746 228.892 52.94 228.722 52.8727 228.563C52.8054 228.404 52.7069 228.26 52.5829 228.14C52.4589 228.02 52.3121 227.927 52.1511 227.865C51.9901 227.803 51.8183 227.774 51.6459 227.78H51.6748ZM72.4839 227.78C72.2297 227.78 71.9812 227.855 71.7699 227.996C71.5585 228.137 71.3938 228.338 71.2965 228.573C71.1992 228.808 71.1738 229.066 71.2234 229.316C71.273 229.565 71.3953 229.794 71.5751 229.974C71.7548 230.153 71.9838 230.276 72.2332 230.325C72.4825 230.375 72.7409 230.35 72.9757 230.252C73.2106 230.155 73.4113 229.99 73.5525 229.779C73.6937 229.568 73.7691 229.319 73.7691 229.065C73.7692 228.894 73.735 228.724 73.6686 228.566C73.6022 228.408 73.505 228.265 73.3825 228.146C73.2601 228.026 73.115 227.932 72.9557 227.869C72.7964 227.806 72.6262 227.776 72.455 227.78H72.4839ZM62.0577 214.451C61.8 214.451 61.5482 214.527 61.3342 214.671C61.1201 214.814 60.9536 215.018 60.8556 215.257C60.7577 215.495 60.7328 215.757 60.7842 216.009C60.8355 216.262 60.9607 216.493 61.1439 216.675C61.3271 216.856 61.5601 216.978 61.8131 217.027C62.0662 217.075 62.3279 217.048 62.5651 216.947C62.8024 216.846 63.0043 216.678 63.1454 216.462C63.2864 216.246 63.3602 215.994 63.3574 215.736C63.3574 215.566 63.3237 215.398 63.2582 215.241C63.1927 215.084 63.0967 214.942 62.9758 214.822C62.855 214.703 62.7116 214.608 62.554 214.544C62.3964 214.481 62.2277 214.449 62.0577 214.451ZM82.8668 214.451C82.6085 214.448 82.3553 214.522 82.1393 214.664C81.9234 214.806 81.7546 215.008 81.6544 215.246C81.5543 215.484 81.5273 215.747 81.577 216C81.6267 216.254 81.7508 216.487 81.9334 216.669C82.116 216.852 82.3489 216.976 82.6024 217.026C82.8558 217.076 83.1183 217.049 83.3564 216.948C83.5944 216.848 83.7973 216.679 83.939 216.464C84.0807 216.248 84.1548 215.994 84.152 215.736C84.152 215.566 84.1183 215.398 84.0528 215.241C83.9873 215.084 83.8913 214.942 83.7704 214.822C83.6496 214.703 83.5062 214.608 83.3486 214.544C83.191 214.481 83.0223 214.449 82.8523 214.451H82.8668ZM51.6604 255.607C51.4068 255.61 51.1598 255.688 50.9504 255.83C50.7409 255.973 50.5784 256.175 50.4833 256.41C50.3883 256.645 50.3649 256.903 50.4161 257.152C50.4673 257.4 50.5908 257.628 50.7711 257.806C50.9514 257.984 51.1805 258.105 51.4294 258.154C51.6783 258.202 51.936 258.176 52.17 258.078C52.404 257.98 52.6038 257.816 52.7444 257.605C52.885 257.394 52.96 257.146 52.9601 256.892C52.9601 256.721 52.9259 256.551 52.8595 256.393C52.7931 256.236 52.6959 256.093 52.5735 255.973C52.4511 255.853 52.3059 255.759 52.1467 255.696C51.9874 255.633 51.8171 255.603 51.6459 255.607H51.6604ZM41.2631 242.278C41.0048 242.275 40.7516 242.349 40.5357 242.491C40.3197 242.633 40.1509 242.836 40.0508 243.074C39.9506 243.312 39.9237 243.574 39.9733 243.828C40.023 244.081 40.1471 244.314 40.3297 244.497C40.5124 244.679 40.7453 244.803 40.9987 244.853C41.2522 244.903 41.5147 244.876 41.7527 244.776C41.9908 244.675 42.1936 244.507 42.3353 244.291C42.477 244.075 42.5512 243.822 42.5483 243.563C42.5483 243.393 42.5146 243.225 42.4491 243.068C42.3836 242.911 42.2877 242.769 42.1668 242.649C42.0459 242.53 41.9025 242.435 41.7449 242.372C41.5873 242.308 41.4186 242.276 41.2486 242.278H41.2631ZM62.0577 242.278C61.8 242.278 61.5482 242.355 61.3342 242.498C61.1201 242.642 60.9536 242.845 60.8556 243.084C60.7577 243.322 60.7328 243.584 60.7842 243.837C60.8355 244.089 60.9607 244.321 61.1439 244.502C61.3271 244.683 61.5601 244.806 61.8131 244.854C62.0662 244.903 62.3279 244.875 62.5651 244.774C62.8024 244.674 63.0043 244.505 63.1454 244.289C63.2864 244.074 63.3602 243.821 63.3574 243.563C63.3574 243.393 63.3237 243.225 63.2582 243.068C63.1927 242.911 63.0967 242.769 62.9758 242.649C62.855 242.53 62.7116 242.435 62.554 242.372C62.3964 242.308 62.2277 242.276 62.0577 242.278Z" fill="#14C79C"/>
<path d="M84.4841 276.951L88.2532 254.351L93.6684 214.249C93.6684 214.249 80.9173 191.981 88.3109 176.01C92.051 167.909 124.817 117.612 138.593 107.503C151.59 98.1024 170.363 108.168 177.323 115.518C204.27 143.879 216.978 200.198 226.653 276.907L84.4841 276.951Z" fill="#D3766A"/>
<path d="M89.2063 247.26L93.6684 214.263C93.6684 214.263 80.9173 191.995 88.3109 176.009C92.0511 167.908 124.817 117.611 138.593 107.503C151.59 98.116 170.363 108.167 177.323 115.532C200.66 140.081 213.324 185.627 222.581 247.216L89.2063 247.26Z" fill="#FFC727"/>
<path d="M144.514 213.584C138.223 213.033 131.9 212.951 125.597 213.339C122.478 213.57 119.373 213.945 116.268 214.393C114.723 214.609 113.178 214.783 111.618 214.942C109.998 215.144 108.358 215.144 106.737 214.942C106.72 214.935 106.701 214.933 106.683 214.935C106.664 214.938 106.646 214.944 106.631 214.955C106.616 214.966 106.603 214.98 106.595 214.996C106.586 215.013 106.582 215.031 106.582 215.05C106.582 215.068 106.586 215.087 106.595 215.103C106.603 215.12 106.616 215.134 106.631 215.145C106.646 215.155 106.664 215.162 106.683 215.164C106.701 215.167 106.72 215.165 106.737 215.158C108.245 215.505 109.774 215.751 111.315 215.895C112.81 215.996 114.311 215.996 115.806 215.895C118.983 215.692 122.145 215.331 125.322 215.1C131.72 214.609 138.117 214.133 144.543 214.104C144.612 214.1 144.677 214.069 144.723 214.018C144.769 213.966 144.792 213.899 144.788 213.83C144.785 213.761 144.754 213.696 144.702 213.65C144.651 213.604 144.583 213.58 144.514 213.584Z" fill="#263238"/>
<path d="M158.81 221.787C153.807 220.344 148.725 219.186 143.59 218.321C141.02 217.888 138.449 217.628 135.85 217.411C134.608 217.31 133.366 217.238 132.124 217.18C130.882 217.122 129.38 217.18 128.008 217.18C127.864 217.18 127.821 217.382 128.008 217.397C129.294 217.527 130.564 217.859 131.835 218.061L135.676 218.638C138.247 219.028 140.817 219.447 143.388 219.823C148.529 220.559 153.655 221.339 158.767 222.249C159.042 222.263 159.099 221.859 158.81 221.787Z" fill="#263238"/>
<path d="M88.2531 254.35C88.9752 247.649 89.6972 240.934 90.5492 234.248C91.4012 227.562 92.1377 220.847 93.033 214.161L93.163 214.638C91.2458 211.909 89.6697 208.955 88.4697 205.843C87.2389 202.758 86.3479 199.548 85.8127 196.269C85.2931 192.98 85.1477 189.642 85.3794 186.319C85.7542 183.002 86.5801 179.752 87.8344 176.659C90.3307 170.587 93.4318 164.781 97.0908 159.33C100.662 153.836 104.558 148.561 108.759 143.532C104.874 148.788 101.235 154.232 97.8273 159.792C94.3919 165.298 91.449 171.097 89.0329 177.121C87.8455 180.105 87.0777 183.24 86.7513 186.435C86.5708 189.644 86.7305 192.863 87.2278 196.038C87.7181 199.225 88.5558 202.348 89.7261 205.352C90.8534 208.364 92.3472 211.226 94.1738 213.872L94.3182 214.089V214.334C93.4229 221.021 92.3687 227.678 91.4301 234.364C90.4915 241.05 89.3362 247.692 88.2531 254.35Z" fill="#263238"/>
<path d="M97.8273 159.301C97.9035 158.403 98.0828 157.516 98.3616 156.658C98.6252 155.803 98.9386 154.964 99.3003 154.146C99.6613 153.337 100.037 152.528 100.47 151.749C100.901 150.962 101.384 150.205 101.914 149.481C101.365 151.2 100.658 152.817 99.9645 154.435C99.2714 156.052 98.506 157.64 97.8273 159.301Z" fill="#263238"/>
<path d="M36.8443 256.921C45.3354 269.08 68.455 271.362 126.146 282.698C134.117 284.258 160.255 230.899 151.864 228.805C141.236 226.148 99.4303 218.148 96.2966 217.946C69.8846 216.256 31.0824 248.69 36.8443 256.921Z" fill="#D3766A"/>
<path d="M140.326 226.162C140.326 226.162 164.774 229.844 177.006 235.765C193.396 243.678 204.284 257.267 208.501 263.202C217.31 275.664 229.989 311.867 220.183 317.34C211.331 322.293 200.241 284.632 200.241 284.632C200.241 284.632 217.887 321.167 206.118 325.167C194.349 329.167 183.952 284.733 183.952 284.733C183.952 284.733 201.281 322.669 188.457 324.878C178.796 326.553 167.114 286.813 167.114 286.813C167.114 286.813 181.742 319.535 171.879 321.672C160.977 324.113 147.908 288.011 147.908 288.011C121.914 289.239 109.033 279.188 100.715 270.957C98.7082 268.993 140.326 226.162 140.326 226.162Z" fill="#D3766A"/>
<path d="M194.912 271.636C197.136 275.852 199.432 280.098 201.266 284.502C203.1 288.907 204.804 293.369 206.234 297.918C208.227 303.832 209.526 309.957 210.104 316.171C208.255 305.225 201.887 289.369 199.995 284.965C198.104 280.56 196.53 276.084 194.681 271.694C194.724 271.578 194.912 271.535 194.912 271.636Z" fill="#263238"/>
<path d="M178.926 278.003C181.54 283.52 184.342 288.892 186.71 294.509C189.078 300.127 190.811 305.628 192.775 311.376C192.934 311.809 192.645 311.751 192.472 311.304C190.277 305.643 187.807 300.589 185.555 294.942C183.302 289.296 181.222 283.592 178.796 278.061C178.753 277.974 178.897 277.902 178.926 278.003Z" fill="#263238"/>
<path d="M164.211 281.008C168.419 289.36 171.753 298.124 174.161 307.16C174.305 307.594 173.93 307.478 173.771 307.03C170.623 298.279 168.226 291.391 163.922 281.167C163.85 281.008 164.11 280.792 164.211 281.008Z" fill="#263238"/>
<path d="M191.49 245.064C194.339 246.916 197 249.044 199.432 251.418C201.902 253.76 204.181 256.295 206.248 258.999C207.302 260.342 208.241 261.757 209.223 263.158C210.205 264.559 211.057 266.046 211.793 267.49C213.425 270.478 214.751 273.623 215.75 276.877C214.898 275.433 214.306 273.83 213.367 272.4L212.154 270.191C211.736 269.469 211.273 268.747 210.84 268.054C209.061 265.205 207.133 262.453 205.064 259.808C203.042 257.151 200.862 254.595 198.609 252.125C197.468 250.884 196.313 249.671 195.114 248.486C193.916 247.302 192.746 246.205 191.49 245.064Z" fill="#263238"/>
<path d="M145.424 226.162L94.8814 282.481C94.8814 282.481 43.7758 270.74 36.2522 257.643C31.299 248.978 69.769 214.075 98.8093 218.147L145.424 226.162Z" fill="#FFC727"/>
<path d="M73.7403 229.065C73.7431 229.323 73.6689 229.576 73.5272 229.792C73.3855 230.008 73.1827 230.177 72.9447 230.277C72.7066 230.377 72.4441 230.404 72.1906 230.354C71.9372 230.305 71.7043 230.181 71.5217 229.998C71.3391 229.815 71.215 229.582 71.1653 229.329C71.1156 229.076 71.1425 228.813 71.2427 228.575C71.3429 228.337 71.5117 228.134 71.7276 227.992C71.9435 227.851 72.1968 227.777 72.455 227.779C72.7959 227.779 73.1228 227.915 73.3638 228.156C73.6049 228.397 73.7403 228.724 73.7403 229.065ZM93.2497 227.779C92.9955 227.779 92.747 227.855 92.5356 227.996C92.3243 228.137 92.1595 228.338 92.0622 228.573C91.965 228.808 91.9395 229.066 91.9891 229.315C92.0387 229.565 92.1611 229.794 92.3409 229.973C92.5206 230.153 92.7496 230.276 92.9989 230.325C93.2482 230.375 93.5066 230.349 93.7415 230.252C93.9763 230.155 94.1771 229.99 94.3183 229.779C94.4595 229.567 94.5349 229.319 94.5349 229.065C94.5349 228.724 94.3995 228.397 94.1584 228.156C93.9174 227.915 93.5905 227.779 93.2497 227.779ZM114.044 227.779C113.791 227.782 113.544 227.86 113.334 228.003C113.125 228.146 112.962 228.348 112.867 228.583C112.772 228.818 112.749 229.076 112.8 229.324C112.851 229.572 112.975 229.8 113.155 229.978C113.335 230.157 113.564 230.278 113.813 230.326C114.062 230.374 114.32 230.348 114.554 230.251C114.788 230.153 114.988 229.988 115.128 229.777C115.269 229.566 115.344 229.318 115.344 229.065C115.344 228.895 115.31 228.726 115.245 228.569C115.179 228.413 115.083 228.27 114.962 228.151C114.842 228.031 114.698 227.937 114.541 227.873C114.383 227.809 114.214 227.777 114.044 227.779ZM134.853 227.779C134.599 227.779 134.351 227.855 134.139 227.996C133.928 228.137 133.763 228.338 133.666 228.573C133.569 228.808 133.543 229.066 133.593 229.315C133.642 229.565 133.765 229.794 133.945 229.973C134.124 230.153 134.353 230.276 134.603 230.325C134.852 230.375 135.11 230.349 135.345 230.252C135.58 230.155 135.781 229.99 135.922 229.779C136.063 229.567 136.139 229.319 136.139 229.065C136.139 228.724 136.003 228.397 135.762 228.156C135.521 227.915 135.194 227.779 134.853 227.779ZM51.646 255.607C51.3924 255.609 51.1454 255.687 50.9359 255.83C50.7265 255.973 50.564 256.175 50.4689 256.41C50.3739 256.645 50.3505 256.903 50.4017 257.151C50.4529 257.4 50.5764 257.627 50.7567 257.806C50.937 257.984 51.1661 258.105 51.415 258.153C51.6639 258.202 51.9215 258.175 52.1555 258.078C52.3895 257.98 52.5894 257.815 52.73 257.604C52.8706 257.393 52.9456 257.145 52.9457 256.892C52.9457 256.722 52.9119 256.554 52.8465 256.397C52.781 256.24 52.685 256.097 52.5641 255.978C52.4432 255.858 52.2999 255.764 52.1423 255.7C51.9847 255.637 51.816 255.605 51.646 255.607ZM72.455 255.607C72.2008 255.607 71.9523 255.682 71.741 255.823C71.5296 255.964 71.3649 256.165 71.2676 256.4C71.1704 256.635 71.1449 256.893 71.1945 257.143C71.2441 257.392 71.3665 257.621 71.5463 257.801C71.726 257.98 71.955 258.103 72.2043 258.152C72.4536 258.202 72.712 258.176 72.9469 258.079C73.1817 257.982 73.3824 257.817 73.5237 257.606C73.6649 257.394 73.7403 257.146 73.7403 256.892C73.7403 256.551 73.6049 256.224 73.3638 255.983C73.1228 255.742 72.7959 255.607 72.455 255.607ZM93.2497 255.607C92.9955 255.607 92.747 255.682 92.5356 255.823C92.3243 255.964 92.1595 256.165 92.0622 256.4C91.965 256.635 91.9395 256.893 91.9891 257.143C92.0387 257.392 92.1611 257.621 92.3409 257.801C92.5206 257.98 92.7496 258.103 92.9989 258.152C93.2482 258.202 93.5066 258.176 93.7415 258.079C93.9763 257.982 94.1771 257.817 94.3183 257.606C94.4595 257.394 94.5349 257.146 94.5349 256.892C94.5349 256.551 94.3995 256.224 94.1584 255.983C93.9174 255.742 93.5905 255.607 93.2497 255.607ZM114.044 255.607C113.791 255.609 113.544 255.687 113.334 255.83C113.125 255.973 112.962 256.175 112.867 256.41C112.772 256.645 112.749 256.903 112.8 257.151C112.851 257.4 112.975 257.627 113.155 257.806C113.335 257.984 113.564 258.105 113.813 258.153C114.062 258.202 114.32 258.175 114.554 258.078C114.788 257.98 114.988 257.815 115.128 257.604C115.269 257.393 115.344 257.145 115.344 256.892C115.344 256.722 115.31 256.554 115.245 256.397C115.179 256.24 115.083 256.097 114.962 255.978C114.842 255.858 114.698 255.764 114.541 255.7C114.383 255.637 114.214 255.605 114.044 255.607ZM62.0577 242.278C61.8001 242.278 61.5482 242.354 61.3342 242.498C61.1202 242.641 60.9536 242.845 60.8557 243.084C60.7577 243.322 60.7329 243.584 60.7842 243.836C60.8355 244.089 60.9607 244.32 61.144 244.502C61.3272 244.683 61.5601 244.805 61.8131 244.854C62.0662 244.902 62.328 244.875 62.5652 244.774C62.8024 244.673 63.0044 244.505 63.1454 244.289C63.2865 244.073 63.3602 243.821 63.3574 243.563C63.3574 243.393 63.3237 243.225 63.2582 243.068C63.1927 242.911 63.0968 242.769 62.9759 242.649C62.855 242.53 62.7116 242.435 62.554 242.372C62.3964 242.308 62.2277 242.276 62.0577 242.278ZM82.8668 242.278C82.6085 242.275 82.3553 242.349 82.1394 242.491C81.9234 242.633 81.7546 242.835 81.6545 243.073C81.5543 243.312 81.5273 243.574 81.577 243.827C81.6267 244.081 81.7508 244.314 81.9334 244.496C82.116 244.679 82.3489 244.803 82.6024 244.853C82.8558 244.902 83.1183 244.876 83.3564 244.775C83.5945 244.675 83.7973 244.506 83.939 244.29C84.0807 244.075 84.1549 243.821 84.152 243.563C84.152 243.393 84.1183 243.225 84.0528 243.068C83.9873 242.911 83.8914 242.769 83.7705 242.649C83.6496 242.53 83.5062 242.435 83.3486 242.372C83.191 242.308 83.0223 242.276 82.8523 242.278H82.8668ZM103.661 242.278C103.404 242.278 103.152 242.354 102.938 242.498C102.724 242.641 102.557 242.845 102.459 243.084C102.361 243.322 102.337 243.584 102.388 243.836C102.439 244.089 102.564 244.32 102.748 244.502C102.931 244.683 103.164 244.805 103.417 244.854C103.67 244.902 103.932 244.875 104.169 244.774C104.406 244.673 104.608 244.505 104.749 244.289C104.89 244.073 104.964 243.821 104.961 243.563C104.961 243.392 104.927 243.222 104.861 243.064C104.794 242.907 104.697 242.764 104.574 242.644C104.452 242.524 104.307 242.43 104.148 242.367C103.988 242.304 103.818 242.274 103.647 242.278H103.661ZM124.47 242.278C124.212 242.275 123.959 242.349 123.743 242.491C123.527 242.633 123.358 242.835 123.258 243.073C123.158 243.312 123.131 243.574 123.181 243.827C123.23 244.081 123.354 244.314 123.537 244.496C123.72 244.679 123.953 244.803 124.206 244.853C124.459 244.902 124.722 244.876 124.96 244.775C125.198 244.675 125.401 244.506 125.543 244.29C125.684 244.075 125.759 243.821 125.756 243.563C125.756 243.393 125.722 243.225 125.656 243.068C125.591 242.911 125.495 242.769 125.374 242.649C125.253 242.53 125.11 242.435 124.952 242.372C124.795 242.308 124.626 242.276 124.456 242.278H124.47ZM62.0577 270.105C61.8001 270.105 61.5482 270.182 61.3342 270.325C61.1202 270.469 60.9536 270.672 60.8557 270.911C60.7577 271.149 60.7329 271.411 60.7842 271.664C60.8355 271.916 60.9607 272.148 61.144 272.329C61.3272 272.51 61.5601 272.633 61.8131 272.681C62.0662 272.73 62.328 272.702 62.5652 272.601C62.8024 272.501 63.0044 272.332 63.1454 272.116C63.2865 271.901 63.3602 271.648 63.3574 271.39C63.3574 271.22 63.3237 271.052 63.2582 270.895C63.1927 270.738 63.0968 270.596 62.9759 270.476C62.855 270.357 62.7116 270.262 62.554 270.199C62.3964 270.135 62.2277 270.103 62.0577 270.105ZM82.8668 270.105C82.6085 270.102 82.3553 270.176 82.1394 270.318C81.9234 270.46 81.7546 270.663 81.6545 270.901C81.5543 271.139 81.5273 271.401 81.577 271.655C81.6267 271.908 81.7508 272.141 81.9334 272.324C82.116 272.506 82.3489 272.63 82.6024 272.68C82.8558 272.73 83.1183 272.703 83.3564 272.603C83.5945 272.502 83.7973 272.334 83.939 272.118C84.0807 271.902 84.1549 271.649 84.152 271.39C84.152 271.22 84.1183 271.052 84.0528 270.895C83.9873 270.738 83.8914 270.596 83.7705 270.476C83.6496 270.357 83.5062 270.262 83.3486 270.199C83.191 270.135 83.0223 270.103 82.8523 270.105H82.8668ZM103.676 270.105C103.331 270.105 103.001 270.242 102.757 270.486C102.513 270.729 102.376 271.06 102.376 271.405C102.376 271.575 102.41 271.743 102.475 271.9C102.541 272.057 102.637 272.199 102.758 272.319C102.879 272.438 103.022 272.533 103.18 272.596C103.337 272.66 103.506 272.692 103.676 272.69L104.947 271.246C104.911 270.929 104.761 270.637 104.524 270.424C104.287 270.211 103.98 270.092 103.661 270.091L103.676 270.105Z" fill="#14C79C"/>
<path d="M64.1805 227.26C68.8593 223.867 82.0436 215.953 98.8382 218.061C98.9826 218.061 98.997 218.321 98.8382 218.307C86.1592 217.946 69.047 224.574 64.1805 227.462C64.1661 227.534 64.065 227.361 64.1805 227.26Z" fill="#263238"/>
<path d="M81.0761 273.008C86.3036 266.524 91.8633 260.329 97.4519 254.148C103.04 247.968 108.615 241.758 114.362 235.708C117.597 232.285 120.831 228.848 124.196 225.599C124.283 225.512 124.442 225.599 124.369 225.743C119.156 232.213 113.597 238.451 108.066 244.661C102.535 250.87 96.9031 257.051 91.2424 263.174C88.0365 266.625 84.7729 270.019 81.4082 273.282C81.235 273.441 80.9317 273.196 81.0761 273.008Z" fill="#263238"/>
<path d="M145.525 225.425C142.42 224.492 139.255 223.773 136.052 223.274C132.86 222.667 129.655 222.133 126.463 221.613C120.095 220.588 106.708 217.699 94.9392 217.728C94.8092 217.728 95.4735 218.364 95.6034 218.364C101.206 218.06 141.352 226.046 144.702 226.277C144.567 226.491 144.447 226.713 144.341 226.941C144.341 227.115 144.442 227.317 144.615 227.201C145.034 226.927 145.323 226.58 145.713 226.277C145.787 226.223 145.845 226.147 145.877 226.061C145.91 225.974 145.917 225.88 145.897 225.79C145.877 225.7 145.831 225.617 145.765 225.552C145.699 225.487 145.616 225.443 145.525 225.425Z" fill="#263238"/>
<path d="M186.537 119.055C234.826 161.179 272.805 213.223 270.293 226.234C265.744 250.465 233.902 251.982 229.021 246.74C209.468 225.555 188.833 184.515 166.478 138.723C146.507 97.7984 170.637 105.206 186.537 119.055Z" fill="#FFC727"/>
<path d="M177.742 117.756C177.745 118.014 177.671 118.267 177.529 118.483C177.387 118.699 177.185 118.868 176.946 118.968C176.708 119.068 176.446 119.095 176.193 119.046C175.939 118.996 175.706 118.872 175.524 118.689C175.341 118.507 175.217 118.274 175.167 118.02C175.117 117.767 175.144 117.504 175.245 117.266C175.345 117.028 175.513 116.825 175.729 116.684C175.945 116.542 176.199 116.468 176.457 116.471C176.798 116.471 177.125 116.606 177.366 116.847C177.607 117.088 177.742 117.415 177.742 117.756ZM176.457 144.298C176.199 144.295 175.945 144.369 175.729 144.511C175.513 144.653 175.345 144.856 175.245 145.094C175.144 145.332 175.117 145.594 175.167 145.848C175.217 146.101 175.341 146.334 175.524 146.517C175.706 146.699 175.939 146.823 176.193 146.873C176.446 146.923 176.708 146.896 176.946 146.796C177.185 146.695 177.387 146.527 177.529 146.311C177.671 146.095 177.745 145.841 177.742 145.583C177.742 145.242 177.607 144.915 177.366 144.674C177.125 144.433 176.798 144.298 176.457 144.298ZM197.251 144.298C196.994 144.298 196.742 144.375 196.528 144.518C196.314 144.662 196.147 144.865 196.049 145.104C195.952 145.342 195.927 145.604 195.978 145.857C196.029 146.109 196.154 146.341 196.338 146.522C196.521 146.703 196.754 146.826 197.007 146.874C197.26 146.923 197.522 146.895 197.759 146.794C197.996 146.694 198.198 146.525 198.339 146.309C198.48 146.094 198.554 145.841 198.551 145.583C198.551 145.413 198.517 145.245 198.452 145.088C198.386 144.931 198.291 144.789 198.17 144.669C198.049 144.55 197.905 144.455 197.748 144.392C197.59 144.328 197.421 144.296 197.251 144.298ZM166.031 130.969C165.772 130.966 165.519 131.041 165.303 131.182C165.087 131.324 164.919 131.527 164.818 131.765C164.718 132.003 164.691 132.265 164.741 132.519C164.791 132.772 164.915 133.005 165.097 133.188C165.28 133.37 165.513 133.495 165.766 133.544C166.02 133.594 166.282 133.567 166.52 133.467C166.758 133.367 166.961 133.198 167.103 132.982C167.245 132.766 167.319 132.513 167.316 132.254C167.316 131.914 167.18 131.587 166.939 131.346C166.698 131.105 166.372 130.969 166.031 130.969ZM186.825 130.969C186.567 130.966 186.314 131.041 186.098 131.182C185.882 131.324 185.713 131.527 185.613 131.765C185.513 132.003 185.486 132.265 185.536 132.519C185.585 132.772 185.709 133.005 185.892 133.188C186.075 133.37 186.307 133.495 186.561 133.544C186.814 133.594 187.077 133.567 187.315 133.467C187.553 133.367 187.756 133.198 187.898 132.982C188.039 132.766 188.113 132.513 188.111 132.254C188.111 131.919 187.979 131.596 187.744 131.356C187.51 131.116 187.19 130.977 186.854 130.969H186.825ZM197.223 172.125C196.965 172.125 196.713 172.202 196.499 172.345C196.285 172.489 196.119 172.693 196.021 172.931C195.923 173.169 195.898 173.431 195.949 173.684C196 173.936 196.126 174.168 196.309 174.349C196.492 174.53 196.725 174.653 196.978 174.701C197.231 174.75 197.493 174.722 197.73 174.621C197.967 174.521 198.169 174.352 198.31 174.136C198.451 173.921 198.525 173.668 198.522 173.41C198.522 173.072 198.389 172.747 198.151 172.507C197.913 172.266 197.59 172.129 197.251 172.125H197.223ZM218.032 172.125C217.773 172.122 217.52 172.197 217.304 172.338C217.088 172.48 216.919 172.683 216.819 172.921C216.719 173.159 216.692 173.421 216.742 173.675C216.792 173.928 216.916 174.161 217.098 174.344C217.281 174.526 217.514 174.651 217.767 174.7C218.021 174.75 218.283 174.723 218.521 174.623C218.759 174.523 218.962 174.354 219.104 174.138C219.246 173.922 219.32 173.669 219.317 173.41C219.317 173.24 219.283 173.072 219.218 172.915C219.152 172.758 219.056 172.616 218.935 172.497C218.814 172.377 218.671 172.283 218.513 172.219C218.356 172.155 218.187 172.123 218.017 172.125H218.032ZM238.379 172.197C238.133 172.291 237.921 172.457 237.771 172.674C237.622 172.89 237.541 173.147 237.541 173.41C237.541 173.751 237.676 174.078 237.917 174.319C238.159 174.56 238.485 174.696 238.826 174.696C239.049 174.695 239.268 174.638 239.463 174.529C239.657 174.42 239.821 174.264 239.938 174.075L238.379 172.197ZM186.825 158.796C186.567 158.794 186.314 158.868 186.098 159.009C185.882 159.151 185.713 159.354 185.613 159.592C185.513 159.83 185.486 160.093 185.536 160.346C185.585 160.6 185.709 160.832 185.892 161.015C186.075 161.198 186.307 161.322 186.561 161.371C186.814 161.421 187.077 161.394 187.315 161.294C187.553 161.194 187.756 161.025 187.898 160.809C188.039 160.593 188.113 160.34 188.111 160.082C188.111 159.746 187.979 159.423 187.744 159.183C187.51 158.943 187.19 158.804 186.854 158.796H186.825ZM207.62 158.796C207.362 158.796 207.11 158.873 206.896 159.017C206.682 159.16 206.516 159.364 206.418 159.602C206.32 159.84 206.295 160.103 206.346 160.355C206.398 160.608 206.523 160.839 206.706 161.02C206.889 161.201 207.122 161.324 207.375 161.373C207.628 161.421 207.89 161.393 208.127 161.293C208.365 161.192 208.567 161.023 208.708 160.808C208.849 160.592 208.922 160.339 208.92 160.082C208.92 159.743 208.786 159.419 208.548 159.178C208.31 158.937 207.987 158.8 207.649 158.796H207.62ZM227.331 159.403C227.209 159.608 227.144 159.843 227.144 160.082C227.142 160.252 227.174 160.42 227.237 160.578C227.301 160.736 227.396 160.879 227.515 161C227.635 161.121 227.777 161.217 227.934 161.282C228.091 161.348 228.259 161.381 228.429 161.381C228.614 161.384 228.796 161.345 228.963 161.266C228.458 160.63 227.909 160.024 227.36 159.403H227.331ZM197.8 200.039C198.075 200.516 198.32 200.992 198.58 201.483C198.587 201.411 198.587 201.339 198.58 201.267C198.591 201.007 198.522 200.75 198.383 200.53C198.244 200.311 198.04 200.139 197.8 200.039ZM218.017 199.924C217.759 199.921 217.506 199.995 217.29 200.137C217.074 200.278 216.905 200.481 216.805 200.719C216.705 200.957 216.678 201.22 216.727 201.473C216.777 201.727 216.901 201.96 217.084 202.142C217.266 202.325 217.499 202.449 217.753 202.499C218.006 202.548 218.269 202.521 218.507 202.421C218.745 202.321 218.948 202.152 219.089 201.936C219.231 201.72 219.305 201.467 219.302 201.209C219.302 200.868 219.167 200.541 218.926 200.3C218.685 200.059 218.358 199.924 218.017 199.924ZM238.812 199.924C238.554 199.921 238.3 199.995 238.084 200.137C237.868 200.278 237.7 200.481 237.6 200.719C237.499 200.957 237.472 201.22 237.522 201.473C237.572 201.727 237.696 201.96 237.878 202.142C238.061 202.325 238.294 202.449 238.547 202.499C238.801 202.548 239.063 202.521 239.301 202.421C239.539 202.321 239.742 202.152 239.884 201.936C240.026 201.72 240.1 201.467 240.097 201.209C240.097 200.875 239.968 200.555 239.736 200.315C239.504 200.075 239.188 199.935 238.855 199.924H238.812ZM259.115 200.01C258.847 200.131 258.628 200.34 258.493 200.603C258.359 200.865 258.318 201.165 258.377 201.454C258.436 201.743 258.591 202.003 258.817 202.192C259.043 202.381 259.326 202.487 259.621 202.494C259.945 202.495 260.259 202.376 260.502 202.162C260.097 201.483 259.635 200.761 259.159 200.039L259.115 200.01ZM207.605 186.595C207.348 186.595 207.096 186.671 206.882 186.815C206.668 186.958 206.501 187.162 206.403 187.401C206.305 187.639 206.281 187.901 206.332 188.153C206.383 188.406 206.508 188.637 206.692 188.819C206.875 189 207.108 189.122 207.361 189.171C207.614 189.219 207.876 189.192 208.113 189.091C208.35 188.99 208.552 188.822 208.693 188.606C208.834 188.39 208.908 188.138 208.905 187.88C208.898 187.549 208.763 187.234 208.529 187C208.295 186.766 207.98 186.631 207.649 186.624L207.605 186.595ZM228.415 186.595C228.156 186.592 227.903 186.666 227.687 186.808C227.471 186.95 227.302 187.152 227.202 187.39C227.102 187.628 227.075 187.891 227.125 188.144C227.174 188.398 227.299 188.631 227.481 188.813C227.664 188.996 227.897 189.12 228.15 189.17C228.404 189.219 228.666 189.193 228.904 189.092C229.142 188.992 229.345 188.823 229.487 188.607C229.628 188.392 229.703 188.138 229.7 187.88C229.693 187.552 229.56 187.238 229.329 187.005C229.098 186.771 228.786 186.635 228.458 186.624L228.415 186.595ZM250.494 187.62L249.888 186.826C249.691 186.71 249.466 186.65 249.238 186.653C248.919 186.686 248.623 186.837 248.409 187.076C248.194 187.314 248.075 187.624 248.075 187.945C248.075 188.266 248.194 188.576 248.409 188.814C248.623 189.053 248.919 189.204 249.238 189.237C249.579 189.234 249.905 189.098 250.148 188.858C250.39 188.618 250.53 188.293 250.538 187.952C250.546 187.851 250.546 187.75 250.538 187.649L250.494 187.62ZM218.017 227.78C217.763 227.78 217.515 227.855 217.303 227.996C217.092 228.138 216.927 228.338 216.83 228.573C216.733 228.808 216.707 229.066 216.757 229.316C216.806 229.565 216.929 229.794 217.108 229.974C217.288 230.153 217.517 230.276 217.766 230.325C218.016 230.375 218.274 230.35 218.509 230.252C218.744 230.155 218.945 229.99 219.086 229.779C219.227 229.568 219.302 229.319 219.302 229.065C219.302 228.724 219.167 228.397 218.926 228.156C218.685 227.915 218.358 227.78 218.017 227.78ZM238.812 227.78C238.558 227.78 238.309 227.855 238.098 227.996C237.886 228.138 237.722 228.338 237.624 228.573C237.527 228.808 237.502 229.066 237.551 229.316C237.601 229.565 237.723 229.794 237.903 229.974C238.083 230.153 238.312 230.276 238.561 230.325C238.81 230.375 239.069 230.35 239.304 230.252C239.539 230.155 239.739 229.99 239.88 229.779C240.022 229.568 240.097 229.319 240.097 229.065C240.097 228.731 239.968 228.411 239.736 228.171C239.504 227.931 239.188 227.791 238.855 227.78H238.812ZM259.621 227.78C259.367 227.78 259.118 227.855 258.907 227.996C258.696 228.138 258.531 228.338 258.434 228.573C258.336 228.808 258.311 229.066 258.36 229.316C258.41 229.565 258.532 229.794 258.712 229.974C258.892 230.153 259.121 230.276 259.37 230.325C259.619 230.375 259.878 230.35 260.113 230.252C260.348 230.155 260.548 229.99 260.69 229.779C260.831 229.568 260.906 229.319 260.906 229.065C260.906 228.731 260.777 228.411 260.545 228.171C260.313 227.931 259.997 227.791 259.664 227.78H259.621ZM207.634 214.451C207.377 214.451 207.125 214.528 206.911 214.671C206.697 214.814 206.53 215.018 206.432 215.257C206.334 215.495 206.309 215.757 206.361 216.009C206.412 216.262 206.537 216.494 206.721 216.675C206.904 216.856 207.137 216.979 207.39 217.027C207.643 217.076 207.905 217.048 208.142 216.947C208.379 216.847 208.581 216.678 208.722 216.462C208.863 216.246 208.937 215.994 208.934 215.736C208.934 215.395 208.799 215.068 208.558 214.827C208.317 214.586 207.99 214.451 207.649 214.451H207.634ZM228.443 214.451C228.185 214.448 227.932 214.522 227.716 214.664C227.5 214.806 227.331 215.008 227.231 215.247C227.131 215.485 227.104 215.747 227.154 216.001C227.203 216.254 227.327 216.487 227.51 216.67C227.693 216.852 227.926 216.976 228.179 217.026C228.432 217.076 228.695 217.049 228.933 216.948C229.171 216.848 229.374 216.68 229.516 216.464C229.657 216.248 229.731 215.994 229.729 215.736C229.729 215.398 229.595 215.073 229.357 214.832C229.119 214.592 228.796 214.455 228.458 214.451H228.443ZM249.238 214.451C248.98 214.451 248.729 214.528 248.514 214.671C248.3 214.814 248.134 215.018 248.036 215.257C247.938 215.495 247.913 215.757 247.964 216.009C248.016 216.262 248.141 216.494 248.324 216.675C248.507 216.856 248.74 216.979 248.993 217.027C249.246 217.076 249.508 217.048 249.745 216.947C249.983 216.847 250.185 216.678 250.326 216.462C250.467 216.246 250.541 215.994 250.538 215.736C250.538 215.395 250.402 215.068 250.161 214.827C249.92 214.586 249.593 214.451 249.252 214.451H249.238ZM228.443 242.278C228.185 242.275 227.932 242.349 227.716 242.491C227.5 242.633 227.331 242.836 227.231 243.074C227.131 243.312 227.104 243.574 227.154 243.828C227.203 244.081 227.327 244.314 227.51 244.497C227.693 244.679 227.926 244.803 228.179 244.853C228.432 244.903 228.695 244.876 228.933 244.776C229.171 244.676 229.374 244.507 229.516 244.291C229.657 244.075 229.731 243.822 229.729 243.563C229.729 243.225 229.595 242.9 229.357 242.66C229.119 242.419 228.796 242.282 228.458 242.278H228.443ZM249.238 242.278C248.98 242.278 248.729 242.355 248.514 242.498C248.3 242.642 248.134 242.846 248.036 243.084C247.938 243.322 247.913 243.584 247.964 243.837C248.016 244.089 248.141 244.321 248.324 244.502C248.507 244.683 248.74 244.806 248.993 244.854C249.246 244.903 249.508 244.875 249.745 244.774C249.983 244.674 250.185 244.505 250.326 244.289C250.467 244.074 250.541 243.821 250.538 243.563C250.538 243.223 250.402 242.896 250.161 242.655C249.92 242.414 249.593 242.278 249.252 242.278H249.238Z" fill="#14C79C"/>
<path d="M221.05 237.281C217.512 231.794 214.176 226.133 210.797 220.53C207.418 214.927 204.068 209.295 200.775 203.634C194.277 192.443 188.241 181.006 182.421 169.453C179.128 162.912 175.778 156.457 172.645 149.785C172.544 149.568 172.197 149.785 172.269 149.944C175.302 157.646 178.565 165.222 182.06 172.674L181.916 172.486C181.136 171.432 180.356 170.378 179.591 169.309C178.074 167.201 176.702 165.049 175.258 162.839C175.157 162.666 174.883 162.839 174.984 163.013C176.546 166.018 178.312 168.913 180.269 171.677C181.226 172.969 182.258 174.204 183.36 175.374L183.461 175.461C185.064 178.782 186.695 182.089 188.414 185.367C194.408 197.011 200.982 208.346 208.111 219.332C210.133 222.407 212.169 225.469 214.292 228.487C216.414 231.505 218.624 234.422 220.877 237.397C220.905 237.585 221.165 237.469 221.05 237.281Z" fill="#263238"/>
<path d="M237.021 242.047C227.866 228.92 232.458 202.811 242.566 140.139C244.011 131.474 309.773 130.795 308.763 140.139C307.492 151.893 295.766 198.349 292.719 205.122C277.744 238.624 243.216 250.956 237.021 242.047Z" fill="#D3766A"/>
<path d="M306.625 148.226C309.355 141.207 321.904 102.304 322.51 92.4412C323.117 82.5782 322.9 54.0579 315.391 52.816C307.882 51.5741 307.29 59.9208 307.29 59.9208C307.29 59.9208 305.282 47.8917 297.614 47.314C289.946 46.7364 289.441 59.7764 289.441 59.7764C289.441 59.7764 286.481 47.574 278.784 47.5595C271.087 47.5451 272.892 60.715 272.892 60.715C272.892 60.715 270.697 49.4368 264.357 52.0506C256.733 55.2276 263.116 75.5745 261.599 86.405C261.253 88.8744 251.086 135.792 251.086 135.792L306.625 148.226Z" fill="#D3766A"/>
<path d="M272.69 59.5888C277.354 74.5638 276.805 81.9142 272.82 96.817C272.748 97.1202 273.166 97.2935 273.267 97.0047C278.495 82.7517 280.488 73.6252 273.412 59.3289C273.065 58.6213 272.473 58.8812 272.69 59.5888Z" fill="#263238"/>
<path d="M289.08 58.5923C292.56 74.5637 292.04 82.5494 289.08 98.4775C289.08 98.6941 289.427 98.7952 289.484 98.5641C293.816 83.1992 295.564 74.015 289.99 58.549C289.658 57.8414 288.921 57.8703 289.08 58.5923Z" fill="#263238"/>
<path d="M307.145 60.7148C309.398 76.4263 309.196 85.264 304.257 100.282C304.228 100.355 304.23 100.436 304.261 100.508C304.292 100.58 304.35 100.636 304.423 100.665C304.496 100.694 304.577 100.692 304.649 100.661C304.721 100.63 304.777 100.572 304.806 100.499C311.319 85.6106 311.651 74.6645 307.607 60.7004C307.347 59.7473 307.001 59.7328 307.145 60.7148Z" fill="#263238"/>
<path d="M241.613 148.067C241.613 148.067 236.4 129.135 235.953 120.298C235.505 111.46 245.931 77.9719 253.282 79.8637C262.798 82.2464 260.588 102.781 258.191 112.687C258.191 112.687 280.199 118.175 281.802 133.251C283.405 148.327 241.613 148.067 241.613 148.067Z" fill="#D3766A"/>
<path d="M255.708 81.3222C262.812 89.7411 258.827 102.55 257.152 112.341C257.12 112.484 257.123 112.632 257.162 112.774C257.2 112.915 257.272 113.045 257.371 113.153C257.47 113.261 257.594 113.343 257.732 113.393C257.869 113.442 258.017 113.458 258.162 113.438C267.231 116.326 279.188 123.099 282.134 132.702C282.153 132.754 282.19 132.797 282.237 132.823C282.285 132.85 282.341 132.859 282.395 132.849C282.448 132.838 282.497 132.809 282.531 132.767C282.565 132.724 282.583 132.67 282.582 132.616C280.82 121.872 269.585 114.276 259.477 111.734C261.282 101.712 264.719 88.6292 255.708 81.25C255.722 81.2067 255.65 81.2644 255.708 81.3222Z" fill="#263238"/>
<path d="M309.802 161.366L233.483 183.027C233.483 183.027 218.263 233.05 227.938 245.599C238.292 259.014 286.336 238.22 295.896 208.992L309.802 161.366Z" fill="#FFC727"/>
<path d="M281.744 173.41C281.744 173.665 281.669 173.913 281.528 174.124C281.386 174.336 281.186 174.5 280.951 174.598C280.716 174.695 280.457 174.72 280.208 174.671C279.959 174.621 279.73 174.499 279.55 174.319C279.37 174.139 279.248 173.91 279.198 173.661C279.149 173.412 279.174 173.153 279.272 172.918C279.369 172.684 279.534 172.483 279.745 172.342C279.956 172.2 280.205 172.125 280.459 172.125C280.8 172.125 281.127 172.26 281.368 172.502C281.609 172.743 281.744 173.069 281.744 173.41ZM301.254 172.125C300.996 172.125 300.744 172.202 300.53 172.345C300.316 172.489 300.149 172.692 300.051 172.931C299.953 173.169 299.929 173.431 299.98 173.684C300.031 173.936 300.157 174.168 300.34 174.349C300.523 174.53 300.756 174.653 301.009 174.701C301.262 174.75 301.524 174.722 301.761 174.621C301.998 174.521 302.2 174.352 302.341 174.136C302.482 173.921 302.556 173.668 302.553 173.41C302.553 173.24 302.519 173.072 302.454 172.915C302.388 172.758 302.292 172.616 302.172 172.496C302.051 172.377 301.907 172.282 301.75 172.219C301.592 172.155 301.424 172.123 301.254 172.125ZM238.855 199.923C238.597 199.921 238.344 199.995 238.128 200.136C237.912 200.278 237.743 200.481 237.643 200.719C237.543 200.957 237.516 201.22 237.565 201.473C237.615 201.726 237.739 201.959 237.922 202.142C238.104 202.325 238.337 202.449 238.591 202.498C238.844 202.548 239.107 202.521 239.345 202.421C239.583 202.321 239.786 202.152 239.927 201.936C240.069 201.72 240.143 201.467 240.14 201.209C240.14 200.868 240.005 200.541 239.764 200.3C239.523 200.059 239.196 199.923 238.855 199.923ZM259.664 199.923C259.406 199.921 259.153 199.995 258.937 200.136C258.721 200.278 258.552 200.481 258.452 200.719C258.352 200.957 258.325 201.22 258.375 201.473C258.424 201.726 258.548 201.959 258.731 202.142C258.914 202.325 259.146 202.449 259.4 202.498C259.653 202.548 259.916 202.521 260.154 202.421C260.392 202.321 260.595 202.152 260.736 201.936C260.878 201.72 260.952 201.467 260.95 201.209C260.95 200.868 260.814 200.541 260.573 200.3C260.332 200.059 260.005 199.923 259.664 199.923ZM280.459 199.923C280.201 199.921 279.947 199.995 279.731 200.136C279.516 200.278 279.347 200.481 279.247 200.719C279.146 200.957 279.119 201.22 279.169 201.473C279.219 201.726 279.343 201.959 279.526 202.142C279.708 202.325 279.941 202.449 280.194 202.498C280.448 202.548 280.71 202.521 280.949 202.421C281.187 202.321 281.389 202.152 281.531 201.936C281.673 201.72 281.747 201.467 281.744 201.209C281.744 200.868 281.609 200.541 281.368 200.3C281.127 200.059 280.8 199.923 280.459 199.923ZM249.253 186.595C248.995 186.595 248.743 186.671 248.529 186.815C248.315 186.958 248.148 187.162 248.05 187.4C247.953 187.639 247.928 187.901 247.979 188.153C248.03 188.406 248.156 188.637 248.339 188.818C248.522 189 248.755 189.122 249.008 189.171C249.261 189.219 249.523 189.191 249.76 189.091C249.997 188.99 250.199 188.821 250.34 188.606C250.481 188.39 250.555 188.138 250.552 187.88C250.545 187.542 250.404 187.22 250.161 186.985C249.917 186.749 249.591 186.62 249.253 186.624V186.595ZM270.062 186.595C269.803 186.592 269.55 186.666 269.334 186.808C269.118 186.949 268.949 187.152 268.849 187.39C268.749 187.628 268.722 187.891 268.772 188.144C268.822 188.398 268.946 188.631 269.128 188.813C269.311 188.996 269.544 189.12 269.797 189.17C270.051 189.219 270.313 189.192 270.551 189.092C270.789 188.992 270.992 188.823 271.134 188.607C271.276 188.391 271.35 188.138 271.347 187.88C271.343 187.709 271.305 187.54 271.235 187.383C271.165 187.227 271.065 187.086 270.94 186.969C270.815 186.852 270.667 186.761 270.507 186.702C270.346 186.642 270.175 186.616 270.004 186.624L270.062 186.595ZM290.856 186.595C290.599 186.595 290.347 186.671 290.133 186.815C289.919 186.958 289.752 187.162 289.654 187.4C289.556 187.639 289.531 187.901 289.583 188.153C289.634 188.406 289.759 188.637 289.942 188.818C290.126 189 290.359 189.122 290.612 189.171C290.865 189.219 291.126 189.191 291.364 189.091C291.601 188.99 291.803 188.821 291.944 188.606C292.085 188.39 292.159 188.138 292.156 187.88C292.148 187.542 292.008 187.22 291.764 186.985C291.521 186.749 291.195 186.62 290.856 186.624V186.595ZM238.87 227.751C238.615 227.751 238.367 227.826 238.156 227.967C237.944 228.108 237.78 228.309 237.682 228.544C237.585 228.779 237.56 229.037 237.609 229.287C237.659 229.536 237.781 229.765 237.961 229.945C238.141 230.124 238.37 230.247 238.619 230.296C238.868 230.346 239.127 230.321 239.361 230.223C239.596 230.126 239.797 229.961 239.938 229.75C240.08 229.539 240.155 229.29 240.155 229.036C240.147 228.698 240.007 228.376 239.763 228.141C239.52 227.905 239.194 227.776 238.855 227.78L238.87 227.751ZM259.679 227.751C259.425 227.751 259.176 227.826 258.965 227.967C258.753 228.108 258.589 228.309 258.491 228.544C258.394 228.779 258.369 229.037 258.418 229.287C258.468 229.536 258.59 229.765 258.77 229.945C258.95 230.124 259.179 230.247 259.428 230.296C259.677 230.346 259.936 230.321 260.171 230.223C260.405 230.126 260.606 229.961 260.747 229.75C260.889 229.539 260.964 229.29 260.964 229.036C260.956 228.698 260.816 228.376 260.572 228.141C260.329 227.905 260.003 227.776 259.664 227.78L259.679 227.751ZM280.473 227.751C280.219 227.751 279.971 227.826 279.759 227.967C279.548 228.108 279.383 228.309 279.286 228.544C279.189 228.779 279.163 229.037 279.213 229.287C279.262 229.536 279.385 229.765 279.565 229.945C279.744 230.124 279.973 230.247 280.223 230.296C280.472 230.346 280.73 230.321 280.965 230.223C281.2 230.126 281.401 229.961 281.542 229.75C281.683 229.539 281.759 229.29 281.759 229.036C281.751 228.698 281.61 228.376 281.367 228.141C281.124 227.905 280.797 227.776 280.459 227.78L280.473 227.751ZM228.487 214.422C228.229 214.419 227.975 214.493 227.759 214.635C227.543 214.777 227.375 214.979 227.274 215.217C227.174 215.456 227.147 215.718 227.197 215.972C227.247 216.225 227.371 216.458 227.553 216.641C227.736 216.823 227.969 216.947 228.222 216.997C228.476 217.047 228.738 217.02 228.976 216.919C229.214 216.819 229.417 216.65 229.559 216.435C229.701 216.219 229.775 215.965 229.772 215.707C229.768 215.538 229.731 215.372 229.663 215.217C229.595 215.063 229.497 214.923 229.375 214.807C229.253 214.69 229.109 214.599 228.952 214.537C228.795 214.476 228.627 214.447 228.458 214.451L228.487 214.422ZM249.281 214.422C249.024 214.422 248.772 214.499 248.558 214.642C248.344 214.785 248.177 214.989 248.079 215.228C247.981 215.466 247.957 215.728 248.008 215.98C248.059 216.233 248.184 216.465 248.368 216.646C248.551 216.827 248.784 216.949 249.037 216.998C249.29 217.046 249.552 217.019 249.789 216.918C250.026 216.818 250.228 216.649 250.369 216.433C250.51 216.217 250.584 215.965 250.581 215.707C250.577 215.537 250.54 215.369 250.471 215.214C250.402 215.059 250.303 214.918 250.179 214.801C250.056 214.685 249.91 214.593 249.751 214.533C249.592 214.473 249.423 214.445 249.253 214.451L249.281 214.422ZM270.09 214.422C269.832 214.419 269.579 214.493 269.363 214.635C269.147 214.777 268.978 214.979 268.878 215.217C268.778 215.456 268.751 215.718 268.801 215.972C268.85 216.225 268.974 216.458 269.157 216.641C269.34 216.823 269.573 216.947 269.826 216.997C270.08 217.047 270.342 217.02 270.58 216.919C270.818 216.819 271.021 216.65 271.163 216.435C271.304 216.219 271.379 215.965 271.376 215.707C271.372 215.533 271.333 215.362 271.262 215.203C271.19 215.045 271.087 214.903 270.959 214.785C270.83 214.668 270.68 214.578 270.516 214.52C270.351 214.463 270.177 214.439 270.004 214.451L270.09 214.422ZM290.885 214.422C290.627 214.422 290.376 214.499 290.162 214.642C289.947 214.785 289.781 214.989 289.683 215.228C289.585 215.466 289.56 215.728 289.612 215.98C289.663 216.233 289.788 216.465 289.971 216.646C290.154 216.827 290.387 216.949 290.64 216.998C290.894 217.046 291.155 217.019 291.393 216.918C291.63 216.818 291.832 216.649 291.973 216.433C292.114 216.217 292.188 215.965 292.185 215.707C292.181 215.537 292.144 215.369 292.075 215.214C292.006 215.059 291.906 214.918 291.783 214.801C291.659 214.685 291.514 214.593 291.355 214.533C291.196 214.473 291.026 214.445 290.856 214.451L290.885 214.422ZM228.487 242.249C228.229 242.246 227.975 242.32 227.759 242.462C227.543 242.604 227.375 242.807 227.274 243.045C227.174 243.283 227.147 243.545 227.197 243.799C227.247 244.052 227.371 244.285 227.553 244.468C227.736 244.65 227.969 244.774 228.222 244.824C228.476 244.874 228.738 244.847 228.976 244.747C229.214 244.647 229.417 244.478 229.559 244.262C229.701 244.046 229.775 243.793 229.772 243.534C229.768 243.366 229.731 243.199 229.663 243.045C229.595 242.89 229.497 242.751 229.375 242.634C229.253 242.517 229.109 242.426 228.952 242.365C228.795 242.304 228.627 242.274 228.458 242.278L228.487 242.249ZM249.281 242.249C249.024 242.249 248.772 242.326 248.558 242.469C248.344 242.613 248.177 242.816 248.079 243.055C247.981 243.293 247.957 243.555 248.008 243.808C248.059 244.06 248.184 244.292 248.368 244.473C248.551 244.654 248.784 244.777 249.037 244.825C249.29 244.874 249.552 244.846 249.789 244.745C250.026 244.645 250.228 244.476 250.369 244.26C250.51 244.045 250.584 243.792 250.581 243.534C250.577 243.364 250.54 243.197 250.471 243.041C250.402 242.886 250.303 242.746 250.179 242.629C250.056 242.512 249.91 242.421 249.751 242.36C249.592 242.3 249.423 242.272 249.253 242.278L249.281 242.249Z" fill="#14C79C"/>
<path d="M235.982 200.371C244.502 198.436 252.906 196.039 261.311 193.641C269.715 191.244 278.134 188.847 286.481 186.233C291.188 184.789 295.91 183.345 300.575 181.656C300.705 181.656 300.661 181.396 300.575 181.425C292.069 183.345 283.636 185.757 275.246 188.053C266.856 190.349 258.408 192.847 250.032 195.36C245.31 196.804 240.603 198.248 235.938 199.938C235.664 200.024 235.736 200.429 235.982 200.371Z" fill="#263238"/>
<path d="M236.198 182.19C235.014 182.305 233.83 182.551 232.66 182.782C232.571 182.808 232.49 182.856 232.424 182.921C232.358 182.987 232.31 183.068 232.285 183.157C230.985 187.605 230.061 192.183 229.137 196.717C228.212 201.252 227.418 205.671 226.682 210.176C226.277 212.588 225.931 215.028 225.656 217.396C224.183 220.343 223.286 223.543 223.014 226.826C223.014 226.864 223.029 226.901 223.056 226.928C223.083 226.955 223.12 226.971 223.158 226.971C223.196 226.971 223.233 226.955 223.26 226.928C223.287 226.901 223.303 226.864 223.303 226.826C223.664 223.913 224.417 221.062 225.541 218.349C224.811 224.294 224.972 230.315 226.017 236.213C224.573 227.404 226.739 218.22 228.184 209.555C228.906 205.223 229.729 200.891 230.581 196.558C231.433 192.226 232.429 187.966 233.223 183.648C234.234 183.259 235.259 182.883 236.227 182.421C236.243 182.405 236.256 182.386 236.264 182.365C236.271 182.344 236.274 182.321 236.271 182.298C236.268 182.276 236.26 182.254 236.248 182.235C236.235 182.217 236.218 182.201 236.198 182.19Z" fill="#263238"/>
<path d="M158.81 107.791C158.132 110.246 145.684 125.914 134.362 124.961C130.68 124.643 131.474 104.441 131.474 104.441L131.2 102.997L127.301 81.9279L152.413 67.0684L156.038 65.1045C156.038 65.1045 156.731 70.8808 157.482 78.2311C157.482 78.5632 157.554 78.8954 157.583 79.2564C157.612 79.6174 157.699 80.0651 157.727 80.4405C157.872 81.5236 157.987 82.6355 158.103 83.7474C158.19 84.585 158.262 85.4081 158.319 86.289C158.377 87.1699 158.464 88.0508 158.536 88.9316C159.054 95.2048 159.145 101.506 158.81 107.791Z" fill="#D3766A"/>
<path d="M157.511 78.1878C155.179 83.9772 151.615 89.1899 147.066 93.464C142.518 97.7381 137.094 100.971 131.171 102.939L127.272 81.8701L152.413 67.0684L156.038 65.1045C156.038 65.1045 156.731 70.9097 157.511 78.1878Z" fill="#263238"/>
<path d="M100.773 47.7758C96.8887 85.1916 118.867 91.7477 126.94 92.5419C134.261 93.2929 159.301 94.9246 167.027 58.1009C174.753 21.2771 158.579 7.6595 141.915 5.04574C125.25 2.43197 104.658 10.3599 100.773 47.7758Z" fill="#D3766A"/>
<path d="M113.38 39.0834C114.241 39.026 115.099 38.9248 115.95 38.7802C116.873 38.799 117.776 38.515 118.521 37.9715C118.726 37.7565 118.853 37.4788 118.882 37.183C118.911 36.8872 118.84 36.5903 118.68 36.3397C118.286 35.901 117.784 35.5739 117.224 35.3914C116.663 35.2088 116.065 35.1773 115.488 35.3C114.277 35.3664 113.135 35.8811 112.282 36.744C112.116 36.9545 112.012 37.2072 111.981 37.4737C111.95 37.7403 111.994 38.0102 112.108 38.2531C112.222 38.496 112.401 38.7024 112.626 38.8491C112.851 38.9958 113.112 39.0769 113.38 39.0834Z" fill="#263238"/>
<path d="M140.211 38.8805C139.365 38.6886 138.531 38.4475 137.713 38.1585C136.8 38.0255 135.957 37.5938 135.315 36.931C135.153 36.6865 135.077 36.3952 135.098 36.1027C135.119 35.8101 135.236 35.5327 135.431 35.3136C135.887 34.937 136.435 34.6888 137.019 34.5949C137.603 34.501 138.201 34.5646 138.752 34.7793C139.924 35.0479 140.953 35.7428 141.64 36.7289C141.774 36.9615 141.84 37.2267 141.831 37.4948C141.822 37.7628 141.739 38.0231 141.591 38.2465C141.442 38.4699 141.234 38.6475 140.991 38.7595C140.747 38.8715 140.477 38.9134 140.211 38.8805Z" fill="#263238"/>
<path d="M133.525 50.1148C133.525 50.0281 133.713 50.2592 133.698 50.3603C133.366 52.9018 133.424 55.8766 135.648 56.9452C135.648 56.9452 135.648 57.1041 135.648 57.0896C132.817 56.4109 132.817 52.4686 133.525 50.1148Z" fill="#263238"/>
<path d="M136.066 47.6743C140.196 47.7754 139.705 56.021 135.879 55.9488C132.052 55.8766 132.601 47.6021 136.066 47.6743Z" fill="#263238"/>
<path d="M137.655 48.2089C138.348 48.7144 139.012 49.5808 139.864 49.7252C140.716 49.8696 141.684 49.0609 142.391 48.2811C142.464 48.2811 142.521 48.2811 142.521 48.3822C142.449 49.9707 141.756 51.5592 140.037 51.6892C138.319 51.8191 137.453 50.3606 137.149 48.801C137.149 48.4256 137.38 48.0068 137.655 48.2089Z" fill="#263238"/>
<path d="M117.943 48.2961C117.943 48.195 117.727 48.3972 117.727 48.4983C117.64 51.0687 117.106 53.9857 114.737 54.6789C114.651 54.6789 114.651 54.8233 114.737 54.8233C117.597 54.5489 118.261 50.6788 117.943 48.2961Z" fill="#263238"/>
<path d="M115.835 45.4079C111.748 44.8158 110.867 53.047 114.651 53.5958C118.434 54.1445 119.272 45.9133 115.835 45.4079Z" fill="#263238"/>
<path d="M114.044 45.7686C113.337 46.1297 112.6 46.8517 111.835 46.8228C111.069 46.7939 110.391 45.8264 109.871 44.9167C109.871 44.8156 109.755 44.9167 109.741 44.9889C109.524 46.5485 109.871 48.2524 111.344 48.7145C112.817 49.1766 113.856 47.8914 114.391 46.3752C114.521 46.0863 114.347 45.6242 114.044 45.7686Z" fill="#263238"/>
<path d="M129.481 70.0432C128.86 70.6353 128.239 71.4873 127.301 71.4873C126.348 71.4642 125.411 71.2325 124.557 70.8086C124.54 70.8052 124.522 70.8065 124.505 70.8121C124.489 70.8177 124.474 70.8275 124.462 70.8407C124.451 70.8538 124.443 70.8697 124.439 70.8869C124.435 70.904 124.436 70.9218 124.441 70.9385C124.798 71.4514 125.287 71.8571 125.857 72.1116C126.428 72.3662 127.057 72.4599 127.676 72.3826C128.202 72.2562 128.678 71.9756 129.044 71.5768C129.409 71.178 129.647 70.6792 129.727 70.1443C129.77 69.9566 129.568 69.9566 129.481 70.0432Z" fill="#263238"/>
<path d="M119.445 60.0513C119.445 60.0513 118.651 63.8348 118.521 65.6399C118.521 65.7987 118.94 65.9143 119.546 66.0009C119.546 66.0009 119.546 66.0009 119.618 66.0009C121.144 66.3937 122.748 66.3575 124.254 65.8963C125.76 65.435 127.109 64.5667 128.153 63.3871C128.297 63.2283 128.081 63.0261 127.907 63.1272C125.5 64.5303 122.706 65.1226 119.936 64.8168C119.835 64.3113 121.51 58.3907 121.236 58.3473C119.827 58.3682 118.428 58.5819 117.077 58.9827C118.521 51.0692 121.192 43.4301 122.492 35.531C122.511 35.4717 122.506 35.4071 122.478 35.3516C122.449 35.2961 122.4 35.2541 122.34 35.235C122.281 35.2158 122.216 35.2211 122.161 35.2495C122.105 35.2779 122.063 35.3272 122.044 35.3866C118.651 43.1702 116.817 52.2534 115.127 60.3979C114.896 61.4088 118.709 60.3113 119.445 60.0513Z" fill="#263238"/>
<path d="M120.167 65.3357C121.058 66.8354 122.321 68.0791 123.835 68.9459C124.673 69.4002 125.635 69.5724 126.579 69.4368C128.644 69.148 128.904 67.3285 128.716 65.7111C128.613 64.8573 128.41 64.0187 128.109 63.2129C125.756 64.7499 122.973 65.4937 120.167 65.3357Z" fill="#263238"/>
<path d="M123.835 68.9462C124.673 69.4006 125.635 69.5728 126.579 69.4372C128.644 69.1484 128.904 67.3288 128.716 65.7115C127.658 65.6281 126.603 65.9013 125.718 66.4875C124.833 67.0738 124.17 67.9394 123.835 68.9462Z" fill="#FF9CBD"/>
<path d="M165.468 55.9343C156.803 55.3134 158.031 41.7247 158.031 41.7247C158.031 41.7247 148.326 40.0351 148.919 24.2081C148.919 24.2081 143.431 33.3491 130.03 34.1866C127.142 34.3743 137.25 27.876 137.25 27.876C137.25 27.876 123.705 36.7426 103.127 31.1541C101.683 30.7642 108.095 9.3775 125.106 3.19688C142.117 -2.98374 156.543 2.51815 165.829 13.6953C165.829 13.6953 177.381 20.2225 177.8 31.7173C178.219 43.2121 168.818 56.1798 165.468 55.9343Z" fill="#263238"/>
<path d="M172.125 50.1586C174.994 45.4305 176.658 40.0698 176.97 34.5478C177.283 29.0258 176.234 23.5117 173.915 18.4902C166.002 0.843671 137.611 -6.16007 118.882 6.33114C118.882 6.33114 151.085 0.554856 161.973 15.0822C172.861 29.6095 172.125 50.1586 172.125 50.1586Z" fill="#3180D5"/>
<path d="M160.587 59.5596C160.587 59.5596 168.991 48.007 174.262 50.8952C179.533 53.7833 173.092 70.8378 166.796 73.0472C166.01 73.3886 165.162 73.5673 164.304 73.5725C163.447 73.5777 162.597 73.4092 161.807 73.0773C161.016 72.7454 160.301 72.2569 159.704 71.6412C159.107 71.0255 158.641 70.2954 158.334 69.4948L160.587 59.5596Z" fill="#D3766A"/>
<path d="M172.298 55.7759C172.399 55.7759 172.414 55.9059 172.298 55.9492C167.879 57.6387 165.511 61.7255 163.821 65.8555C165.15 64.267 166.941 63.4006 169.092 64.9891C169.208 65.0757 169.092 65.249 168.962 65.2201C168.195 64.9595 167.365 64.9446 166.588 65.1776C165.812 65.4105 165.127 65.8797 164.63 66.5198C163.81 67.5891 163.103 68.7409 162.522 69.9567C162.305 70.3466 161.597 70.1299 161.756 69.6823V69.5812C161.8 63.9927 166.276 56.238 172.298 55.7759Z" fill="#263238"/>
</svg>
