<svg width="586" height="554" viewBox="0 0 586 554" fill="none" xmlns="http://www.w3.org/2000/svg">
<path d="M357.629 537.625C286.193 561.307 182.519 556.879 105.263 526.461C66.6379 511.253 34.6774 489.573 16.6341 461.726C-1.39041 433.908 -5.5648 399.881 11.4779 359.849C28.5976 319.636 38.9306 280.59 47.0373 243.914C49.9847 230.579 52.6364 217.565 55.2123 204.924C59.7253 182.775 64.0054 161.77 69.2345 142.186C77.444 111.439 87.9737 84.2779 105.356 61.8476C122.731 39.427 146.977 21.7026 182.671 9.86953C218.354 -1.95994 248.575 -1.24521 276.147 7.58692C303.734 16.424 328.7 33.3974 353.853 54.1433C366.926 64.9267 380.051 76.7317 393.616 88.9329C432.205 123.643 474.361 161.561 529.062 188.291C565.835 206.26 582.414 234.053 584.43 266.381C586.449 298.753 573.866 335.728 552.167 371.991C508.767 444.52 429.051 513.947 357.629 537.625Z" stroke="#FFCA31"/>
</svg>
