<svg width="557" height="609" viewBox="0 0 557 609" fill="none" xmlns="http://www.w3.org/2000/svg">
<path d="M556.5 305C556.5 380.259 519.674 477.273 466.491 541.033C439.901 572.911 409.265 596.425 377.155 604.789C345.079 613.145 311.466 606.399 278.831 577.625C246.048 548.722 212.237 526.627 179.975 507.391C168.245 500.397 156.727 493.785 145.538 487.362C125.935 476.109 107.344 465.437 90.3994 454.31C63.7977 436.843 41.3299 418.301 25.5088 394.744C9.69462 371.196 0.5 342.605 0.5 305C0.5 267.408 10.6882 238.946 27.7477 215.555C44.8167 192.15 68.7842 173.793 96.391 156.446C110.741 147.43 126.076 138.687 141.926 129.65C187.016 103.944 236.272 75.8612 278.857 32.3502C307.486 3.0995 339.083 -3.89211 370.404 4.3673C401.766 12.6378 432.904 36.2166 460.496 68.2243C515.684 132.243 556.5 229.756 556.5 305Z" stroke="#FFCA31"/>
</svg>
