<svg width="324" height="24" viewBox="0 0 324 24" fill="none" xmlns="http://www.w3.org/2000/svg">
<path d="M158.194 19.2C157.06 19.2 156.087 19.0067 155.274 18.62C154.46 18.22 153.834 17.6133 153.394 16.8C152.954 15.9733 152.707 14.94 152.654 13.7C152.64 13.1133 152.634 12.5533 152.634 12.02C152.634 11.4733 152.64 10.9067 152.654 10.32C152.707 9.09333 152.96 8.07333 153.414 7.26C153.88 6.43333 154.52 5.82 155.334 5.42C156.16 5.00667 157.114 4.8 158.194 4.8C159.287 4.8 160.24 5.00667 161.054 5.42C161.88 5.82 162.527 6.43333 162.994 7.26C163.46 8.07333 163.714 9.09333 163.754 10.32C163.78 10.9067 163.794 11.4733 163.794 12.02C163.794 12.5533 163.78 13.1133 163.754 13.7C163.714 14.94 163.467 15.9733 163.014 16.8C162.574 17.6133 161.947 18.22 161.134 18.62C160.32 19.0067 159.34 19.2 158.194 19.2ZM158.194 17.5C159.22 17.5 160.054 17.1933 160.694 16.58C161.347 15.9667 161.7 14.9733 161.754 13.6C161.78 13 161.794 12.4667 161.794 12C161.794 11.52 161.78 10.9867 161.754 10.4C161.727 9.48 161.554 8.73333 161.234 8.16C160.927 7.58667 160.514 7.16667 159.994 6.9C159.474 6.63333 158.874 6.5 158.194 6.5C157.54 6.5 156.954 6.63333 156.434 6.9C155.914 7.16667 155.494 7.58667 155.174 8.16C154.867 8.73333 154.694 9.48 154.654 10.4C154.64 10.9867 154.634 11.52 154.634 12C154.634 12.4667 154.64 13 154.654 13.6C154.707 14.9733 155.06 15.9667 155.714 16.58C156.367 17.1933 157.194 17.5 158.194 17.5ZM166.909 19C166.775 19 166.662 18.96 166.569 18.88C166.489 18.7867 166.449 18.6733 166.449 18.54V9.08C166.449 8.94667 166.489 8.83333 166.569 8.74C166.662 8.64667 166.775 8.6 166.909 8.6H167.829C167.962 8.6 168.075 8.64667 168.169 8.74C168.262 8.83333 168.309 8.94667 168.309 9.08V9.96C168.575 9.50667 168.942 9.16667 169.409 8.94C169.875 8.71333 170.435 8.6 171.089 8.6H171.889C172.022 8.6 172.129 8.64667 172.209 8.74C172.289 8.82 172.329 8.92667 172.329 9.06V9.88C172.329 10.0133 172.289 10.12 172.209 10.2C172.129 10.28 172.022 10.32 171.889 10.32H170.689C169.969 10.32 169.402 10.5333 168.989 10.96C168.575 11.3733 168.369 11.94 168.369 12.66V18.54C168.369 18.6733 168.322 18.7867 168.229 18.88C168.135 18.96 168.022 19 167.889 19H166.909Z" fill="white"/>
<path d="M189 14H323.5" stroke="white"/>
<path d="M0 14H134.5" stroke="white"/>
</svg>
