<svg width="201" height="209" viewBox="0 0 201 209" fill="none" xmlns="http://www.w3.org/2000/svg">
<path d="M90.7341 165.05C89.9833 165.997 26.8324 168.831 23.8223 167.972C23.6789 167.926 23.5407 167.864 23.4097 167.79C19.6894 166.051 2.47439 150.243 1.17566 148.911C-2.01029 145.644 11.18 122.638 15.3806 118.837C18.1742 116.307 23.3556 115.319 23.3556 115.319C23.3556 115.319 37.9866 73.1106 47.0304 64.2765C49.2964 62.0579 88.4546 61.1921 95.4556 64.378C98.4521 65.7309 105.737 73.1715 105.933 74.5244C106.096 76.486 91.4917 164.083 90.7341 165.05Z" fill="#FFCA31"/>
<path d="M90.7341 165.05C89.9833 165.997 26.8324 168.832 23.8223 167.973C23.6789 167.926 23.5407 167.865 23.4097 167.79C29.4569 151.434 57.9073 74.66 58.7122 74.1662C59.5172 73.6724 96.9437 73.8956 105.906 74.5382C106.096 76.4863 91.4917 164.083 90.7341 165.05Z" fill="#CC9F1F"/>
<path d="M67.5395 67.3881C66.9105 66.7929 66.4911 58.209 67.6545 56.5045C68.9533 54.5902 83.9699 55.5372 84.856 57.1809C85.7421 58.8246 86.1683 67.3881 85.715 67.6925C85.2618 67.9969 82.7591 68.3013 82.4209 67.7534C82.0826 67.2055 82.1029 60.1098 81.8391 59.7378C81.5753 59.3657 71.057 58.6758 70.6985 59.2169C70.3399 59.7581 71.2125 66.9349 70.7932 67.2461C70.3738 67.5572 68.1551 67.9631 67.5395 67.3881Z" fill="#37474F"/>
<path d="M129.595 208.213H65.6117C61.7155 193.332 58.1373 180.202 55.8577 171.909C54.4237 166.694 53.5038 163.386 53.3279 162.764V162.656H119.861L121.89 171.984C122.695 175.751 123.716 180.52 124.893 185.965C124.988 186.439 125.096 186.919 125.198 187.42C126.51 193.649 128.019 200.725 129.595 208.213Z" fill="#3180D5"/>
<path d="M75.3116 208.213H74.1076C70.8405 196.153 67.6207 184.072 64.5295 171.964L64.2657 170.942C64.2546 170.886 64.265 170.827 64.2948 170.778C64.3247 170.729 64.3717 170.693 64.4268 170.677C64.4819 170.661 64.541 170.666 64.5925 170.691C64.6441 170.717 64.6843 170.76 64.7053 170.814C64.8203 171.199 64.9353 171.578 65.0368 171.964C68.5677 184.011 71.9634 196.105 75.3116 208.213Z" fill="#263238"/>
<path d="M114.639 162.764C114.123 165.927 113.363 169.046 112.366 172.092C111.622 174.514 110.729 177.131 109.708 179.83C109.491 180.439 109.248 181.041 109.031 181.65C105.805 189.868 101.591 198.243 97.2346 202.213C96.7204 202.702 96.161 203.142 95.5638 203.525L91.7894 205.825C91.7934 205.843 91.7934 205.862 91.7894 205.879C91.7555 206.103 91.627 206.901 91.4106 208.206H29.0105C27.4209 193.738 30.7421 180.209 33.6169 171.74C34.6309 168.673 35.842 165.675 37.2426 162.764H114.639Z" fill="#3180D5"/>
<path d="M107.225 198.689C103.304 200.85 99.261 202.783 95.1173 204.479C94.0148 204.959 92.9122 205.426 91.7893 205.879C91.7217 205.879 91.6541 205.94 91.5864 205.961C90.6191 206.36 89.6518 206.738 88.6846 207.117C87.7173 207.496 86.7973 207.861 85.8436 208.213H83.7264C85.1807 207.476 86.7094 206.86 88.184 206.184C90.2471 205.264 92.3034 204.351 94.3733 203.478C95.3113 203.072 96.2515 202.657 97.194 202.233C100.421 200.806 103.634 199.372 106.955 198.175C107.3 198.019 107.516 198.513 107.225 198.689Z" fill="#263238"/>
<path d="M91.7893 205.913C91.7893 206.407 91.7488 207.212 91.6541 208.206H90.9776C91.1941 207.273 91.397 206.508 91.5796 205.954C91.5768 205.934 91.5768 205.913 91.5796 205.893C91.5851 205.873 91.5971 205.855 91.6136 205.843C91.6301 205.83 91.6502 205.823 91.671 205.823C91.6917 205.823 91.7119 205.83 91.7284 205.843C91.7449 205.855 91.7568 205.873 91.7623 205.893L91.7893 205.913Z" fill="#263238"/>
<path d="M43.3101 166.68C42.4713 168.367 41.6979 170.085 40.9899 171.835C36.6784 182.426 35.0518 193.919 36.255 205.291C36.3699 206.278 36.5052 207.259 36.6608 208.24H35.5582C35.128 205.384 34.8795 202.503 34.8142 199.615C34.5908 190.065 36.4513 180.58 40.2661 171.821C41.0643 169.995 41.9504 168.216 42.9177 166.471C43.0868 166.207 43.4318 166.417 43.3101 166.68Z" fill="#263238"/>
<path d="M90.2403 188.509C90.3012 186.108 90.4703 183.706 90.5921 181.305C90.8694 175.637 91.0926 169.934 91.6202 164.279C91.6202 164.233 91.6388 164.188 91.6717 164.155C91.7047 164.122 91.7494 164.104 91.7961 164.104C91.8427 164.104 91.8875 164.122 91.9205 164.155C91.9534 164.188 91.972 164.233 91.972 164.279C92.0396 168.663 91.8705 173.073 91.7826 177.443C91.742 179.641 91.6743 181.833 91.6135 184.031C91.4951 186.124 91.4815 188.221 91.5729 190.315C91.6879 191.898 92.0396 194.969 94.1027 195.158C96.044 195.341 97.5863 193.244 98.0665 191.702C99.3044 187.799 99.7373 183.585 100.136 179.526C100.373 177.118 100.65 167.35 100.522 164.902C100.522 164.746 100.759 164.753 100.765 164.902C100.901 167.377 101.239 169.84 101.32 172.342C101.401 174.845 101.408 177.294 101.252 179.783C101.097 182.15 100.901 184.518 100.542 186.872C100.302 189.018 99.791 191.125 99.0203 193.142C98.3033 194.806 97.0722 196.335 95.2053 196.7C94.9823 196.744 94.756 196.769 94.5288 196.775C94.5288 197.282 94.4341 197.796 94.4003 198.297C94.3462 199.088 94.2447 199.88 94.1433 200.671C94.0284 201.445 93.8658 202.21 93.6563 202.964C93.4906 203.731 93.2173 204.472 92.8446 205.162C92.7837 205.271 92.6349 205.21 92.6213 205.095C92.6071 204.335 92.6705 203.576 92.8107 202.829C92.919 202.058 93.0272 201.28 93.1828 200.515C93.3383 199.751 93.4804 199.014 93.636 198.263C93.7374 197.762 93.8051 197.242 93.9065 196.727C93.3036 196.623 92.736 196.37 92.2544 195.992C91.7729 195.615 91.3923 195.123 91.1467 194.563C90.2606 192.703 90.193 190.518 90.2403 188.509Z" fill="#263238"/>
<path d="M86.2426 82.8041C93.0542 92.1184 136.826 132.65 164.985 132.623C169.72 132.623 186.259 134.578 190.419 120.643C195.262 104.409 194.91 70.1617 189.911 54.4417C185.778 41.434 155.333 59.9951 154.825 68.0107C154.44 74.0985 155.61 93.4578 154.372 93.4104C146.323 93.079 119.381 78.3126 94.1297 71.0884C82.4276 67.7063 80.9665 75.6475 86.2426 82.8041Z" fill="#D3766A"/>
<path d="M190.588 58.7978C187.984 45.7901 180.983 32.0723 176.91 28.3587C172.838 24.6452 153.499 17.9689 148.825 17.3533C144.151 16.7378 127.241 20.7828 124.089 23.5832C121.566 25.8289 125.441 31.7003 134.986 31.335C143.901 31.0238 146.018 30.5098 148.555 31.0374C151.091 31.565 158.431 38.0925 157.572 41.8195C157.064 44.0112 151.714 47.5624 147.75 46.6695C143.786 45.7766 141.554 41.7316 136.711 39.195C131.867 36.6584 124.643 38.5727 124.623 40.6358C124.603 42.6989 127.214 43.125 132.334 49.064C135.628 52.8858 137.746 60.2521 144.753 66.5563C148.264 69.7288 156.449 74.7343 156.449 74.7343L190.588 58.7978Z" fill="#D3766A"/>
<path d="M175.821 28.8187C171.161 24.0025 160.108 15.8381 150.435 14.262C143.915 13.1798 125.184 27.574 126.605 31.4297C128.025 35.2853 131.583 34.5683 136.717 32.8637C138.584 32.2414 147.98 26.5256 150.144 28.2978C153.256 30.8479 158.552 40.6493 158.552 40.6493L175.821 28.8187Z" fill="#D3766A"/>
<path d="M126.801 29.7724C128.499 24.9901 133.687 21.5606 138.943 18.6114C139.024 18.5641 139.098 18.6926 139.017 18.7332C137.664 19.4907 129.378 25.5786 126.875 29.8265C126.848 29.8738 126.787 29.8197 126.801 29.7724Z" fill="#263238"/>
<path d="M175.821 28.8184C171.161 24.0023 160.108 15.8379 150.435 14.2618C143.915 13.1795 130.109 29.5219 131.529 33.3708C132.95 37.2196 138.124 36.4958 143.367 33.3708C145.058 32.3629 150.293 26.8027 152.458 28.5749C155.563 31.125 163.179 37.4767 163.179 37.4767L175.821 28.8184Z" fill="#D3766A"/>
<path d="M138.855 35.4545C141.026 34.8119 143.184 32.999 144.862 31.5177C146.329 30.2257 147.838 28.6158 149.759 28.0341C150.602 27.7569 151.513 27.7569 152.356 28.0341C153.198 28.4279 153.965 28.9659 154.622 29.6237C155.434 30.3001 156.205 31.0374 156.956 31.7815C157.707 32.5256 157.977 32.7893 158.721 33.5469C159.033 33.8649 158.789 34.0475 158.437 33.7093C157.16 32.4939 155.775 31.3981 154.298 30.4354C153.581 29.8536 152.784 29.3796 151.93 29.0284C151.477 28.9065 151.004 28.8767 150.54 28.9406C150.075 29.0045 149.628 29.1608 149.224 29.4005C147.493 30.3339 146.126 31.8694 144.489 32.9449C142.853 34.0204 140.837 35.3801 138.882 35.6506C138.78 35.5965 138.767 35.4545 138.855 35.4545Z" fill="#263238"/>
<path d="M131.604 29.0894C132.476 26.8707 134.154 24.8955 135.757 23.1707C137.466 21.3589 139.314 19.683 141.283 18.1584C142.291 17.3737 143.313 16.6026 144.368 15.8721C145.423 15.1415 146.397 14.3231 147.567 14.0119C150.828 13.1664 154.467 15.0806 155.887 15.6083C155.975 15.6421 155.941 15.7841 155.853 15.7503C154.683 15.3377 150.909 13.9443 148.866 14.3975C147.626 14.7318 146.472 15.3293 145.484 16.1494C144.591 16.8258 143.698 17.4617 142.819 18.1381C139.254 20.8911 135.649 24.0974 133.274 27.98C131.962 30.1378 131.245 32.7556 132.767 34.9878C132.821 35.069 132.713 35.1434 132.645 35.0893C130.954 33.662 130.853 31.0104 131.604 29.0894Z" fill="#263238"/>
<path d="M184.114 39.7021C180.299 31.6932 173.183 20.3293 170.41 17.4274C167.637 14.5256 155.691 4.96095 151.315 6.36791C145.822 8.14014 153.757 17.0689 157.551 20.6404C161.346 24.212 162.286 31.3956 162.286 31.3956L184.114 39.7021Z" fill="#D3766A"/>
<path d="M152.038 14.5732C153.357 15.6826 154.582 16.9542 155.779 18.1853C156.993 19.3101 158.123 20.5218 159.161 21.811C160.075 23.157 160.761 24.6449 161.19 26.2145C161.427 26.9788 161.61 27.75 161.772 28.5346C161.934 29.3193 162.056 30.273 162.252 31.1185C162.252 31.2132 162.137 31.2538 162.11 31.1659C161.691 29.6199 161.169 28.1035 160.548 26.6271C159.942 25.0861 159.149 23.6253 158.187 22.2777C156.273 19.572 153.817 17.3736 151.876 14.7153C151.788 14.6138 151.944 14.4853 152.038 14.5732Z" fill="#263238"/>
<path d="M153.669 75.546L200.477 86.1861C200.477 86.1861 195.661 123.288 185.947 130.12C176.234 136.952 152.498 134.26 138.023 125.385C123.547 116.51 95.6179 97.6853 86.263 83.8931C76.908 70.1008 87.2641 67.1922 97.1872 71.2642C107.11 75.3363 152.566 92.159 153.053 91.841C153.54 91.5231 153.669 75.546 153.669 75.546Z" fill="#30C29F"/>
<path d="M184.811 114.955C184.573 115.145 184.296 115.279 183.999 115.347C183.735 115.4 183.462 115.386 183.205 115.307C182.947 115.228 182.714 115.086 182.525 114.894C182.229 114.599 181.85 114.402 181.438 114.33C181.026 114.259 180.603 114.316 180.225 114.495C179.881 114.664 179.588 114.924 179.379 115.246C179.19 115.516 178.98 115.78 178.798 116.091C179.101 115.918 179.392 115.726 179.67 115.516C179.906 115.333 180.171 115.191 180.455 115.097C180.718 115.032 180.992 115.035 181.253 115.105C181.515 115.175 181.754 115.309 181.95 115.496C182.239 115.787 182.607 115.987 183.008 116.071C183.41 116.156 183.827 116.12 184.209 115.969C184.568 115.818 184.875 115.567 185.095 115.246C185.285 114.955 185.494 114.684 185.657 114.373C185.364 114.551 185.082 114.746 184.811 114.955ZM147.642 121.239C147.423 121.442 147.151 121.578 146.857 121.631C146.592 121.692 146.315 121.685 146.053 121.609C145.792 121.533 145.554 121.392 145.362 121.198C145.07 120.904 144.696 120.706 144.288 120.631C143.881 120.556 143.46 120.608 143.083 120.779C142.738 120.951 142.445 121.21 142.23 121.53C142.019 121.806 141.825 122.095 141.649 122.395C141.951 122.223 142.243 122.031 142.521 121.82C142.743 121.617 143.013 121.472 143.306 121.401C143.565 121.336 143.837 121.338 144.095 121.408C144.353 121.478 144.589 121.613 144.78 121.8C145.073 122.092 145.445 122.292 145.85 122.376C146.254 122.46 146.675 122.424 147.06 122.274C147.414 122.12 147.716 121.869 147.932 121.55C148.115 121.259 148.345 120.988 148.514 120.677C148.203 120.846 147.932 121.049 147.642 121.239ZM166.257 84.563C166.035 84.7624 165.764 84.9 165.472 84.9621C165.208 85.0204 164.932 85.0087 164.674 84.928C164.415 84.8473 164.182 84.7005 163.998 84.5021C163.696 84.2171 163.316 84.0277 162.907 83.9579C162.498 83.8881 162.077 83.9409 161.698 84.1098C161.349 84.272 161.053 84.53 160.845 84.8538C160.663 85.1447 160.433 85.4153 160.264 85.7264C160.575 85.537 160.845 85.3341 161.136 85.1447C161.358 84.9388 161.632 84.7963 161.928 84.7321C162.187 84.6589 162.46 84.6547 162.721 84.72C162.982 84.7852 163.222 84.9177 163.416 85.1041C163.624 85.3247 163.879 85.4957 164.162 85.6047C164.445 85.7137 164.749 85.7578 165.052 85.7338C165.354 85.7097 165.647 85.6182 165.91 85.466C166.172 85.3137 166.397 85.1045 166.568 84.8538C166.757 84.563 166.96 84.2924 167.129 83.9812C166.818 84.1571 166.548 84.3803 166.257 84.563ZM132.801 106.269C132.749 105.928 132.679 105.589 132.591 105.255C132.51 105.586 132.469 105.931 132.382 106.269C132.362 106.568 132.279 106.858 132.138 107.122C132 107.357 131.802 107.552 131.564 107.686C131.327 107.82 131.058 107.889 130.785 107.886C130.371 107.889 129.967 108.012 129.621 108.24C129.275 108.468 129.003 108.792 128.837 109.171C128.694 109.535 128.659 109.932 128.736 110.314C128.785 110.657 128.855 110.995 128.945 111.329C129.03 110.995 129.098 110.656 129.148 110.314C129.174 110.011 129.274 109.718 129.439 109.462C129.582 109.234 129.782 109.048 130.02 108.921C130.257 108.794 130.523 108.731 130.792 108.738C131.207 108.733 131.611 108.6 131.948 108.359C132.286 108.117 132.541 107.777 132.679 107.385C132.83 107.034 132.873 106.645 132.801 106.269ZM128.539 84.935C128.493 84.5906 128.426 84.2495 128.337 83.9136C128.255 84.2451 128.208 84.59 128.127 84.935C128.108 85.2321 128.023 85.5211 127.877 85.7805C127.741 86.0185 127.544 86.2156 127.306 86.3513C127.068 86.4869 126.798 86.5561 126.524 86.5517C126.223 86.5466 125.925 86.6084 125.651 86.7328C125.376 86.8572 125.134 87.041 124.939 87.2708C124.745 87.5007 124.604 87.7709 124.527 88.0618C124.45 88.3527 124.439 88.6571 124.494 88.953C124.542 89.3015 124.61 89.647 124.697 89.9879C124.79 89.6479 124.86 89.3022 124.907 88.953C124.935 88.6581 125.035 88.3747 125.198 88.1277C125.34 87.8983 125.539 87.7101 125.777 87.5819C126.014 87.4537 126.281 87.39 126.551 87.3972C126.966 87.384 127.369 87.2486 127.708 87.008C128.047 86.7674 128.308 86.4323 128.458 86.0443C128.591 85.6899 128.619 85.3049 128.539 84.935ZM185.508 126.149C185.462 125.807 185.394 125.468 185.305 125.135C185.217 125.466 185.176 125.811 185.095 126.149C185.076 126.449 184.99 126.74 184.845 127.002C184.707 127.238 184.509 127.432 184.272 127.567C184.034 127.701 183.765 127.77 183.492 127.766C183.078 127.768 182.673 127.891 182.327 128.119C181.981 128.348 181.709 128.671 181.544 129.051C181.405 129.409 181.37 129.798 181.443 130.174C181.491 130.523 181.558 130.868 181.645 131.209C181.738 130.869 181.808 130.523 181.855 130.174C181.88 129.877 181.981 129.591 182.146 129.342C182.289 129.114 182.489 128.927 182.726 128.8C182.963 128.673 183.23 128.611 183.499 128.618C183.802 128.617 184.1 128.547 184.372 128.415C184.645 128.282 184.884 128.091 185.073 127.854C185.262 127.617 185.395 127.342 185.463 127.047C185.531 126.752 185.533 126.445 185.467 126.149H185.508ZM165.716 104.132C165.67 103.79 165.602 103.451 165.513 103.117C165.432 103.449 165.384 103.794 165.303 104.132C165.285 104.431 165.2 104.723 165.053 104.984C164.918 105.222 164.721 105.419 164.482 105.554C164.244 105.689 163.974 105.756 163.7 105.749C163.398 105.743 163.099 105.805 162.825 105.93C162.55 106.055 162.307 106.239 162.112 106.47C161.918 106.7 161.778 106.972 161.701 107.263C161.625 107.555 161.614 107.86 161.671 108.157C161.719 108.505 161.786 108.851 161.874 109.192C161.966 108.852 162.036 108.506 162.083 108.157C162.112 107.86 162.212 107.575 162.374 107.325C162.517 107.097 162.717 106.91 162.955 106.783C163.192 106.657 163.458 106.594 163.727 106.601C164.142 106.587 164.545 106.451 164.884 106.211C165.223 105.97 165.484 105.635 165.634 105.248C165.766 104.891 165.794 104.504 165.716 104.132ZM185.508 99.0993C185.215 99.068 184.931 98.9759 184.676 98.8287C184.45 98.6836 184.265 98.4831 184.138 98.2463C184.012 98.0096 183.947 97.7444 183.952 97.4759C183.941 97.0595 183.807 96.6558 183.566 96.316C183.325 95.9763 182.989 95.716 182.599 95.5684C182.242 95.4267 181.851 95.3961 181.476 95.4804C181.125 95.5684 180.8 95.609 180.441 95.6901C180.793 95.7916 181.118 95.8322 181.476 95.8998C181.774 95.9195 182.065 96.0026 182.329 96.1433C182.561 96.2851 182.753 96.4837 182.887 96.7205C183.02 96.9573 183.091 97.2243 183.093 97.4962C183.094 97.9109 183.216 98.3164 183.444 98.6626C183.672 99.0088 183.997 99.2805 184.378 99.4443C184.734 99.5873 185.125 99.6225 185.501 99.5457C185.85 99.4987 186.196 99.4286 186.536 99.3361C186.191 99.2211 185.86 99.1805 185.508 99.0993ZM167.549 127.604C167.249 127.571 166.96 127.472 166.703 127.313C166.477 127.168 166.291 126.967 166.164 126.731C166.036 126.494 165.97 126.229 165.973 125.96C165.975 125.656 165.908 125.355 165.778 125.08C165.648 124.805 165.458 124.562 165.221 124.371C164.985 124.179 164.708 124.043 164.412 123.973C164.116 123.902 163.808 123.9 163.511 123.965C163.152 124.053 162.834 124.093 162.489 124.174C162.825 124.263 163.166 124.333 163.511 124.384C163.81 124.4 164.1 124.491 164.356 124.648C164.594 124.785 164.792 124.982 164.931 125.219C165.07 125.457 165.144 125.726 165.147 126.001C165.138 126.412 165.254 126.817 165.48 127.162C165.705 127.506 166.031 127.773 166.412 127.928C166.774 128.07 167.168 128.105 167.549 128.03C167.891 127.981 168.23 127.911 168.563 127.82C168.225 127.705 167.873 127.665 167.549 127.604ZM147.175 99.0993C146.875 99.0721 146.584 98.9798 146.323 98.8287C146.103 98.6767 145.924 98.4747 145.798 98.2395C145.672 98.0043 145.604 97.7426 145.599 97.4759C145.598 97.0572 145.467 96.6492 145.225 96.3077C144.983 95.9662 144.641 95.7079 144.246 95.5684C143.884 95.4276 143.489 95.397 143.11 95.4804C142.778 95.5481 142.433 95.5887 142.095 95.6901C142.426 95.7916 142.771 95.8322 143.11 95.8998C143.414 95.9225 143.71 96.0053 143.982 96.1433C144.211 96.2883 144.401 96.4877 144.534 96.7237C144.668 96.9598 144.741 97.2251 144.747 97.4962C144.745 97.9087 144.864 98.3125 145.089 98.6585C145.314 99.0044 145.634 99.2775 146.011 99.4443C146.375 99.5874 146.772 99.6226 147.155 99.5457C147.497 99.4986 147.836 99.4286 148.169 99.3361C147.851 99.2211 147.5 99.1805 147.168 99.0993H147.175ZM107.347 81.5529C107.259 81.2011 107.219 80.8765 107.137 80.518C107.036 80.8697 106.995 81.1944 106.928 81.5529C106.908 81.8511 106.825 82.1416 106.684 82.4052C106.542 82.6373 106.344 82.8293 106.107 82.9631C105.87 83.0968 105.603 83.1679 105.331 83.1695C104.916 83.1657 104.508 83.286 104.161 83.5149C103.814 83.7439 103.543 84.0711 103.383 84.4547C103.24 84.8087 103.205 85.1969 103.282 85.5708C103.326 85.916 103.396 86.2575 103.491 86.5922C103.573 86.2608 103.613 85.9158 103.694 85.5708C103.726 85.2798 103.818 84.9986 103.965 84.7456C104.108 84.5174 104.308 84.3305 104.545 84.2035C104.782 84.0766 105.049 84.0139 105.318 84.0218C105.734 84.0104 106.137 83.8757 106.477 83.6349C106.816 83.3941 107.077 83.0579 107.225 82.669C107.377 82.3177 107.42 81.9287 107.347 81.5529ZM89.0837 71.6027C88.78 71.5773 88.4872 71.4774 88.2314 71.3118C88.0098 71.1622 87.8281 70.9608 87.7019 70.725C87.5758 70.4893 87.5091 70.2263 87.5076 69.959C87.5141 69.8825 87.5141 69.8055 87.5076 69.729C87.2235 69.7764 86.9529 69.8305 86.6891 69.8981C86.6925 69.9251 86.6925 69.9523 86.6891 69.9793C86.688 70.3917 86.8071 70.7956 87.0317 71.1416C87.2563 71.4875 87.5768 71.7606 87.954 71.9274C88.3174 72.0705 88.7143 72.1057 89.0972 72.0288C89.4397 71.9817 89.7787 71.9117 90.1118 71.8191C89.787 71.7285 89.4572 71.6562 89.1242 71.6027H89.0837ZM112.082 106.553C111.78 106.531 111.488 106.431 111.237 106.263C111.014 106.114 110.831 105.913 110.705 105.677C110.578 105.441 110.512 105.177 110.513 104.91C110.503 104.493 110.369 104.089 110.128 103.749C109.887 103.409 109.55 103.149 109.16 103.002C108.801 102.875 108.414 102.854 108.044 102.941C107.702 102.989 107.363 103.057 107.029 103.144C107.361 103.232 107.706 103.273 108.044 103.354C108.341 103.372 108.63 103.457 108.889 103.604C109.126 103.743 109.324 103.94 109.463 104.177C109.601 104.414 109.676 104.683 109.681 104.957C109.674 105.371 109.791 105.777 110.017 106.124C110.242 106.471 110.565 106.743 110.946 106.905C111.309 107.038 111.701 107.073 112.082 107.007C112.426 106.959 112.767 106.891 113.103 106.804C112.769 106.698 112.428 106.614 112.082 106.553Z" fill="white"/>
<path d="M152.228 102.495C152.133 101.284 152.106 100.073 152.126 98.8626C152.229 96.5184 152.546 94.1885 153.073 91.9022C153.073 91.8008 153.269 91.8278 153.263 91.936C153.012 94.2291 152.992 96.5696 152.897 98.8762C152.843 100.019 152.816 101.162 152.803 102.312C152.789 103.462 152.735 104.666 152.803 105.837C152.803 105.904 152.688 105.918 152.681 105.837C152.512 104.727 152.316 103.625 152.228 102.495Z" fill="#263238"/>
<path d="M196.885 96.8469C174.82 90.8944 158.857 88.1887 155.786 87.7355C155.77 87.7344 155.754 87.7388 155.742 87.748C155.729 87.7572 155.72 87.7706 155.716 87.7858C155.712 87.801 155.713 87.8172 155.72 87.8314C155.726 87.8457 155.738 87.8573 155.752 87.864C171.093 92.3961 195.357 97.0093 196.845 97.1175C196.875 97.1137 196.904 97.0999 196.926 97.0782C196.948 97.0566 196.963 97.0283 196.968 96.9976C196.972 96.9669 196.967 96.9356 196.952 96.9084C196.937 96.8812 196.914 96.8596 196.885 96.8469Z" fill="#263238"/>
<path opacity="0.1" d="M185.258 130.573C175.145 136.823 152.174 134.05 138.03 125.371C123.554 116.497 95.6179 97.6786 86.263 83.8931C83.794 80.2607 82.6982 77.3791 82.6103 75.1875L185.258 130.573Z" fill="black"/>
<path d="M30.4107 176.191C30.4783 176.272 122.79 171.963 123.392 171.395C124.508 170.333 110.235 98.3009 95.2932 73.0839C92.4928 68.3489 79.8708 61.3885 70.712 70.3308C43.0869 97.3201 29.2472 174.574 30.4107 176.191Z" fill="#30C29F"/>
<path d="M69.9273 102.928C69.6313 102.896 69.3466 102.796 69.0953 102.637C68.868 102.493 68.6819 102.293 68.5551 102.056C68.4282 101.819 68.365 101.553 68.3715 101.284C68.3696 100.981 68.3 100.683 68.1678 100.41C68.0356 100.138 67.8441 99.8986 67.6073 99.7098C67.3706 99.5211 67.0946 99.3877 66.7996 99.3195C66.5047 99.2512 66.1982 99.2499 65.9026 99.3155C65.5539 99.3658 65.2084 99.4358 64.8677 99.5252C65.2194 99.6064 65.5441 99.6469 65.9026 99.7146C66.2022 99.7408 66.4928 99.8307 66.7549 99.9784C66.987 100.12 67.179 100.319 67.3128 100.556C67.4465 100.792 67.5176 101.059 67.5192 101.331C67.5203 101.743 67.6428 102.146 67.8714 102.489C68.1 102.832 68.4245 103.1 68.8044 103.259C69.1589 103.408 69.5491 103.45 69.9273 103.381C70.279 103.3 70.6037 103.259 70.9419 103.171C70.6093 103.068 70.2704 102.987 69.9273 102.928ZM88.7251 170.137C88.4242 170.109 88.1343 170.009 87.8796 169.846C87.6533 169.701 87.4676 169.501 87.3399 169.264C87.2121 169.027 87.1465 168.762 87.149 168.493C87.1421 168.076 87.0093 167.671 86.7678 167.33C86.5264 166.99 86.1877 166.73 85.7962 166.586C85.4364 166.466 85.0508 166.445 84.6801 166.525C84.3487 166.586 84.0037 166.633 83.6655 166.714C83.9995 166.801 84.3383 166.869 84.6801 166.917C84.9777 166.947 85.2658 167.04 85.5256 167.188C85.7636 167.325 85.9618 167.522 86.1005 167.759C86.2393 167.997 86.3139 168.266 86.3171 168.541C86.3074 168.952 86.4232 169.357 86.6491 169.702C86.875 170.046 87.2004 170.313 87.582 170.468C87.9397 170.623 88.3352 170.668 88.7184 170.597C89.0498 170.516 89.3948 170.468 89.7397 170.387C89.388 170.238 89.0836 170.198 88.7251 170.137ZM107.469 103.036C107.329 103.057 107.191 103.089 107.056 103.131C107.212 103.171 107.367 103.205 107.53 103.232C107.517 103.165 107.496 103.099 107.469 103.036ZM89.1242 71.6024C88.8205 71.577 88.5278 71.4771 88.2719 71.3116C88.0503 71.1619 87.8686 70.9605 87.7425 70.7248C87.6164 70.489 87.5497 70.2261 87.5481 69.9587C87.5428 69.5435 87.4102 69.14 87.1683 68.8025C86.9264 68.465 86.5868 68.2099 86.1953 68.0715C85.8311 67.9306 85.4336 67.9 85.0521 67.9836C84.7207 68.0512 84.3757 68.0918 84.0375 68.1932C84.3689 68.2744 84.7139 68.315 85.0521 68.4029C85.3512 68.4224 85.6423 68.5079 85.9044 68.6532C86.1403 68.7925 86.3364 68.9901 86.4738 69.227C86.6112 69.4639 86.6853 69.7322 86.6891 70.0061C86.688 70.4185 86.807 70.8224 87.0317 71.1683C87.2563 71.5143 87.5768 71.7873 87.954 71.9542C88.3173 72.0973 88.7143 72.1325 89.0971 72.0556C89.4397 72.0085 89.7786 71.9385 90.1118 71.8459C89.7875 71.7462 89.4577 71.6649 89.1242 71.6024ZM43.283 131.033C42.9855 131.007 42.6971 130.917 42.4375 130.769C42.2183 130.617 42.0384 130.415 41.9126 130.18C41.7868 129.945 41.7186 129.683 41.7137 129.416C41.7126 128.917 41.5271 128.435 41.1928 128.063L40.8546 129.153C40.865 129.238 40.865 129.324 40.8546 129.41C40.8527 129.822 40.9714 130.226 41.1961 130.573C41.4208 130.919 41.7418 131.192 42.1195 131.358C42.4793 131.505 42.8748 131.543 43.2559 131.466C43.6001 131.416 43.9411 131.346 44.2773 131.256C43.9729 131.162 43.6144 131.121 43.283 131.033ZM63.6636 159.537C63.3625 159.505 63.0718 159.408 62.8113 159.253C62.5872 159.106 62.4035 158.905 62.2771 158.669C62.1507 158.433 62.0855 158.169 62.0876 157.901C62.0797 157.483 61.9465 157.078 61.7052 156.738C61.4639 156.398 61.1257 156.138 60.7347 155.993C60.3743 155.867 59.9867 155.839 59.6118 155.912C59.2601 155.993 58.9354 156.034 58.5972 156.122C58.9308 156.211 59.2697 156.278 59.6118 156.324C59.9141 156.342 60.2071 156.435 60.4641 156.595C60.7022 156.732 60.9003 156.929 61.0391 157.167C61.1778 157.404 61.2524 157.673 61.2556 157.948C61.2459 158.36 61.3617 158.765 61.5876 159.109C61.8136 159.453 62.1389 159.721 62.5205 159.876C62.8801 160.024 63.2757 160.062 63.6569 159.984C63.9985 159.932 64.3371 159.862 64.6715 159.774C64.3265 159.646 63.9951 159.605 63.6636 159.537ZM80.4795 131.845C80.1858 131.816 79.9019 131.724 79.6475 131.574C79.4212 131.429 79.2358 131.229 79.109 130.992C78.9823 130.755 78.9185 130.49 78.9237 130.221C78.9123 129.805 78.7776 129.402 78.5368 129.062C78.296 128.723 77.9598 128.462 77.5709 128.314C77.2141 128.171 76.8217 128.143 76.448 128.233C76.0963 128.314 75.7716 128.354 75.4131 128.436C75.7531 128.528 76.0988 128.598 76.448 128.645C76.7471 128.665 77.0382 128.75 77.3003 128.895C77.5333 129.036 77.726 129.235 77.8599 129.472C77.9938 129.709 78.0644 129.976 78.0647 130.248C78.0653 130.663 78.1874 131.069 78.4157 131.415C78.6441 131.761 78.9689 132.033 79.3499 132.196C79.7062 132.339 80.0966 132.375 80.4728 132.298C80.8213 132.25 81.1668 132.182 81.5077 132.095C81.1627 131.966 80.8313 131.926 80.4795 131.845ZM108.7 149.506C108.402 149.484 108.115 149.384 107.868 149.215C107.64 149.073 107.453 148.873 107.326 148.635C107.199 148.398 107.136 148.131 107.144 147.862C107.133 147.446 106.998 147.043 106.757 146.703C106.516 146.364 106.18 146.103 105.791 145.955C105.422 145.835 105.028 145.814 104.648 145.894C104.317 145.955 103.972 145.995 103.633 146.077C103.967 146.167 104.306 146.237 104.648 146.286C104.956 146.309 105.254 146.402 105.521 146.557C105.756 146.696 105.95 146.894 106.084 147.131C106.218 147.368 106.287 147.637 106.285 147.91C106.284 148.32 106.403 148.721 106.628 149.064C106.853 149.407 107.173 149.676 107.55 149.838C107.91 149.992 108.309 150.035 108.693 149.959C109.045 149.878 109.37 149.838 109.708 149.756C109.378 149.648 109.042 149.565 108.7 149.506ZM104.486 128.124C104.252 128.32 103.984 128.469 103.694 128.564C103.432 128.628 103.157 128.625 102.896 128.555C102.635 128.485 102.395 128.351 102.199 128.165C101.911 127.874 101.542 127.674 101.141 127.589C100.739 127.505 100.322 127.541 99.9402 127.691C99.5775 127.836 99.2681 128.089 99.0541 128.415C98.8647 128.706 98.655 128.977 98.4724 129.288C98.7835 129.098 99.0541 128.895 99.345 128.706C99.574 128.519 99.8421 128.384 100.13 128.314C100.397 128.261 100.673 128.275 100.934 128.354C101.194 128.433 101.431 128.575 101.625 128.767C101.926 129.053 102.305 129.244 102.714 129.315C103.123 129.386 103.544 129.334 103.924 129.166C104.269 128.995 104.563 128.736 104.777 128.415C104.959 128.124 105.169 127.861 105.331 127.549C105.04 127.739 104.777 127.948 104.486 128.124ZM69.9273 76.3442C69.8597 75.9856 69.8191 75.6677 69.7379 75.3228C69.6492 75.6591 69.5792 76.0001 69.5282 76.3442C69.5021 76.6417 69.4121 76.9301 69.2644 77.1897C69.1276 77.4267 68.9302 77.623 68.6925 77.7585C68.4547 77.894 68.1852 77.9639 67.9116 77.9608C67.4997 77.9628 67.0975 78.0856 66.7548 78.3141C66.4121 78.5426 66.144 78.8666 65.9838 79.246C65.8351 79.6053 65.7929 79.9998 65.862 80.3824C65.9432 80.7138 65.9838 81.0588 66.0717 81.397C66.1569 81.0626 66.2246 80.7239 66.2746 80.3824C66.2989 80.0806 66.3989 79.7898 66.5655 79.5369C66.7108 79.3106 66.9111 79.1249 67.1477 78.9972C67.3843 78.8694 67.6495 78.8037 67.9183 78.8063C68.2204 78.8042 68.5182 78.7347 68.7899 78.6029C69.0617 78.471 69.3006 78.2802 69.4892 78.0443C69.6778 77.8083 69.8114 77.5333 69.8802 77.2391C69.9489 76.945 69.9512 76.6393 69.8867 76.3442H69.9273ZM61.8102 136.066C61.7641 135.723 61.6964 135.385 61.6073 135.051C61.5261 135.382 61.4788 135.727 61.3976 136.066C61.3782 136.365 61.2927 136.656 61.1473 136.918C61.0097 137.154 60.8119 137.349 60.5742 137.483C60.3365 137.617 60.0675 137.686 59.7945 137.682C59.4929 137.677 59.1939 137.739 58.9193 137.864C58.6447 137.988 58.4014 138.173 58.207 138.404C58.0126 138.634 57.8721 138.905 57.7957 139.197C57.7193 139.489 57.7089 139.794 57.7652 140.09C57.8133 140.439 57.881 140.784 57.9681 141.125C58.0607 140.785 58.1308 140.44 58.1778 140.09C58.2032 139.793 58.3032 139.507 58.4687 139.258C58.6114 139.03 58.8114 138.843 59.0487 138.716C59.2861 138.589 59.5525 138.527 59.8215 138.535C60.237 138.52 60.6392 138.385 60.9783 138.144C61.3173 137.904 61.5784 137.569 61.7291 137.182C61.868 136.829 61.9055 136.445 61.8373 136.072L61.8102 136.066ZM92.1411 110.855C92.0599 110.524 92.0193 110.179 91.9314 109.841C91.8462 110.175 91.7785 110.514 91.7284 110.855C91.7041 111.163 91.6117 111.461 91.4579 111.728C91.3205 111.964 91.123 112.16 90.8854 112.296C90.6478 112.431 90.3785 112.501 90.105 112.499C89.6909 112.491 89.2843 112.61 88.9397 112.839C88.5951 113.069 88.329 113.399 88.1772 113.784C88.0175 114.134 87.9817 114.528 88.0757 114.9C88.1366 115.252 88.1772 115.577 88.2584 115.915C88.3497 115.581 88.4197 115.243 88.4681 114.9C88.5029 114.605 88.6022 114.321 88.7589 114.068C88.9017 113.84 89.1016 113.653 89.339 113.526C89.5763 113.399 89.8427 113.337 90.1118 113.345C90.5279 113.333 90.9313 113.198 91.2708 112.958C91.6104 112.717 91.8709 112.381 92.0193 111.992C92.156 111.632 92.207 111.245 92.1681 110.862L92.1411 110.855ZM48.5862 171.348C48.505 170.996 48.4644 170.671 48.3765 170.333C48.2874 170.667 48.2196 171.006 48.1735 171.348C48.1548 171.65 48.0619 171.943 47.903 172.2C47.768 172.438 47.5708 172.635 47.3325 172.77C47.0942 172.905 46.8237 172.972 46.5501 172.964C46.1384 172.967 45.7366 173.091 45.3941 173.319C45.0515 173.547 44.7833 173.871 44.6223 174.25C44.4742 174.612 44.4366 175.009 44.5141 175.393C44.5141 175.447 44.5141 175.508 44.5479 175.562H44.8929L44.9335 175.406C44.949 175.104 45.0422 174.81 45.204 174.554C45.3468 174.326 45.5467 174.139 45.7841 174.012C46.0214 173.885 46.2878 173.822 46.5569 173.83C46.9742 173.823 47.3796 173.69 47.72 173.449C48.0604 173.208 48.3199 172.869 48.4644 172.477C48.6134 172.123 48.6648 171.735 48.6132 171.355L48.5862 171.348ZM89.848 91.5975C89.6196 91.7901 89.3481 91.9247 89.0566 91.9898C88.7937 92.0505 88.5194 92.0406 88.2616 91.961C88.0038 91.8814 87.7716 91.735 87.5887 91.5366C87.2869 91.2516 86.9074 91.0622 86.4982 90.9924C86.0889 90.9226 85.6682 90.9754 85.2889 91.1443C84.94 91.3065 84.6444 91.5646 84.4366 91.8884C84.2472 92.1792 84.024 92.4498 83.8549 92.761C84.166 92.5716 84.4366 92.3686 84.7275 92.1792C84.948 91.9749 85.2187 91.8325 85.5121 91.7666C85.7721 91.6928 86.0468 91.6884 86.3091 91.7536C86.5713 91.8189 86.8119 91.9516 87.007 92.1386C87.2153 92.3592 87.4704 92.5303 87.7535 92.6392C88.0366 92.7482 88.3406 92.7923 88.643 92.7683C88.9454 92.7443 89.2386 92.6528 89.501 92.5005C89.7634 92.3482 89.9883 92.139 90.1591 91.8884C90.3485 91.5975 90.5515 91.3269 90.7206 91.0158C90.4365 91.212 90.1591 91.4216 89.8683 91.5975H89.848ZM62.3581 116.497C62.1375 116.697 61.8661 116.833 61.5735 116.889C61.3096 116.95 61.0341 116.941 60.7751 116.861C60.5161 116.781 60.2828 116.635 60.0989 116.436C59.797 116.151 59.4176 115.961 59.0083 115.892C58.5991 115.822 58.1783 115.875 57.799 116.043C57.4501 116.206 57.1546 116.464 56.9467 116.788C56.7641 117.078 56.5341 117.349 56.365 117.66C56.6762 117.471 56.9467 117.261 57.2376 117.078C57.4597 116.872 57.733 116.73 58.029 116.666C58.288 116.593 58.5616 116.588 58.8226 116.654C59.0837 116.719 59.3231 116.851 59.5171 117.038C59.7254 117.258 59.9805 117.429 60.2637 117.538C60.5468 117.647 60.8507 117.691 61.1532 117.667C61.4556 117.643 61.7487 117.552 62.0111 117.4C62.2735 117.247 62.4984 117.038 62.6693 116.788C62.8587 116.497 63.0616 116.226 63.2307 115.915C62.9399 116.111 62.7031 116.314 62.3784 116.503L62.3581 116.497ZM43.7633 153.152C43.5412 153.354 43.2671 153.49 42.9718 153.544C42.7069 153.606 42.4307 153.597 42.1699 153.52C41.9092 153.443 41.6728 153.3 41.4837 153.105C41.1912 152.812 40.8161 152.615 40.4086 152.541C40.0011 152.467 39.5808 152.52 39.2042 152.692C38.862 152.865 38.5689 153.12 38.3519 153.436C38.1394 153.714 37.945 154.006 37.7701 154.309C38.0747 154.136 38.3663 153.942 38.6427 153.727C38.8651 153.525 39.1351 153.383 39.4274 153.314C39.6863 153.25 39.9574 153.252 40.2153 153.32C40.4732 153.389 40.7095 153.522 40.902 153.707C41.1098 153.928 41.3645 154.099 41.6473 154.209C41.9302 154.318 42.2339 154.363 42.5363 154.34C42.8387 154.316 43.132 154.225 43.3947 154.074C43.6574 153.922 43.8827 153.713 44.0541 153.463C44.2367 153.172 44.4667 152.902 44.6358 152.591C44.3247 152.78 44.0541 152.99 43.7633 153.152ZM87.8593 149.398C87.6237 149.591 87.3454 149.726 87.0476 149.79C86.7845 149.844 86.5123 149.83 86.2558 149.751C85.9994 149.672 85.7669 149.529 85.5798 149.337C85.2836 149.04 84.9028 148.843 84.4898 148.771C84.0768 148.7 83.6518 148.758 83.2731 148.938C82.9288 149.107 82.6367 149.367 82.4276 149.689C82.2382 149.959 82.0353 150.223 81.8459 150.534C82.1488 150.362 82.4403 150.17 82.7185 149.959C82.9551 149.777 83.2202 149.635 83.5031 149.54C83.7658 149.476 84.0404 149.478 84.3017 149.548C84.5629 149.618 84.8024 149.752 84.998 149.939C85.2063 150.16 85.4614 150.331 85.7445 150.44C86.0276 150.549 86.3316 150.593 86.634 150.569C86.9364 150.545 87.2296 150.453 87.492 150.301C87.7544 150.149 87.9793 149.939 88.1502 149.689C88.3328 149.398 88.5425 149.127 88.7048 148.816C88.4072 149.012 88.1502 149.215 87.8593 149.425V149.398ZM112.65 164.57C112.421 164.758 112.153 164.892 111.866 164.962C111.598 165.017 111.322 165.005 111.061 164.926C110.799 164.846 110.562 164.703 110.371 164.509C110.073 164.224 109.697 164.035 109.291 163.965C108.885 163.895 108.467 163.948 108.091 164.117C107.738 164.272 107.44 164.532 107.239 164.861C107.029 165.141 106.834 165.432 106.657 165.734C106.968 165.544 107.239 165.341 107.53 165.152C107.756 164.948 108.027 164.799 108.321 164.719C108.579 164.653 108.849 164.654 109.106 164.723C109.364 164.791 109.599 164.925 109.789 165.111C110.081 165.404 110.453 165.605 110.858 165.689C111.263 165.774 111.684 165.737 112.068 165.585C112.422 165.431 112.725 165.18 112.941 164.861C113.13 164.57 113.354 164.299 113.523 163.988C113.212 164.205 112.941 164.414 112.65 164.597V164.57Z" fill="white"/>
<path d="M99.5531 168.747L110.176 93.6309L95.7913 91.5967L85.1689 166.712L99.5531 168.747Z" fill="#37474F"/>
<path d="M113.88 170.682L124.502 95.5664L110.118 93.5323L99.4953 168.648L113.88 170.682Z" fill="#263238"/>
<path d="M101.481 162.012L102.436 155.008L88.0391 153.046L87.0847 160.05L101.481 162.012Z" fill="#30C29F"/>
<path d="M103.062 150.405L103.432 147.691L89.0357 145.729L88.6658 148.444L103.062 150.405Z" fill="#30C29F"/>
<path d="M118.514 174.271L129.523 93.4883L116.547 91.7201L105.539 172.503L118.514 174.271Z" fill="#C7C7C7"/>
<path d="M127.765 106.362L128.836 98.5073L115.86 96.7391L114.79 104.594L127.765 106.362Z" fill="#30C29F"/>
<path d="M126.131 111.429L126.594 108.154L113.629 106.321L113.166 109.596L126.131 111.429Z" fill="#30C29F"/>
<path d="M119.847 164.442L120.918 156.587L107.942 154.819L106.872 162.674L119.847 164.442Z" fill="#30C29F"/>
<path d="M154.042 96.8292L129.519 93.4873L118.5 174.344L143.024 177.686L154.042 96.8292Z" fill="#EBEBEB"/>
<path d="M132.847 175.014L143.01 100.438L132.226 98.9679L122.063 173.544L132.847 175.014Z" fill="#455A64"/>
<path d="M153.16 177.785L163.322 103.209L143.001 100.44L132.838 175.016L153.16 177.785Z" fill="#37474F"/>
<path d="M131.728 174.862L141.891 100.285L133.345 99.1207L123.183 173.697L131.728 174.862Z" fill="white"/>
<path d="M139.477 104.882L138.368 113.608L137.211 122.334L134.891 139.779L132.456 157.21L131.238 165.923L129.973 174.635L131.076 165.902L132.233 157.177L134.56 139.732L136.988 122.3L138.206 113.588L139.477 104.882Z" fill="#DBDBDB"/>
<path d="M137.8 104.653L136.69 113.385L135.534 122.105L133.213 139.55L130.785 156.981L129.568 165.7L128.296 174.406L129.398 165.673L130.562 156.954L132.882 139.502L135.31 122.078L136.528 113.358L137.8 104.653Z" fill="#DBDBDB"/>
<path d="M136.122 104.422L135.013 113.155L133.856 121.874L131.536 139.326L129.108 156.75L127.89 165.47L126.618 174.175L127.728 165.443L128.884 156.723L131.205 139.278L133.633 121.847L134.85 113.128L136.122 104.422Z" fill="#DBDBDB"/>
<path d="M134.445 104.192L133.342 112.925L132.179 121.651L129.865 139.096L127.43 156.527L126.213 165.24L124.941 173.945L126.05 165.219L127.207 156.493L129.527 139.048L131.962 121.617L133.18 112.905L134.445 104.192Z" fill="#DBDBDB"/>
<path d="M71.314 70.4932C70.1776 69.1403 77.51 65.0818 79.4311 66.6105C81.3521 68.1392 90.9776 91.9426 87.8458 117.762C84.7139 143.581 33.3261 171.416 31.4321 167.533C30.6407 165.909 31.6553 161.384 32.9067 159.937C34.6654 157.907 71.7537 135.497 75.4199 119.487C78.6735 105.248 74.2023 74.0106 71.314 70.4932Z" fill="#455A64"/>
<path d="M58.5025 88.7767C42.8704 126.514 28.7399 179.492 44.2368 186.797C54.5319 191.647 75.0276 152.733 75.2237 152.022C75.9002 149.594 76.3601 118.127 77.1042 89.3382C77.7874 62.7412 65.4832 71.9203 58.5025 88.7767Z" fill="#30C29F"/>
<path d="M69.9273 102.928C69.6313 102.896 69.3466 102.796 69.0953 102.637C68.8681 102.493 68.6819 102.293 68.5551 102.056C68.4282 101.819 68.365 101.553 68.3716 101.284C68.3697 100.981 68.3001 100.683 68.1678 100.41C68.0356 100.138 67.8441 99.8985 67.6074 99.7098C67.3706 99.521 67.0946 99.3876 66.7997 99.3194C66.5047 99.2512 66.1982 99.2498 65.9026 99.3154C65.554 99.3658 65.2084 99.4358 64.8677 99.5251C65.2194 99.6063 65.5441 99.6469 65.9026 99.7145C66.2023 99.7407 66.4929 99.8307 66.7549 99.9783C66.987 100.12 67.179 100.319 67.3128 100.555C67.4466 100.792 67.5176 101.059 67.5193 101.331C67.5204 101.743 67.6429 102.146 67.8714 102.489C68.1 102.832 68.4245 103.099 68.8045 103.259C69.1589 103.408 69.5492 103.45 69.9273 103.381C70.2791 103.3 70.6037 103.259 70.942 103.171C70.6093 103.068 70.2704 102.987 69.9273 102.928ZM43.8986 131.161C43.886 131.225 43.8702 131.289 43.8512 131.351C44.0046 131.325 44.156 131.289 44.3044 131.243C44.1707 131.208 44.0352 131.181 43.8986 131.161ZM63.6636 159.537C63.3625 159.505 63.0719 159.408 62.8114 159.253C62.5872 159.106 62.4036 158.905 62.2771 158.669C62.1507 158.433 62.0855 158.168 62.0876 157.9C62.0797 157.483 61.9465 157.078 61.7052 156.738C61.4639 156.398 61.1257 156.138 60.7347 155.993C60.3743 155.867 59.9867 155.839 59.6119 155.912C59.2601 155.993 58.9354 156.034 58.5972 156.121C58.9308 156.211 59.2697 156.278 59.6119 156.324C59.9141 156.342 60.2071 156.435 60.4642 156.595C60.7022 156.732 60.9003 156.929 61.0391 157.167C61.1778 157.404 61.2525 157.673 61.2556 157.948C61.2459 158.36 61.3617 158.764 61.5876 159.109C61.8136 159.453 62.1389 159.721 62.5205 159.876C62.8801 160.024 63.2758 160.062 63.6569 159.984C63.9985 159.931 64.3371 159.861 64.6715 159.774C64.3265 159.646 63.9951 159.605 63.6636 159.537ZM75.4199 128.422C75.6712 128.493 75.9264 128.549 76.1842 128.591C76.1842 128.49 76.1842 128.381 76.1842 128.273C75.934 128.32 75.6837 128.361 75.4199 128.422ZM69.9273 76.3373C69.8597 75.9788 69.8191 75.6609 69.7379 75.3159C69.6492 75.6522 69.5792 75.9932 69.5282 76.3373C69.5021 76.6349 69.4121 76.9233 69.2644 77.1829C69.1276 77.4199 68.9302 77.6162 68.6925 77.7517C68.4547 77.8872 68.1852 77.957 67.9116 77.954C67.4997 77.956 67.0975 78.0788 66.7548 78.3073C66.4121 78.5357 66.144 78.8598 65.9838 79.2392C65.8352 79.5985 65.7929 79.9929 65.862 80.3756C65.9432 80.707 65.9838 81.052 66.0717 81.3902C66.1569 81.0557 66.2246 80.7171 66.2746 80.3756C66.2989 80.0737 66.399 79.7829 66.5655 79.53C66.7108 79.3038 66.9111 79.1181 67.1477 78.9903C67.3843 78.8626 67.6495 78.7969 67.9184 78.7995C68.2204 78.7974 68.5182 78.7279 68.7899 78.596C69.0617 78.4642 69.3006 78.2734 69.4892 78.0374C69.6778 77.8015 69.8114 77.5264 69.8802 77.2323C69.9489 76.9382 69.9512 76.6324 69.8867 76.3373H69.9273ZM61.8102 136.059C61.7641 135.717 61.6964 135.378 61.6073 135.044C61.5262 135.376 61.4788 135.721 61.3976 136.059C61.3782 136.358 61.2927 136.649 61.1474 136.911C61.0097 137.147 60.8119 137.342 60.5742 137.476C60.3365 137.61 60.0675 137.679 59.7945 137.675C59.4929 137.67 59.194 137.732 58.9193 137.857C58.6447 137.982 58.4014 138.166 58.207 138.397C58.0127 138.627 57.8721 138.898 57.7957 139.19C57.7193 139.482 57.7089 139.787 57.7652 140.083C57.8133 140.432 57.881 140.778 57.9682 141.118C58.0607 140.778 58.1308 140.433 58.1779 140.083C58.2032 139.786 58.3032 139.5 58.4687 139.251C58.6115 139.023 58.8114 138.836 59.0488 138.709C59.2861 138.582 59.5525 138.52 59.8216 138.528C60.237 138.514 60.6392 138.378 60.9783 138.137C61.3173 137.897 61.5784 137.562 61.7291 137.175C61.8667 136.824 61.9042 136.443 61.8373 136.072L61.8102 136.059ZM48.5862 171.341C48.505 170.989 48.4644 170.665 48.3765 170.326C48.2874 170.66 48.2197 170.999 48.1736 171.341C48.1548 171.643 48.0619 171.936 47.903 172.193C47.7681 172.431 47.5709 172.628 47.3325 172.763C47.0942 172.898 46.8238 172.965 46.5501 172.958C46.1385 172.96 45.7366 173.084 45.3941 173.312C45.0516 173.54 44.7833 173.864 44.6223 174.243C44.4742 174.605 44.4366 175.003 44.5141 175.386C44.5817 175.717 44.6223 176.062 44.7238 176.401C44.805 176.049 44.8455 175.724 44.9335 175.386C44.949 175.083 45.0422 174.79 45.2041 174.534C45.3468 174.305 45.5468 174.119 45.7841 173.992C46.0214 173.865 46.2879 173.802 46.5569 173.81C46.9742 173.803 47.3796 173.67 47.72 173.429C48.0604 173.187 48.3199 172.849 48.4644 172.457C48.6098 172.109 48.6612 171.729 48.6132 171.355L48.5862 171.341ZM62.3514 116.49C62.1308 116.69 61.8593 116.826 61.5667 116.882C61.3028 116.943 61.0274 116.934 60.7684 116.854C60.5094 116.775 60.2761 116.628 60.0921 116.429C59.7903 116.144 59.4108 115.955 59.0016 115.885C58.5923 115.815 58.1716 115.868 57.7923 116.037C57.4434 116.199 57.1478 116.457 56.94 116.781C56.7574 117.072 56.5274 117.342 56.3583 117.653C56.6694 117.464 56.94 117.254 57.2309 117.072C57.453 116.866 57.7263 116.723 58.0223 116.659C58.2812 116.586 58.5548 116.582 58.8159 116.647C59.0769 116.712 59.3164 116.845 59.5104 117.031C59.7187 117.252 59.9738 117.423 60.2569 117.532C60.54 117.641 60.844 117.685 61.1464 117.661C61.4488 117.637 61.742 117.545 62.0044 117.393C62.2668 117.241 62.4917 117.031 62.6625 116.781C62.8519 116.49 63.0549 116.219 63.224 115.908C62.9399 116.111 62.7031 116.314 62.3784 116.503L62.3514 116.49ZM43.7633 153.152C43.5412 153.354 43.2671 153.49 42.9719 153.544C42.707 153.606 42.4307 153.597 42.1699 153.52C41.9092 153.443 41.6728 153.3 41.4837 153.105C41.1913 152.811 40.8161 152.615 40.4086 152.541C40.0011 152.467 39.5809 152.52 39.2042 152.692C39.1512 152.712 39.1011 152.74 39.0554 152.773C39.008 153.023 38.9674 153.274 38.9268 153.524C39.0786 153.422 39.2486 153.351 39.4274 153.314C39.6863 153.249 39.9574 153.251 40.2153 153.32C40.4733 153.389 40.7095 153.522 40.902 153.707C41.1098 153.928 41.3645 154.099 41.6473 154.209C41.9302 154.318 42.234 154.363 42.5364 154.339C42.8388 154.316 43.1321 154.225 43.3947 154.074C43.6574 153.922 43.8827 153.713 44.0541 153.463C44.2368 153.172 44.4667 152.902 44.6359 152.591C44.3247 152.78 44.0541 152.99 43.7633 153.152Z" fill="white"/>
<path d="M78.2609 111.41C78.0309 113.135 77.8144 114.873 77.6386 116.605C77.6386 116.179 77.6386 115.753 77.598 115.326C77.4424 111.843 77.2598 108.359 77.0771 104.882C77.0771 104.808 76.9554 104.822 76.9554 104.882C76.8878 111.058 76.766 117.227 76.6848 123.403C76.6036 129.579 76.5225 135.707 76.1369 141.869C75.9205 145.36 75.704 148.884 75.217 152.361C75.217 152.435 75.3252 152.455 75.3387 152.361C75.8393 149.29 76.3804 146.232 76.6916 143.148C77.0027 140.063 77.3274 137.013 77.483 133.942C77.7265 129.301 77.8032 124.67 77.713 120.048C78.1088 117.177 78.3504 114.287 78.4368 111.39C78.4909 111.308 78.2947 111.302 78.2609 111.41Z" fill="#263238"/>
<path d="M54.5861 98.3953C53.2332 101.71 51.9074 105.045 50.6087 108.4C50.8793 106.851 51.2107 105.322 51.5354 103.793C51.5354 103.692 51.4001 103.631 51.3595 103.732C50.7017 105.631 50.2947 107.607 50.1487 109.61C47.8895 115.604 45.7993 121.658 43.9662 127.793C41.0035 137.709 38.6563 147.876 37.7296 158.191C37.1445 163.924 37.1445 169.701 37.7296 175.433C37.7296 175.453 37.7374 175.472 37.7514 175.486C37.7653 175.5 37.7843 175.508 37.804 175.508C37.8237 175.508 37.8426 175.5 37.8566 175.486C37.8706 175.472 37.8784 175.453 37.8784 175.433C37.8074 170.274 38.0106 165.115 38.4872 159.977C38.9908 154.877 39.7698 149.807 40.8208 144.791C43.0249 134.724 45.8487 124.802 49.2761 115.083C51.1566 109.563 53.0438 104.05 54.8702 98.5171C54.9378 98.3209 54.6334 98.2194 54.5861 98.3953Z" fill="#263238"/>
<path d="M41.734 184.268C52.5568 195.537 97.5051 191.174 126.287 183.591C131.773 182.144 115.823 133.245 110.181 135.45C77.9429 147.984 29.8154 171.903 41.734 184.268Z" fill="#D3766A"/>
<path d="M165.925 135.112C165.695 140.523 162.388 139.786 162.388 139.786C162.388 139.786 165.486 141.903 166.196 145.434C167.014 149.493 161.028 152.53 161.028 152.53C162.691 154.372 163.761 156.673 164.099 159.132C164.491 163.075 158.891 167.019 158.891 167.019C158.891 167.019 159.966 170.996 157.93 174.52C154.453 180.54 122.08 185.972 113.374 186.432L105.196 137.77C105.196 137.77 134.647 122.158 142.629 122.923C149.353 123.572 166.284 126.826 165.925 135.112Z" fill="#D3766A"/>
<path d="M162.286 139.624C155.299 137.223 147.757 136.492 140.465 135.876C140.437 135.883 140.411 135.899 140.393 135.922C140.375 135.944 140.366 135.973 140.366 136.002C140.366 136.031 140.375 136.059 140.393 136.081C140.411 136.104 140.437 136.12 140.465 136.127C147.723 136.661 155.015 139.144 162.232 139.962C162.272 139.959 162.309 139.943 162.338 139.916C162.368 139.89 162.387 139.854 162.393 139.814C162.4 139.775 162.392 139.735 162.373 139.7C162.353 139.666 162.323 139.639 162.286 139.624Z" fill="#263238"/>
<path d="M160.859 151.975C159.221 151.578 157.538 151.403 155.853 151.454C154.068 151.386 152.282 151.359 150.503 151.353C146.925 151.353 143.353 151.42 139.788 151.603C139.626 151.603 139.599 151.853 139.788 151.853C143.346 151.853 146.911 151.934 150.462 152.097C152.266 152.178 154.047 152.275 155.806 152.387C157.478 152.595 159.168 152.62 160.845 152.462C160.897 152.446 160.942 152.415 160.975 152.372C161.007 152.329 161.026 152.277 161.027 152.223C161.029 152.169 161.013 152.117 160.983 152.072C160.953 152.027 160.909 151.993 160.859 151.975Z" fill="#263238"/>
<path d="M158.755 167.012C157.402 166.525 155.651 166.762 154.216 166.789C152.593 166.816 150.965 166.836 149.333 166.85C146.079 166.85 142.826 166.897 139.572 166.809C139.41 166.809 139.389 167.059 139.572 167.059C142.88 167.168 146.181 167.323 149.488 167.398C151.112 167.438 152.735 167.467 154.359 167.485C155.745 167.485 157.463 167.682 158.782 167.181C158.797 167.171 158.809 167.157 158.816 167.14C158.823 167.124 158.825 167.106 158.822 167.088C158.82 167.07 158.812 167.054 158.8 167.04C158.788 167.027 158.773 167.017 158.755 167.012Z" fill="#263238"/>
<path d="M106.826 135.092L115.741 189.537C115.741 189.537 45.2311 198.811 39.8265 181.819C34.4219 164.827 106.826 135.092 106.826 135.092Z" fill="#30C29F"/>
<path d="M88.7251 170.137C88.4242 170.109 88.1343 170.009 87.8796 169.846C87.6534 169.701 87.4677 169.5 87.3399 169.264C87.2121 169.027 87.1465 168.762 87.1491 168.493C87.1422 168.076 87.0093 167.67 86.7679 167.33C86.5264 166.99 86.1877 166.73 85.7962 166.586C85.4364 166.465 85.0509 166.444 84.6801 166.525C84.3487 166.586 84.0037 166.633 83.6655 166.714C83.9995 166.801 84.3383 166.869 84.6801 166.917C84.9778 166.947 85.2658 167.04 85.5257 167.188C85.7637 167.325 85.9618 167.522 86.1006 167.759C86.2393 167.997 86.314 168.266 86.3171 168.541C86.3074 168.952 86.4232 169.357 86.6491 169.702C86.8751 170.046 87.2004 170.313 87.582 170.468C87.9397 170.623 88.3352 170.667 88.7184 170.597C89.0498 170.516 89.3948 170.468 89.7398 170.387C89.388 170.238 89.0836 170.198 88.7251 170.137ZM105.636 186.757C105.338 186.732 105.049 186.642 104.79 186.493C104.566 186.346 104.381 186.145 104.254 185.909C104.126 185.673 104.06 185.408 104.06 185.14C104.052 184.723 103.919 184.318 103.677 183.978C103.436 183.637 103.098 183.378 102.707 183.232C102.351 183.096 101.963 183.068 101.591 183.151C101.259 183.232 100.914 183.28 100.569 183.361C100.906 183.448 101.247 183.516 101.591 183.564C101.887 183.589 102.174 183.674 102.436 183.814C102.673 183.953 102.87 184.15 103.009 184.387C103.147 184.624 103.223 184.893 103.228 185.167C103.214 185.582 103.328 185.992 103.554 186.34C103.78 186.688 104.108 186.959 104.493 187.115C104.852 187.263 105.248 187.301 105.629 187.223C105.98 187.159 106.328 187.075 106.671 186.973C106.305 186.885 105.994 186.845 105.643 186.757H105.636ZM63.6569 159.537C63.3557 159.505 63.0651 159.408 62.8046 159.253C62.5805 159.106 62.3968 158.905 62.2704 158.669C62.1439 158.433 62.0788 158.168 62.0808 157.9C62.0799 157.752 62.0618 157.605 62.0267 157.461L61.2556 157.934C61.2487 158.344 61.3658 158.746 61.5915 159.087C61.8173 159.429 62.1411 159.694 62.5205 159.849C62.8801 159.997 63.2758 160.035 63.6569 159.957C63.9985 159.904 64.3371 159.834 64.6715 159.747C64.3266 159.646 63.9951 159.605 63.6637 159.537H63.6569ZM109.194 149.594L108.666 149.506C108.368 149.484 108.081 149.384 107.834 149.215C107.606 149.072 107.419 148.872 107.292 148.635C107.165 148.398 107.102 148.131 107.11 147.862C107.099 147.446 106.964 147.043 106.723 146.703C106.483 146.364 106.146 146.103 105.757 145.955C105.388 145.835 104.994 145.814 104.614 145.894C104.283 145.955 103.938 145.995 103.6 146.077C103.933 146.167 104.272 146.237 104.614 146.286C104.922 146.309 105.22 146.401 105.487 146.557C105.722 146.696 105.916 146.894 106.05 147.131C106.184 147.368 106.254 147.637 106.251 147.91C106.25 148.32 106.369 148.721 106.594 149.064C106.819 149.407 107.14 149.676 107.516 149.837C107.876 149.992 108.275 150.035 108.659 149.959C108.849 149.912 109.038 149.885 109.221 149.851L109.194 149.594ZM85.3633 186.182C85.3182 185.839 85.2482 185.5 85.1536 185.167C85.0725 185.498 85.0319 185.843 84.9507 186.182C84.9268 186.478 84.8415 186.766 84.7004 187.027C84.5636 187.264 84.3662 187.461 84.1285 187.596C83.8907 187.732 83.6212 187.801 83.3476 187.798C82.9327 187.798 82.5268 187.92 82.1805 188.148C81.8341 188.377 81.5625 188.702 81.3995 189.084C81.2512 189.436 81.2134 189.825 81.2912 190.2C81.3416 190.548 81.4116 190.894 81.5009 191.235C81.6024 190.883 81.643 190.558 81.7106 190.2C81.735 189.904 81.8352 189.62 82.0015 189.374C82.1424 189.144 82.3418 188.955 82.5794 188.827C82.817 188.698 83.0844 188.635 83.3543 188.644C83.7681 188.633 84.1691 188.498 84.5055 188.257C84.8419 188.016 85.0983 187.679 85.2416 187.291C85.3921 186.942 85.4368 186.556 85.3701 186.182H85.3633ZM48.6065 171.354C48.5253 171.003 48.4847 170.678 48.3968 170.34C48.3077 170.673 48.24 171.012 48.1939 171.354C48.1751 171.657 48.0822 171.949 47.9233 172.207C47.7884 172.445 47.5912 172.642 47.3529 172.777C47.1145 172.911 46.8441 172.978 46.5704 172.971C46.1588 172.974 45.7569 173.097 45.4144 173.326C45.0719 173.554 44.8036 173.877 44.6426 174.256C44.4945 174.618 44.4569 175.016 44.5344 175.399C44.602 175.731 44.6426 176.076 44.7441 176.414C44.8253 176.062 44.8658 175.738 44.9538 175.399C44.9693 175.097 45.0625 174.803 45.2244 174.547C45.3671 174.319 45.5671 174.132 45.8044 174.005C46.0417 173.878 46.3082 173.816 46.5772 173.823C46.9945 173.817 47.3999 173.684 47.7403 173.442C48.0807 173.201 48.3402 172.862 48.4847 172.471C48.6257 172.116 48.67 171.731 48.6132 171.354H48.6065ZM87.839 149.425C87.6034 149.618 87.3252 149.753 87.0273 149.817C86.7643 149.871 86.492 149.857 86.2356 149.778C85.9791 149.699 85.7466 149.556 85.5595 149.364C85.2633 149.067 84.8825 148.87 84.4695 148.798C84.0565 148.727 83.6315 148.785 83.2529 148.965C82.9086 149.134 82.6164 149.394 82.4073 149.716C82.218 149.986 82.015 150.25 81.8256 150.561C82.1285 150.389 82.42 150.196 82.6982 149.986C82.9348 149.804 83.2 149.662 83.4829 149.567C83.7455 149.503 84.0201 149.505 84.2814 149.575C84.5427 149.645 84.7821 149.779 84.9777 149.966C85.186 150.187 85.4411 150.358 85.7243 150.467C86.0074 150.576 86.3113 150.62 86.6138 150.596C86.9162 150.572 87.2094 150.48 87.4717 150.328C87.7341 150.176 87.959 149.966 88.1299 149.716C88.3125 149.425 88.5222 149.154 88.6846 148.843C88.4072 149.012 88.1502 149.215 87.8593 149.425H87.839ZM111.703 164.983C111.457 165.012 111.206 164.985 110.972 164.903C110.737 164.821 110.525 164.686 110.35 164.509C110.053 164.224 109.677 164.035 109.271 163.965C108.864 163.895 108.447 163.948 108.071 164.117C107.718 164.272 107.42 164.532 107.219 164.861C107.008 165.141 106.814 165.432 106.637 165.733C106.948 165.544 107.219 165.341 107.509 165.152C107.736 164.948 108.007 164.799 108.301 164.719C108.559 164.653 108.829 164.654 109.086 164.723C109.343 164.791 109.578 164.925 109.769 165.111C110.031 165.37 110.355 165.557 110.711 165.654C111.066 165.752 111.441 165.755 111.798 165.666L111.703 164.983ZM70.942 176.15C70.7049 176.343 70.4274 176.479 70.1303 176.549C69.8666 176.601 69.5944 176.585 69.3381 176.505C69.0819 176.425 68.8496 176.282 68.6624 176.089C68.363 175.8 67.9833 175.608 67.573 175.538C67.1628 175.468 66.7409 175.524 66.3626 175.697C66.0137 175.859 65.7181 176.117 65.5103 176.441C65.3209 176.732 65.118 177.003 64.9286 177.293C65.2397 177.124 65.5103 176.921 65.8012 176.732C66.028 176.532 66.2958 176.384 66.5858 176.299C66.8479 176.234 67.1222 176.236 67.3834 176.304C67.6446 176.373 67.8844 176.506 68.0807 176.691C68.3692 176.984 68.7373 177.184 69.139 177.268C69.5408 177.353 69.9585 177.317 70.3399 177.165C70.696 177.006 71.004 176.757 71.2328 176.441C71.4155 176.15 71.6252 175.88 71.7943 175.569C71.4966 175.711 71.2328 175.941 70.942 176.15Z" fill="white"/>
<path d="M97.5998 142.945C99.3112 166.619 102.118 183.226 102.734 186.391C102.734 186.409 102.741 186.426 102.754 186.439C102.766 186.452 102.784 186.459 102.802 186.459C102.819 186.459 102.837 186.452 102.849 186.439C102.862 186.426 102.869 186.409 102.869 186.391C102.064 169.778 98.283 144.399 97.8772 142.904C97.8298 142.728 97.5863 142.796 97.5998 142.945Z" fill="#263238"/>
<path d="M107.638 136.532C107.442 135.903 107.11 134.124 106.806 134.239C105.744 134.652 104.655 134.977 103.593 135.389L100.583 136.593C98.5401 137.432 96.5108 138.307 94.495 139.218C90.4816 141.021 86.5245 142.922 82.6238 144.92C78.7231 146.918 74.89 149.039 71.1246 151.285C67.3569 153.504 63.6231 155.817 60.038 158.313L59.3616 158.787C57.8386 159.086 56.3464 159.526 54.904 160.099C53.2264 160.775 51.6166 161.573 50.0134 162.405C50.0009 162.414 49.9917 162.426 49.9878 162.441C49.9839 162.455 49.9854 162.47 49.9921 162.484C49.9988 162.497 50.0102 162.508 50.0241 162.513C50.038 162.519 50.0535 162.519 50.0676 162.514C51.6855 161.745 53.3587 161.098 55.0731 160.579L58.1508 159.639C54.7349 162.04 51.346 164.489 48.1127 167.127C48.0518 167.181 48.1127 167.262 48.1939 167.222C51.8533 164.739 55.4857 162.203 59.2399 159.855C62.994 157.508 66.6805 155.215 70.4752 153.017C78.0241 148.647 85.7489 144.588 93.6833 140.949C95.8975 139.93 98.1252 138.945 100.366 137.993C101.51 137.513 102.659 137.019 103.809 136.546C104.797 136.14 105.555 135.775 106.515 135.369C106.671 135.822 106.813 136.228 106.962 136.681C107.11 137.134 107.821 137.1 107.638 136.532Z" fill="#263238"/>
<path d="M112.163 38.7216C110.398 42.1037 108.551 45.3167 110.526 50.1802C111.92 53.6097 116.54 56.9918 116.54 56.9918L122.276 55.5442C122.276 55.5442 124.697 50.904 124.061 46.1893C123.385 41.1703 118.251 37.4702 118.251 37.4702L112.163 38.7216Z" fill="#263238"/>
<path d="M116.614 56.2072C115.349 59.8396 113.976 63.2488 116.614 67.7876C118.481 70.9803 123.534 73.6724 123.534 73.6724L129.006 71.4267C129.006 71.4267 130.745 66.4956 129.446 61.9094C128.093 57.0392 122.458 54.1035 122.458 54.1035L116.614 56.2072Z" fill="#263238"/>
<path d="M123.317 73.1446C123.446 76.9867 123.385 80.6664 127.484 83.9674C130.379 86.274 136.055 86.9707 136.055 86.9707L140.357 82.9122C140.357 82.9122 140.208 77.6834 137.346 73.8752C134.316 69.8166 128.025 69.0996 128.025 69.0996L123.317 73.1446Z" fill="#263238"/>
<path d="M136.055 86.9503C136.055 86.9503 135.256 93.559 140.593 97.7731C145.93 101.987 159.384 99.4168 159.384 99.4168C159.384 99.4168 154.825 97.7663 153.046 94.0054C151.267 90.2445 148.609 82.7633 140.357 82.8918L136.055 86.9503Z" fill="#263238"/>
<path d="M141.387 80.8098L133.623 88.3496L136.036 90.8342L143.8 83.2943L141.387 80.8098Z" fill="#30C29F"/>
<path d="M77.4018 65.8933C68.9397 69.5933 73.2892 80.7205 77.7265 86.186C82.732 92.3076 91.1738 96.0618 93.8051 94.7698C96.4364 93.4779 93.5954 85.4014 93.5954 85.4014C93.5954 85.4014 98.9256 91.3674 100.813 90.6978C102.7 90.0281 100.569 78.9145 95.4014 73.2663C89.8142 67.0906 82.3194 63.7423 77.4018 65.8933Z" fill="white"/>
<path d="M77.1651 70.7366C78.0309 72.2788 85.0589 84.0892 92.9325 84.1501C95.4961 84.1501 96.2199 70.1684 96.2199 70.1684L96.504 69.147L100.563 54.8474L81.785 41.4204C81.785 41.4204 75.6837 68.1053 77.1651 70.7366Z" fill="#D3766A"/>
<path d="M80.2022 48.6584C80.5602 50.4151 81.0118 52.1515 81.5551 53.8601C85.1333 65.4472 91.8096 68.8902 96.3484 69.8372L96.5378 69.1607L100.596 54.8679L81.8121 41.4409C81.8121 41.4409 81.0613 44.4916 80.2022 48.6584Z" fill="#263238"/>
<path d="M74.4797 42.5771C71.8484 45.3843 69.2103 47.9412 69.7853 53.1564C70.1979 56.8429 73.7153 61.3479 73.7153 61.3479L79.634 61.517C79.634 61.517 83.2258 57.7155 83.8955 53.0008C84.6125 47.9885 80.6825 43.0304 80.6825 43.0304L74.4797 42.5771Z" fill="#263238"/>
<path d="M74.0062 60.6174C71.801 63.7695 69.5485 66.7052 70.8608 71.7581C71.7875 75.3431 75.9137 79.307 75.9137 79.307L81.7918 78.6306C81.7918 78.6306 84.8087 74.3556 84.8087 69.5935C84.8087 64.5339 80.209 60.1777 80.209 60.1777L74.0062 60.6174Z" fill="#263238"/>
<path d="M75.846 78.7457C74.9193 82.4796 73.8641 86.0038 76.9148 90.2449C79.0726 93.255 84.3554 95.4737 84.3554 95.4737L89.5977 92.7342C89.5977 92.7342 90.8762 87.661 89.158 83.2169C87.3452 78.4819 81.4874 76.0874 81.4874 76.0874L75.846 78.7457Z" fill="#263238"/>
<path d="M84.3486 95.4934C84.3486 95.4934 81.7782 101.629 85.7624 107.155C89.7465 112.681 103.397 113.852 103.397 113.852C103.397 113.852 99.4599 111.024 98.7768 106.898C98.0936 102.772 97.5321 94.8711 89.5909 92.7539L84.3486 95.4934Z" fill="#263238"/>
<path d="M91.1377 91.0351L81.6147 96.1777L83.2604 99.2251L92.7833 94.0825L91.1377 91.0351Z" fill="#30C29F"/>
<path d="M123.825 31.5379C127.768 58.1146 112.292 63.4786 106.562 64.3242C101.354 65.0885 83.564 67.0299 76.8742 41.0079C70.1844 14.9859 81.3115 4.74481 93.1083 2.3638C104.905 -0.0172092 119.881 4.96127 123.825 31.5379Z" fill="#D3766A"/>
<path d="M116.35 27.4998C115.713 27.4698 115.079 27.402 114.45 27.2969C113.77 27.32 113.102 27.1179 112.549 26.722C112.398 26.5643 112.305 26.361 112.283 26.1442C112.261 25.9274 112.311 25.7094 112.427 25.5247C112.709 25.1924 113.075 24.9418 113.486 24.799C113.898 24.6562 114.34 24.6265 114.767 24.713C115.658 24.7504 116.503 25.1196 117.135 25.7479C117.272 25.8988 117.361 26.0862 117.393 26.2872C117.425 26.4883 117.398 26.6942 117.314 26.88C117.231 27.0657 117.096 27.2232 116.925 27.3333C116.753 27.4434 116.554 27.5013 116.35 27.4998Z" fill="#263238"/>
<path d="M97.8027 29.4005C98.4196 29.2403 99.027 29.0461 99.6223 28.8187C100.293 28.7065 100.908 28.3732 101.368 27.8717C101.488 27.6871 101.543 27.4672 101.524 27.2475C101.504 27.0278 101.411 26.8212 101.259 26.6609C100.916 26.3921 100.508 26.2202 100.076 26.1631C99.644 26.106 99.2048 26.1658 98.8038 26.3363C97.9383 26.5532 97.1839 27.0834 96.6867 27.8244C96.5815 28 96.5297 28.2024 96.5375 28.4069C96.5454 28.6115 96.6125 28.8093 96.7308 28.9763C96.8491 29.1434 97.0134 29.2724 97.2037 29.3477C97.3941 29.423 97.6022 29.4413 97.8027 29.4005Z" fill="#263238"/>
<path d="M100.414 33.1275C97.3699 33.2763 97.8907 39.3438 100.711 39.2153C103.532 39.0868 102.964 32.999 100.414 33.1275Z" fill="#263238"/>
<path d="M99.23 33.5468C98.7295 33.9392 98.2627 34.5885 97.6269 34.7035C96.8896 34.8388 96.274 34.2571 95.7464 33.6821C95.6856 33.628 95.6382 33.6821 95.645 33.7633C95.7261 34.9268 96.2808 36.0834 97.5389 36.1511C98.6889 36.212 99.4194 35.1094 99.6088 33.9189C99.6629 33.6957 99.4465 33.4251 99.23 33.5468Z" fill="#263238"/>
<path d="M114.544 31.4295C117.554 30.9627 118.265 37.0167 115.478 37.4429C112.691 37.869 112.021 31.8218 114.544 31.4295Z" fill="#263238"/>
<path d="M115.85 31.68C116.371 31.9438 116.912 32.4714 117.487 32.4444C118.062 32.4173 118.562 31.6936 118.914 31.0171C118.914 30.9495 119.002 31.0171 119.015 31.0713C119.184 32.2279 118.941 33.4726 117.859 33.8311C116.776 34.1896 116.005 33.2426 115.593 32.1265C115.518 31.9168 115.647 31.5718 115.85 31.68Z" fill="#263238"/>
<path d="M104.641 49.4023C105.108 49.8285 105.582 50.417 106.272 50.444C106.98 50.4071 107.672 50.2179 108.301 49.8894C108.355 49.8894 108.423 49.9299 108.382 49.9841C108.129 50.3657 107.777 50.6717 107.363 50.8694C106.95 51.0671 106.491 51.1492 106.035 51.1069C105.647 51.0196 105.294 50.8205 105.019 50.5343C104.743 50.2482 104.558 49.8875 104.486 49.497C104.459 49.3888 104.601 49.3415 104.641 49.4023Z" fill="#263238"/>
<path d="M111.859 41.8465C111.859 41.8465 112.535 44.6131 112.65 45.9389C112.65 46.0607 112.346 46.1553 111.899 46.223C111.899 46.223 111.866 46.223 111.845 46.223C110.73 46.5402 109.548 46.5445 108.431 46.2355C107.313 45.9265 106.301 45.3161 105.507 44.4711C105.491 44.4449 105.484 44.4142 105.486 44.3835C105.489 44.3528 105.502 44.3238 105.522 44.3009C105.543 44.2779 105.57 44.2624 105.601 44.2565C105.631 44.2506 105.662 44.2547 105.69 44.2681C107.49 45.2565 109.561 45.6362 111.595 45.3504C111.649 44.9784 110.303 40.6154 110.513 40.6154C111.406 40.6763 112.995 40.9131 113.584 41.001C113.198 39.195 111.839 34.115 111.135 30.8208C111.094 30.6179 111.406 30.5164 111.473 30.7058C112.915 34.3877 114.111 38.1615 115.052 42.0021C115.126 42.3065 112.413 42.0224 111.859 41.8465Z" fill="#263238"/>
<path d="M111.696 45.2151C111.125 46.413 110.257 47.4446 109.173 48.2117C108.573 48.6101 107.864 48.8111 107.144 48.7866C105.568 48.7122 105.237 47.3526 105.257 46.1215C105.274 45.4654 105.369 44.8136 105.541 44.1802C107.431 45.171 109.587 45.5335 111.696 45.2151Z" fill="#263238"/>
<path d="M109.173 48.2115C108.573 48.6099 107.864 48.8109 107.144 48.7865C105.568 48.7121 105.237 47.3525 105.257 46.1214C106.88 45.9387 108.7 46.6828 109.173 48.2115Z" fill="#FF9BBC"/>
<path d="M78.6261 39.885C83.6249 40.4532 84.7681 29.0013 84.7681 29.0013C84.7681 29.0013 106.001 25.1389 107.591 7.79544C107.591 7.79544 111.372 18.7941 122.573 23.6576C122.573 23.6576 123.588 2.50581 106.502 1.16649C106.502 1.16649 85.2145 -4.77926 74.8923 10.1765C64.5701 25.1322 75.2711 39.5129 78.6261 39.885Z" fill="#263238"/>
<path d="M107.651 6.51687C107.937 9.18552 107.646 11.8843 106.799 14.431C105.989 17.0264 104.651 19.4262 102.869 21.4794C102.422 21.9889 101.947 22.4743 101.449 22.9337L100.718 23.6101C100.461 23.8266 100.19 24.0295 99.9131 24.2324C99.3652 24.6247 98.8376 25.0441 98.2762 25.4229C97.7148 25.8017 97.106 26.0993 96.5107 26.4037C96.2131 26.5593 95.929 26.7284 95.6246 26.8705L94.6912 27.2425L92.831 27.9866C91.5525 28.3586 90.2538 28.663 88.9619 28.9538C90.1794 28.4059 91.424 27.9865 92.6145 27.4386L94.3665 26.5593L95.2391 26.1264C95.5164 25.9573 95.7802 25.7679 96.0575 25.592C96.5987 25.2335 97.1398 24.8818 97.6877 24.5436C98.2356 24.2053 98.6956 23.7386 99.2029 23.3395L99.9537 22.7375L100.63 22.0611C101.11 21.626 101.562 21.1606 101.983 20.6676C103.673 18.7244 105.016 16.5049 105.954 14.1063C106.914 11.6728 107.496 9.10642 107.678 6.49658L107.651 6.51687Z" fill="#263238"/>
<g opacity="0.5">
<path d="M88.7387 43.1324C88.9666 43.1324 89.1513 42.9476 89.1513 42.7197C89.1513 42.4919 88.9666 42.3071 88.7387 42.3071C88.5108 42.3071 88.3261 42.4919 88.3261 42.7197C88.3261 42.9476 88.5108 43.1324 88.7387 43.1324Z" fill="#263238"/>
<path d="M96.1591 41.5762C96.1604 41.6595 96.137 41.7412 96.0917 41.8111C96.0464 41.8809 95.9814 41.9357 95.9049 41.9685C95.8284 42.0013 95.7439 42.0106 95.6621 41.9951C95.5803 41.9797 95.5049 41.9403 95.4456 41.882C95.3863 41.8236 95.3456 41.7489 95.3289 41.6673C95.3122 41.5858 95.3201 41.5011 95.3516 41.4241C95.3831 41.3471 95.4369 41.2812 95.506 41.2348C95.5751 41.1884 95.6564 41.1636 95.7397 41.1636C95.7944 41.1627 95.8488 41.1727 95.8997 41.1931C95.9505 41.2134 95.9968 41.2437 96.0358 41.2821C96.0749 41.3205 96.1059 41.3663 96.127 41.4168C96.1482 41.4673 96.1591 41.5215 96.1591 41.5762Z" fill="#263238"/>
<path d="M100.948 41.4341C100.948 41.5157 100.924 41.5955 100.879 41.6633C100.833 41.7312 100.769 41.7841 100.693 41.8153C100.618 41.8465 100.535 41.8547 100.455 41.8388C100.375 41.8229 100.301 41.7836 100.244 41.7259C100.186 41.6682 100.147 41.5946 100.131 41.5146C100.115 41.4346 100.123 41.3516 100.154 41.2762C100.186 41.2008 100.238 41.1364 100.306 41.091C100.374 41.0457 100.454 41.0215 100.536 41.0215C100.645 41.0215 100.75 41.065 100.827 41.1423C100.905 41.2197 100.948 41.3247 100.948 41.4341Z" fill="#263238"/>
<path d="M102.984 44.8028C102.985 44.886 102.962 44.9678 102.917 45.0376C102.872 45.1075 102.807 45.1623 102.73 45.1951C102.653 45.2278 102.569 45.2371 102.487 45.2217C102.405 45.2063 102.33 45.1669 102.271 45.1085C102.211 45.0501 102.171 44.9754 102.154 44.8939C102.137 44.8124 102.145 44.7277 102.177 44.6507C102.208 44.5737 102.262 44.5078 102.331 44.4614C102.4 44.415 102.482 44.3902 102.565 44.3902C102.62 44.3893 102.674 44.3993 102.725 44.4196C102.776 44.44 102.822 44.4702 102.861 44.5086C102.9 44.547 102.931 44.5928 102.952 44.6433C102.973 44.6938 102.984 44.7481 102.984 44.8028Z" fill="#263238"/>
<path d="M92.7567 45.6685C92.7567 45.7779 92.7132 45.8829 92.6358 45.9602C92.5584 46.0376 92.4535 46.0811 92.344 46.0811C92.2346 46.0811 92.1297 46.0376 92.0523 45.9602C91.9749 45.8829 91.9314 45.7779 91.9314 45.6685C91.9314 45.559 91.9749 45.4541 92.0523 45.3767C92.1297 45.2993 92.2346 45.2559 92.344 45.2559C92.4535 45.2559 92.5584 45.2993 92.6358 45.3767C92.7132 45.4541 92.7567 45.559 92.7567 45.6685Z" fill="#263238"/>
<path d="M98.141 46.0814C98.141 46.1915 98.0977 46.2972 98.0205 46.3756C97.9434 46.4541 97.8384 46.499 97.7284 46.5008C97.6451 46.5022 97.5634 46.4787 97.4935 46.4334C97.4237 46.3882 97.3689 46.3232 97.3361 46.2467C97.3033 46.1702 97.2941 46.0856 97.3095 46.0038C97.3249 45.922 97.3643 45.8467 97.4227 45.7874C97.481 45.728 97.5557 45.6874 97.6373 45.6707C97.7188 45.6539 97.8035 45.6618 97.8805 45.6934C97.9575 45.7249 98.0234 45.7786 98.0698 45.8478C98.1162 45.9169 98.141 45.9982 98.141 46.0814Z" fill="#263238"/>
<path d="M92.344 39.5133C92.3454 39.5968 92.3217 39.6788 92.2762 39.7488C92.2306 39.8188 92.1652 39.8736 92.0883 39.9061C92.0114 39.9387 91.9265 39.9476 91.8445 39.9316C91.7625 39.9157 91.6872 39.8756 91.6281 39.8165C91.5691 39.7575 91.529 39.6821 91.513 39.6001C91.4971 39.5182 91.506 39.4333 91.5385 39.3564C91.5711 39.2795 91.6259 39.2141 91.6959 39.1685C91.7659 39.1229 91.8479 39.0993 91.9314 39.1006C92.0408 39.1006 92.1458 39.1441 92.2232 39.2215C92.3006 39.2989 92.344 39.4038 92.344 39.5133Z" fill="#263238"/>
<path d="M116.283 40.9946C116.283 41.0763 116.258 41.156 116.213 41.2239C116.168 41.2917 116.103 41.3446 116.028 41.3759C115.953 41.4071 115.87 41.4153 115.79 41.3993C115.709 41.3834 115.636 41.3441 115.578 41.2864C115.521 41.2287 115.481 41.1552 115.465 41.0751C115.449 40.9951 115.458 40.9121 115.489 40.8367C115.52 40.7613 115.573 40.6969 115.641 40.6516C115.709 40.6062 115.788 40.582 115.87 40.582C115.924 40.582 115.978 40.5927 116.028 40.6134C116.078 40.6342 116.123 40.6646 116.162 40.7029C116.2 40.7412 116.23 40.7867 116.251 40.8367C116.272 40.8868 116.283 40.9405 116.283 40.9946Z" fill="#263238"/>
<path d="M122.228 38.9112C122.228 38.9928 122.204 39.0725 122.159 39.1404C122.114 39.2082 122.049 39.2611 121.974 39.2924C121.898 39.3236 121.815 39.3318 121.735 39.3158C121.655 39.2999 121.582 39.2606 121.524 39.2029C121.466 39.1452 121.427 39.0717 121.411 38.9917C121.395 38.9116 121.403 38.8286 121.435 38.7532C121.466 38.6779 121.519 38.6134 121.587 38.5681C121.654 38.5227 121.734 38.4985 121.816 38.4985C121.87 38.4985 121.924 38.5092 121.974 38.5299C122.024 38.5507 122.069 38.5811 122.108 38.6194C122.146 38.6577 122.176 38.7032 122.197 38.7532C122.218 38.8033 122.228 38.857 122.228 38.9112Z" fill="#263238"/>
<path d="M123.832 36.7534C123.832 36.8629 123.788 36.9678 123.711 37.0452C123.633 37.1226 123.528 37.1661 123.419 37.1661C123.31 37.1661 123.205 37.1226 123.127 37.0452C123.05 36.9678 123.006 36.8629 123.006 36.7534C123.006 36.644 123.05 36.5391 123.127 36.4617C123.205 36.3843 123.31 36.3408 123.419 36.3408C123.528 36.3408 123.633 36.3843 123.711 36.4617C123.788 36.5391 123.832 36.644 123.832 36.7534Z" fill="#263238"/>
<path d="M120.639 42.2866C120.639 42.3683 120.615 42.448 120.569 42.5159C120.524 42.5837 120.459 42.6366 120.384 42.6678C120.309 42.6991 120.226 42.7072 120.146 42.6913C120.066 42.6754 119.992 42.6361 119.934 42.5784C119.877 42.5207 119.837 42.4472 119.821 42.3671C119.806 42.2871 119.814 42.2041 119.845 42.1287C119.876 42.0533 119.929 41.9889 119.997 41.9436C120.065 41.8982 120.145 41.874 120.226 41.874C120.28 41.874 120.334 41.8847 120.384 41.9054C120.434 41.9262 120.48 41.9566 120.518 41.9949C120.556 42.0332 120.587 42.0787 120.607 42.1287C120.628 42.1788 120.639 42.2325 120.639 42.2866Z" fill="#263238"/>
<path d="M123.581 41.4341C123.581 41.5157 123.557 41.5955 123.512 41.6633C123.466 41.7312 123.402 41.7841 123.327 41.8153C123.251 41.8465 123.168 41.8547 123.088 41.8388C123.008 41.8229 122.935 41.7836 122.877 41.7259C122.819 41.6682 122.78 41.5946 122.764 41.5146C122.748 41.4346 122.756 41.3516 122.787 41.2762C122.819 41.2008 122.872 41.1364 122.939 41.091C123.007 41.0457 123.087 41.0215 123.169 41.0215C123.223 41.0215 123.277 41.0322 123.327 41.0529C123.377 41.0736 123.422 41.104 123.46 41.1423C123.499 41.1807 123.529 41.2261 123.55 41.2762C123.571 41.3263 123.581 41.3799 123.581 41.4341Z" fill="#263238"/>
<path d="M118.095 38.0996C118.094 38.1809 118.069 38.26 118.023 38.3269C117.977 38.3939 117.912 38.4457 117.836 38.4759C117.761 38.5061 117.678 38.5133 117.598 38.4967C117.519 38.48 117.446 38.4402 117.389 38.3822C117.332 38.3242 117.293 38.2507 117.278 38.1708C117.262 38.091 117.271 38.0084 117.302 37.9334C117.334 37.8584 117.387 37.7943 117.454 37.7493C117.522 37.7042 117.602 37.6802 117.683 37.6802C117.738 37.6802 117.792 37.6911 117.842 37.7122C117.893 37.7334 117.939 37.7644 117.977 37.8034C118.015 37.8424 118.046 37.8887 118.066 37.9396C118.086 37.9904 118.096 38.0448 118.095 38.0996Z" fill="#263238"/>
</g>
<path d="M98.9121 46.0944C97.1029 46.0972 95.3292 45.5922 93.7929 44.6368C92.2565 43.6814 91.0191 42.3141 90.2214 40.6902C89.4237 39.0664 89.0977 37.2513 89.2806 35.4514C89.4634 33.6515 90.1477 31.939 91.2557 30.5087C92.3637 29.0785 93.8508 27.9879 95.5479 27.361C97.245 26.7341 99.084 26.5961 100.856 26.9627C102.627 27.3292 104.261 28.1857 105.57 29.4345C106.879 30.6834 107.811 32.2745 108.26 34.027C108.625 35.4534 108.659 36.9441 108.36 38.3856C108.061 39.8272 107.437 41.1814 106.535 42.3453C105.634 43.5091 104.478 44.4518 103.157 45.1015C101.836 45.7512 100.384 46.0908 98.9121 46.0944ZM98.9121 28.0474C97.1665 28.0483 95.465 28.5947 94.0452 29.6101C92.6254 30.6255 91.5584 32.0592 90.9934 33.7108C90.4283 35.3623 90.3935 37.1491 90.8937 38.8214C91.394 40.4937 92.4043 41.9679 93.7834 43.0379C95.1625 44.1079 96.8415 44.7201 98.5857 44.7891C100.33 44.8581 102.052 44.3803 103.511 43.4226C104.971 42.4649 106.094 41.0751 106.725 39.4475C107.356 37.8199 107.462 36.0359 107.029 34.3449C106.572 32.5353 105.521 30.9313 104.045 29.7896C102.568 28.6479 100.751 28.0345 98.885 28.0474H98.9121Z" fill="#DBDBDB"/>
<path d="M120.091 43.3554C116.391 43.3554 113.029 39.5809 112.434 34.5619C112.105 32.1722 112.535 29.7396 113.665 27.6082C114.092 26.6638 114.756 25.8457 115.592 25.2332C116.429 24.6206 117.409 24.2344 118.438 24.112C119.468 23.9895 120.511 24.1349 121.468 24.5341C122.425 24.9334 123.262 25.5728 123.899 26.3907C125.495 28.2001 126.483 30.4639 126.727 32.864C127.356 38.1537 124.697 42.8413 120.72 43.3148C120.51 43.3418 120.301 43.3554 120.091 43.3554ZM119.083 25.376C118.919 25.366 118.754 25.366 118.589 25.376C117.774 25.5116 117.003 25.841 116.341 26.3366C115.68 26.8322 115.147 27.4794 114.788 28.2238C113.797 30.1184 113.421 32.2746 113.712 34.3927C114.26 38.9721 117.324 42.3948 120.571 42.0093C123.818 41.6237 125.983 37.5787 125.441 32.9926C125.233 30.8651 124.362 28.8566 122.952 27.2497C122.472 26.6865 121.88 26.2292 121.214 25.9066C120.548 25.5841 119.823 25.4034 119.083 25.376Z" fill="#DBDBDB"/>
<path d="M108.166 35.1636L107.347 34.4128C108.45 33.2358 111.122 31.5109 113.354 33.3914L112.677 34.2234C110.682 32.5391 108.267 35.0554 108.166 35.1636Z" fill="#DBDBDB"/>
<path d="M69.3591 41.9007L68.3377 41.5219C68.5136 41.0417 70.1505 36.8546 72.518 36.1714C74.7367 35.5424 89.4286 35.1771 90.0239 35.1636V36.2526C85.8233 36.3541 74.5067 36.7329 72.7954 37.2199C71.2531 37.6663 69.792 40.7508 69.3591 41.9007Z" fill="#DBDBDB"/>
<path d="M82.2179 40.6358C82.2179 40.6358 75.6499 32.3699 71.8619 34.7577C68.0739 37.1455 73.3771 49.3955 78.085 50.8228C78.674 51.0435 79.3014 51.1434 79.9299 51.1165C80.5583 51.0897 81.1749 50.9366 81.743 50.6665C82.311 50.3964 82.8189 50.0147 83.2363 49.5441C83.6538 49.0736 83.9723 48.5239 84.1728 47.9277L82.2179 40.6358Z" fill="#D3766A"/>
<path d="M73.4718 38.2275C73.4583 38.232 73.4465 38.2406 73.4381 38.2521C73.4298 38.2637 73.4253 38.2776 73.4253 38.2918C73.4253 38.306 73.4298 38.3199 73.4381 38.3315C73.4465 38.343 73.4583 38.3516 73.4718 38.3561C76.7795 39.4654 78.66 42.3537 80.0399 45.3841C79.005 44.2477 77.6589 43.6727 76.1302 44.9106C76.049 44.9782 76.1302 45.1 76.2249 45.0797C76.7815 44.8633 77.3916 44.8251 77.9708 44.9705C78.55 45.1159 79.0698 45.4377 79.4582 45.8914C80.1013 46.6526 80.6614 47.4803 81.1289 48.3604C81.298 48.6377 81.8054 48.4551 81.6768 48.1304C81.6768 48.1304 81.6768 48.0763 81.6768 48.056C81.4604 43.9366 77.9091 38.3764 73.4718 38.2275Z" fill="#263238"/>
</svg>
