<svg width="32" height="32" viewBox="0 0 32 32" fill="none" xmlns="http://www.w3.org/2000/svg">
<path d="M16 0C7.16344 0 0 7.16344 0 16C0 24.8366 7.16344 32 16 32C24.8366 32 32 24.8366 32 16C32 7.16344 24.8366 0 16 0ZM25.8865 11.9L14.5437 23.2429C14.1311 23.6566 13.5718 23.8905 12.9875 23.8937C12.9823 23.8937 12.9771 23.8941 12.9719 23.8941C12.9667 23.8941 12.9614 23.8937 12.9562 23.8937C12.9068 23.8934 12.8574 23.8911 12.8081 23.8875C12.7689 23.8846 12.7297 23.8808 12.6908 23.8758C12.6428 23.8696 12.5949 23.8626 12.5474 23.8534C12.5432 23.8526 12.5391 23.8516 12.5349 23.8507C12.4859 23.8409 12.4372 23.8291 12.3888 23.816C12.3403 23.8029 12.2935 23.7889 12.2465 23.7727C12.2432 23.7716 12.2402 23.7707 12.2367 23.7695C12.2305 23.7673 12.2238 23.7646 12.2174 23.7623C12.1217 23.7279 12.0285 23.6871 11.9384 23.6399C11.8933 23.6161 11.8491 23.5899 11.8053 23.5631C11.723 23.5125 11.6442 23.4566 11.5693 23.3958C11.5401 23.3721 11.5115 23.3475 11.4834 23.3221C11.4553 23.2966 11.4277 23.2704 11.4005 23.2432L5.72894 17.5714C5.31217 17.1546 5.07804 16.5893 5.07805 15.9999C5.07805 15.4105 5.3122 14.8453 5.72897 14.4285C6.14574 14.0118 6.711 13.7776 7.3004 13.7776C7.88979 13.7776 8.45505 14.0118 8.87181 14.4286L12.9718 18.5286L22.7437 8.75694C22.95 8.54989 23.195 8.38554 23.4648 8.27331C23.7346 8.16107 24.0239 8.10316 24.3162 8.10287C24.6084 8.10259 24.8978 8.15994 25.1679 8.27165C25.4379 8.38335 25.6833 8.54722 25.8899 8.75387C26.0965 8.96052 26.2604 9.20589 26.372 9.47593C26.4837 9.74598 26.541 10.0354 26.5407 10.3276C26.5404 10.6199 26.4825 10.9092 26.3702 11.179C26.2579 11.4488 26.0936 11.6938 25.8865 11.9Z" fill="url(#paint0_linear_23_16)"/>
<defs>
<linearGradient id="paint0_linear_23_16" x1="0.541354" y1="3.53488" x2="27.9325" y2="1.73841" gradientUnits="userSpaceOnUse">
<stop stop-color="#3180D5"/>
<stop offset="1" stop-color="#30C29F"/>
</linearGradient>
</defs>
</svg>
