<svg width="30" height="32" viewBox="0 0 30 32" fill="none" xmlns="http://www.w3.org/2000/svg">
<path fill-rule="evenodd" clip-rule="evenodd" d="M24.2004 19.0512H17.1914C17.7698 17.3157 18.0771 15.8549 18.1278 14.6094C18.2474 11.6711 16.86 10.5082 15.6751 10.0494C15.6256 10.0299 15.574 10.0161 15.5214 10.0081C14.6033 9.86305 14.2764 10.295 14.0599 10.7831L14.0314 10.8471C13.9997 10.9172 13.979 10.9918 13.97 11.0682C13.677 13.5748 12.6067 15.9268 10.9091 17.7942V31.7973C11.0985 31.8666 11.2919 31.9244 11.4883 31.9701C11.5415 31.9826 11.5959 31.9894 11.6505 31.9902C12.2373 31.9964 12.9366 31.9996 13.7433 31.9996C14.5479 31.9996 15.4589 31.9964 16.47 31.9902H23.073C23.4591 31.9902 23.8383 31.8877 24.1717 31.6932C24.5052 31.4986 24.781 31.2189 24.9709 30.8828C25.1608 30.5466 25.258 30.1661 25.2525 29.78C25.2471 29.394 25.1392 29.0163 24.9399 28.6857C25.3806 28.3518 25.6777 27.8628 25.771 27.3178C25.8643 26.7729 25.7466 26.2129 25.442 25.7515C25.8697 25.3888 26.1409 24.8751 26.1992 24.3174C26.2575 23.7597 26.0984 23.201 25.7551 22.7577C26.0562 22.4515 26.2601 22.0632 26.3412 21.6414C26.4223 21.2197 26.3769 20.7834 26.2108 20.3874C26.0447 19.9914 25.7652 19.6533 25.4075 19.4156C25.0499 19.1779 24.6299 19.0512 24.2004 19.0515V19.0512ZM9.44375 6.48005C9.39937 6.34328 9.31664 6.22213 9.2054 6.13103C9.09416 6.03992 8.95909 5.98267 8.81625 5.96611L6.76875 5.73055L5.9125 3.8573C5.853 3.72628 5.75702 3.61517 5.63604 3.53724C5.51507 3.45932 5.37421 3.41788 5.23031 3.41788C5.08642 3.41788 4.94556 3.45932 4.82458 3.53724C4.70361 3.61517 4.60763 3.72628 4.54813 3.8573L3.69188 5.73055L1.64444 5.96611C1.5016 5.98251 1.36648 6.03962 1.25519 6.13064C1.14389 6.22166 1.0611 6.34275 1.01667 6.47949C0.972253 6.61624 0.968072 6.76287 1.00463 6.90192C1.04119 7.04097 1.11695 7.16658 1.22288 7.2638L2.7405 8.65755L2.33194 10.6774C2.30372 10.8182 2.31649 10.9642 2.36873 11.0979C2.42097 11.2317 2.5105 11.3477 2.62669 11.4322C2.74287 11.5166 2.88084 11.566 3.02423 11.5743C3.16761 11.5827 3.31039 11.5498 3.43563 11.4795L5.23013 10.4663L7.025 11.4795C7.1502 11.5501 7.29306 11.5833 7.43658 11.5751C7.5801 11.5669 7.71823 11.5175 7.83453 11.433C7.95082 11.3485 8.04037 11.2324 8.09252 11.0984C8.14468 10.9644 8.15723 10.8183 8.12869 10.6774L7.72013 8.65761L9.23775 7.26386C9.34358 7.16669 9.41925 7.04116 9.45576 6.90221C9.49227 6.76326 9.48808 6.61675 9.44369 6.48011L9.44375 6.48005ZM28.9834 6.48005C29.0278 6.61667 29.032 6.76318 28.9955 6.90213C28.959 7.04109 28.8834 7.16662 28.7776 7.2638L27.2598 8.65755L27.6684 10.6774C27.6969 10.8182 27.6844 10.9644 27.6322 11.0983C27.58 11.2323 27.4905 11.3484 27.3742 11.4329C27.2579 11.5174 27.1198 11.5667 26.9763 11.575C26.8328 11.5832 26.6899 11.5501 26.5648 11.4794L24.7703 10.4662L22.9756 11.4794C22.8504 11.5501 22.7076 11.5833 22.564 11.575C22.4205 11.5668 22.2824 11.5175 22.1661 11.433C22.0498 11.3485 21.9603 11.2323 21.9081 11.0983C21.856 10.9644 21.8434 10.8183 21.8719 10.6774L22.2805 8.65755L20.7629 7.2638C20.6569 7.16658 20.5812 7.04097 20.5446 6.90192C20.5081 6.76287 20.5123 6.61624 20.5567 6.47949C20.6011 6.34275 20.6839 6.22166 20.7952 6.13064C20.9065 6.03962 21.0416 5.98251 21.1844 5.96611L23.2313 5.73055L24.0879 3.8573C24.1474 3.72629 24.2433 3.61518 24.3643 3.53726C24.4852 3.45934 24.6261 3.41791 24.77 3.41791C24.9139 3.41791 25.0547 3.45934 25.1757 3.53726C25.2966 3.61518 25.3926 3.72629 25.4521 3.8573L26.3087 5.73055L28.3556 5.96611C28.4985 5.98264 28.6336 6.03987 28.7448 6.13099C28.856 6.2221 28.9388 6.34326 28.9831 6.48005H28.9834ZM20.0486 3.66873C20.0041 3.5318 19.9214 3.41045 19.8102 3.31902C19.6989 3.22758 19.5639 3.16989 19.4209 3.15273L16.7851 2.85198L15.6822 0.43686C15.622 0.306575 15.5258 0.196244 15.4049 0.118914C15.284 0.0415834 15.1435 0.000488281 15 0.000488281C14.8565 0.000488281 14.716 0.0415834 14.5951 0.118914C14.4743 0.196244 14.378 0.306575 14.3179 0.43686L13.2149 2.8518L10.5791 3.15255C10.4364 3.1693 10.3014 3.22664 10.1903 3.31778C10.0792 3.40891 9.99652 3.53001 9.95214 3.66671C9.90776 3.80341 9.90353 3.94997 9.93994 4.08901C9.97635 4.22804 10.0519 4.35371 10.1576 4.45111L12.1117 6.24623L11.5856 8.84623C11.5571 8.9871 11.5697 9.13318 11.6219 9.26708C11.6741 9.40098 11.7637 9.51706 11.88 9.60152C11.9962 9.68598 12.1343 9.73526 12.2778 9.74348C12.4213 9.75171 12.5641 9.71854 12.6893 9.64792L15 8.34448L17.3108 9.64805C17.4359 9.71865 17.5787 9.7518 17.7222 9.74356C17.8657 9.73533 18.0037 9.68605 18.12 9.6016C18.2363 9.51714 18.3258 9.40106 18.378 9.26717C18.4302 9.13328 18.4428 8.98722 18.4144 8.84636L17.8884 6.24636L19.8425 4.45111C19.9483 4.35416 20.024 4.22885 20.0605 4.09011C20.0971 3.95137 20.093 3.80503 20.0488 3.66855L20.0486 3.66873ZM9.40913 19.1869C9.27704 18.9769 9.09388 18.8038 8.87676 18.6838C8.65964 18.5638 8.41564 18.5008 8.16756 18.5007H2.99081C2.60166 18.501 2.22854 18.6557 1.95332 18.9309C1.6781 19.206 1.52328 19.5791 1.52281 19.9682V30.5312C1.52315 30.9205 1.67789 31.2938 1.9531 31.5692C2.22831 31.8445 2.60151 31.9995 2.99081 32H8.16756C8.41558 31.9999 8.65952 31.9369 8.87663 31.817C9.09374 31.6971 9.27693 31.5241 9.40913 31.3143V19.1869ZM3.41975 21.2556C3.41975 21.0567 3.49877 20.8659 3.63942 20.7253C3.78007 20.5846 3.97084 20.5056 4.16975 20.5056H4.72019C4.9191 20.5056 5.10987 20.5846 5.25052 20.7253C5.39117 20.8659 5.47019 21.0567 5.47019 21.2556C5.47019 21.4545 5.39117 21.6453 5.25052 21.7859C5.10987 21.9266 4.9191 22.0056 4.72019 22.0056H4.16982C4.07132 22.0056 3.97378 21.9862 3.88278 21.9485C3.79178 21.9109 3.70909 21.8556 3.63944 21.786C3.56979 21.7163 3.51454 21.6336 3.47685 21.5426C3.43915 21.4516 3.41975 21.3541 3.41975 21.2556Z" fill="url(#paint0_linear_27_61)"/>
<defs>
<linearGradient id="paint0_linear_27_61" x1="1.45434" y1="3.53532" x2="25.4798" y2="2.15455" gradientUnits="userSpaceOnUse">
<stop stop-color="#3180D5"/>
<stop offset="1" stop-color="#30C29F"/>
</linearGradient>
</defs>
</svg>
