<svg width="753" height="721" viewBox="0 0 753 721" fill="none" xmlns="http://www.w3.org/2000/svg">
<path d="M654.5 361C654.5 436.259 617.674 533.273 564.491 597.033C537.901 628.911 507.265 652.425 475.155 660.789C443.079 669.145 409.466 662.399 376.831 633.625C344.048 604.722 310.237 582.627 277.975 563.391C266.245 556.397 254.727 549.785 243.538 543.362C223.935 532.109 205.344 521.437 188.399 510.31C161.798 492.843 139.33 474.301 123.509 450.744C107.695 427.196 98.5 398.605 98.5 361C98.5 323.408 108.688 294.946 125.748 271.555C142.817 248.15 166.784 229.793 194.391 212.446C208.741 203.43 224.076 194.687 239.926 185.65C285.015 159.944 334.272 131.861 376.857 88.3502C405.486 59.0995 437.083 52.1079 468.404 60.3673C499.766 68.6378 530.904 92.2166 558.496 124.224C613.684 188.243 654.5 285.756 654.5 361Z" stroke="#FFCA31"/>
<path d="M463.629 624.625C392.193 648.307 288.519 643.879 211.263 613.461C172.638 598.253 140.677 576.573 122.634 548.726C104.61 520.908 100.435 486.881 117.478 446.849C134.598 406.636 144.931 367.59 153.037 330.914C155.985 317.579 158.636 304.565 161.212 291.924C165.725 269.775 170.005 248.77 175.234 229.186C183.444 198.439 193.974 171.278 211.356 148.848C228.731 126.427 252.977 108.703 288.671 96.8695C324.354 85.0401 354.575 85.7548 382.147 94.5869C409.734 103.424 434.7 120.397 459.853 141.143C472.926 151.927 486.051 163.732 499.616 175.933C538.205 210.643 580.361 248.561 635.062 275.291C671.835 293.26 688.414 321.053 690.43 353.381C692.449 385.753 679.866 422.728 658.167 458.991C614.767 531.52 535.051 600.947 463.629 624.625Z" stroke="#FFCA31"/>
</svg>
