<svg width="266" height="195" viewBox="0 0 266 195" fill="none" xmlns="http://www.w3.org/2000/svg">
<path d="M241.937 50.9917H195.149V194.645H241.937V50.9917Z" fill="#FFCA31"/>
<path d="M241.759 36.5371H206.753V50.9847H241.759V36.5371Z" fill="#3180D5"/>
<path d="M212.659 38.77H209.667V48.7586H212.659V38.77Z" fill="#FFCA31"/>
<path d="M217.89 38.77H214.899V48.7586H217.89V38.77Z" fill="#FFCA31"/>
<path d="M223.129 38.77H220.138V48.7586H223.129V38.77Z" fill="#FFCA31"/>
<path d="M228.368 38.77H225.376V48.7586H228.368V38.77Z" fill="#FFCA31"/>
<path d="M233.607 38.77H230.615V48.7586H233.607V38.77Z" fill="#FFCA31"/>
<path d="M238.846 38.77H235.854V48.7586H238.846V38.77Z" fill="#FFCA31"/>
<path d="M257.681 36.5371H241.759V50.9847H257.681V36.5371Z" fill="#FFCA31"/>
<path d="M246.537 38.77H243.992V48.7586H246.537V38.77Z" fill="#3180D5"/>
<path d="M250.989 38.77H248.444V48.7586H250.989V38.77Z" fill="#3180D5"/>
<path d="M255.441 38.77H252.896V48.7586H255.441V38.77Z" fill="#3180D5"/>
<path d="M265.572 50.9917H241.759V194.645H265.572V50.9917Z" fill="#3180D5"/>
<path d="M214.459 29.2144H213.389V36.5374H214.459V29.2144Z" fill="#263238"/>
<path d="M235.117 29.2144H234.046V36.5374H235.117V29.2144Z" fill="#263238"/>
<path d="M239.867 16.4111H208.646V29.214H239.867V16.4111Z" fill="#30C29F"/>
<path d="M213.36 60.8809H204.726V74.102H213.36V60.8809Z" fill="#263238"/>
<path d="M230.934 60.8809H222.3V74.102H230.934V60.8809Z" fill="#263238"/>
<path d="M213.36 81.7231H204.726V94.9443H213.36V81.7231Z" fill="#263238"/>
<path d="M230.934 81.7231H222.3V94.9443H230.934V81.7231Z" fill="#263238"/>
<path d="M213.36 102.558H204.726V115.779H213.36V102.558Z" fill="#263238"/>
<path d="M230.934 102.558H222.3V115.779H230.934V102.558Z" fill="#263238"/>
<path d="M213.36 123.4H204.726V136.621H213.36V123.4Z" fill="#263238"/>
<path d="M230.934 123.4H222.3V136.621H230.934V123.4Z" fill="#263238"/>
<path d="M213.36 144.235H204.726V157.456H213.36V144.235Z" fill="#263238"/>
<path d="M230.934 144.235H222.3V157.456H230.934V144.235Z" fill="#263238"/>
<path d="M213.36 165.07H204.726V178.291H213.36V165.07Z" fill="#263238"/>
<path d="M230.934 165.07H222.3V178.291H230.934V165.07Z" fill="#263238"/>
<path d="M251.096 60.8809H246.133V74.102H251.096V60.8809Z" fill="#263238"/>
<path d="M261.198 60.8809H256.235V74.102H261.198V60.8809Z" fill="#263238"/>
<path d="M251.096 81.7231H246.133V94.9443H251.096V81.7231Z" fill="#263238"/>
<path d="M261.198 81.7231H256.235V94.9443H261.198V81.7231Z" fill="#263238"/>
<path d="M251.096 102.558H246.133V115.779H251.096V102.558Z" fill="#263238"/>
<path d="M261.198 102.558H256.235V115.779H261.198V102.558Z" fill="#263238"/>
<path d="M251.096 123.4H246.133V136.621H251.096V123.4Z" fill="#263238"/>
<path d="M261.198 123.4H256.235V136.621H261.198V123.4Z" fill="#263238"/>
<path d="M251.096 144.235H246.133V157.456H251.096V144.235Z" fill="#263238"/>
<path d="M261.198 144.235H256.235V157.456H261.198V144.235Z" fill="#263238"/>
<path d="M251.096 165.07H246.133V178.291H251.096V165.07Z" fill="#263238"/>
<path d="M261.198 165.07H256.235V178.291H261.198V165.07Z" fill="#263238"/>
<path d="M117.955 10.3501H92.9309V194.638H117.955V10.3501Z" fill="#3180D5"/>
<path d="M117.955 20.6787H92.9309V22.614H117.955V20.6787Z" fill="#FFCA31"/>
<path d="M100.119 28.3066H95.5114V39.0821H100.119V28.3066Z" fill="#263238"/>
<path d="M100.119 41.9033H95.5114V52.6788H100.119V41.9033Z" fill="#263238"/>
<path d="M100.119 55.4937H95.5114V66.2691H100.119V55.4937Z" fill="#263238"/>
<path d="M100.119 69.083H95.5114V79.8584H100.119V69.083Z" fill="#263238"/>
<path d="M100.119 82.6802H95.5114V93.4556H100.119V82.6802Z" fill="#263238"/>
<path d="M100.119 96.2769H95.5114V107.052H100.119V96.2769Z" fill="#263238"/>
<path d="M100.119 109.86H95.5114V120.635H100.119V109.86Z" fill="#263238"/>
<path d="M100.119 123.457H95.5114V134.232H100.119V123.457Z" fill="#263238"/>
<path d="M100.119 137.054H95.5114V147.829H100.119V137.054Z" fill="#263238"/>
<path d="M100.119 150.643H95.5114V161.418H100.119V150.643Z" fill="#263238"/>
<path d="M100.119 164.233H95.5114V175.008H100.119V164.233Z" fill="#263238"/>
<path d="M100.119 177.83H95.5114V188.605H100.119V177.83Z" fill="#263238"/>
<path d="M100.119 28.3066H95.5114V39.0821H100.119V28.3066Z" fill="#263238"/>
<path d="M100.119 41.9033H95.5114V52.6788H100.119V41.9033Z" fill="#263238"/>
<path d="M100.119 55.4937H95.5114V66.2691H100.119V55.4937Z" fill="#263238"/>
<path d="M100.119 69.083H95.5114V79.8584H100.119V69.083Z" fill="#263238"/>
<path d="M100.119 82.6802H95.5114V93.4556H100.119V82.6802Z" fill="#263238"/>
<path d="M100.119 96.2769H95.5114V107.052H100.119V96.2769Z" fill="#263238"/>
<path d="M100.119 109.86H95.5114V120.635H100.119V109.86Z" fill="#263238"/>
<path d="M100.119 123.457H95.5114V134.232H100.119V123.457Z" fill="#263238"/>
<path d="M100.119 137.054H95.5114V147.829H100.119V137.054Z" fill="#263238"/>
<path d="M100.119 150.643H95.5114V161.418H100.119V150.643Z" fill="#263238"/>
<path d="M100.119 164.233H95.5114V175.008H100.119V164.233Z" fill="#263238"/>
<path d="M100.119 177.83H95.5114V188.605H100.119V177.83Z" fill="#263238"/>
<path d="M107.747 28.3066H103.139V39.0821H107.747V28.3066Z" fill="#263238"/>
<path d="M107.747 41.9033H103.139V52.6788H107.747V41.9033Z" fill="#263238"/>
<path d="M107.747 55.4937H103.139V66.2691H107.747V55.4937Z" fill="#263238"/>
<path d="M107.747 69.083H103.139V79.8584H107.747V69.083Z" fill="#263238"/>
<path d="M107.747 82.6802H103.139V93.4556H107.747V82.6802Z" fill="#263238"/>
<path d="M107.747 96.2769H103.139V107.052H107.747V96.2769Z" fill="#263238"/>
<path d="M107.747 109.86H103.139V120.635H107.747V109.86Z" fill="#263238"/>
<path d="M107.747 123.457H103.139V134.232H107.747V123.457Z" fill="#263238"/>
<path d="M107.747 137.054H103.139V147.829H107.747V137.054Z" fill="#263238"/>
<path d="M107.747 150.643H103.139V161.418H107.747V150.643Z" fill="#263238"/>
<path d="M107.747 164.233H103.139V175.008H107.747V164.233Z" fill="#263238"/>
<path d="M107.747 177.83H103.139V188.605H107.747V177.83Z" fill="#263238"/>
<path d="M107.747 28.3066H103.139V39.0821H107.747V28.3066Z" fill="#263238"/>
<path d="M107.747 41.9033H103.139V52.6788H107.747V41.9033Z" fill="#263238"/>
<path d="M107.747 55.4937H103.139V66.2691H107.747V55.4937Z" fill="#263238"/>
<path d="M107.747 69.083H103.139V79.8584H107.747V69.083Z" fill="#263238"/>
<path d="M107.747 82.6802H103.139V93.4556H107.747V82.6802Z" fill="#263238"/>
<path d="M107.747 96.2769H103.139V107.052H107.747V96.2769Z" fill="#263238"/>
<path d="M107.747 109.86H103.139V120.635H107.747V109.86Z" fill="#263238"/>
<path d="M107.747 123.457H103.139V134.232H107.747V123.457Z" fill="#263238"/>
<path d="M107.747 137.054H103.139V147.829H107.747V137.054Z" fill="#263238"/>
<path d="M107.747 150.643H103.139V161.418H107.747V150.643Z" fill="#263238"/>
<path d="M107.747 164.233H103.139V175.008H107.747V164.233Z" fill="#263238"/>
<path d="M107.747 177.83H103.139V188.605H107.747V177.83Z" fill="#263238"/>
<path d="M115.375 28.3066H110.767V39.0821H115.375V28.3066Z" fill="#263238"/>
<path d="M115.375 41.9033H110.767V52.6788H115.375V41.9033Z" fill="#263238"/>
<path d="M115.375 55.4937H110.767V66.2691H115.375V55.4937Z" fill="#263238"/>
<path d="M115.375 69.083H110.767V79.8584H115.375V69.083Z" fill="#263238"/>
<path d="M115.375 82.6802H110.767V93.4556H115.375V82.6802Z" fill="#263238"/>
<path d="M115.375 96.2769H110.767V107.052H115.375V96.2769Z" fill="#263238"/>
<path d="M115.375 109.86H110.767V120.635H115.375V109.86Z" fill="#263238"/>
<path d="M115.375 123.457H110.767V134.232H115.375V123.457Z" fill="#263238"/>
<path d="M115.375 137.054H110.767V147.829H115.375V137.054Z" fill="#263238"/>
<path d="M115.375 150.643H110.767V161.418H115.375V150.643Z" fill="#263238"/>
<path d="M115.375 164.233H110.767V175.008H115.375V164.233Z" fill="#263238"/>
<path d="M115.375 177.83H110.767V188.605H115.375V177.83Z" fill="#263238"/>
<path d="M115.375 28.3066H110.767V39.0821H115.375V28.3066Z" fill="#263238"/>
<path d="M115.375 41.9033H110.767V52.6788H115.375V41.9033Z" fill="#263238"/>
<path d="M115.375 55.4937H110.767V66.2691H115.375V55.4937Z" fill="#263238"/>
<path d="M115.375 69.083H110.767V79.8584H115.375V69.083Z" fill="#263238"/>
<path d="M115.375 82.6802H110.767V93.4556H115.375V82.6802Z" fill="#263238"/>
<path d="M115.375 96.2769H110.767V107.052H115.375V96.2769Z" fill="#263238"/>
<path d="M115.375 109.86H110.767V120.635H115.375V109.86Z" fill="#263238"/>
<path d="M115.375 123.457H110.767V134.232H115.375V123.457Z" fill="#263238"/>
<path d="M115.375 137.054H110.767V147.829H115.375V137.054Z" fill="#263238"/>
<path d="M115.375 150.643H110.767V161.418H115.375V150.643Z" fill="#263238"/>
<path d="M115.375 164.233H110.767V175.008H115.375V164.233Z" fill="#263238"/>
<path d="M115.375 177.83H110.767V188.605H115.375V177.83Z" fill="#263238"/>
<path d="M92.9309 10.3501H50.1482V194.638H92.9309V10.3501Z" fill="#FFCA31"/>
<path d="M92.9309 20.6787H50.1482V22.614H92.9309V20.6787Z" fill="#3180D5"/>
<path d="M92.9309 0H65.3969V10.3501H92.9309V0Z" fill="#3180D5"/>
<path d="M92.9309 10.3501L105.869 10.3501V2.86102e-05L92.9309 2.86102e-05V10.3501Z" fill="#263238"/>
<path d="M62.2139 28.3066H54.7349V39.0821H62.2139V28.3066Z" fill="#263238"/>
<path d="M62.2139 41.9033H54.7349V52.6788H62.2139V41.9033Z" fill="#263238"/>
<path d="M62.2139 55.4937H54.7349V66.2691H62.2139V55.4937Z" fill="#263238"/>
<path d="M62.2139 69.083H54.7349V79.8584H62.2139V69.083Z" fill="#263238"/>
<path d="M62.2139 82.6802H54.7349V93.4556H62.2139V82.6802Z" fill="#263238"/>
<path d="M62.2139 96.2769H54.7349V107.052H62.2139V96.2769Z" fill="#263238"/>
<path d="M62.2139 109.86H54.7349V120.635H62.2139V109.86Z" fill="#263238"/>
<path d="M62.2139 123.457H54.7349V134.232H62.2139V123.457Z" fill="#263238"/>
<path d="M62.2139 137.054H54.7349V147.829H62.2139V137.054Z" fill="#263238"/>
<path d="M62.2139 150.643H54.7349V161.418H62.2139V150.643Z" fill="#263238"/>
<path d="M62.2139 164.233H54.7349V175.008H62.2139V164.233Z" fill="#263238"/>
<path d="M62.2139 177.83H54.7349V188.605H62.2139V177.83Z" fill="#263238"/>
<path d="M62.2139 28.3066H54.7349V39.0821H62.2139V28.3066Z" fill="#263238"/>
<path d="M62.2139 41.9033H54.7349V52.6788H62.2139V41.9033Z" fill="#263238"/>
<path d="M62.2139 55.4937H54.7349V66.2691H62.2139V55.4937Z" fill="#263238"/>
<path d="M62.2139 69.083H54.7349V79.8584H62.2139V69.083Z" fill="#263238"/>
<path d="M62.2139 82.6802H54.7349V93.4556H62.2139V82.6802Z" fill="#263238"/>
<path d="M62.2139 96.2769H54.7349V107.052H62.2139V96.2769Z" fill="#263238"/>
<path d="M62.2139 109.86H54.7349V120.635H62.2139V109.86Z" fill="#263238"/>
<path d="M62.2139 123.457H54.7349V134.232H62.2139V123.457Z" fill="#263238"/>
<path d="M62.2139 137.054H54.7349V147.829H62.2139V137.054Z" fill="#263238"/>
<path d="M62.2139 150.643H54.7349V161.418H62.2139V150.643Z" fill="#263238"/>
<path d="M62.2139 164.233H54.7349V175.008H62.2139V164.233Z" fill="#263238"/>
<path d="M62.2139 177.83H54.7349V188.605H62.2139V177.83Z" fill="#263238"/>
<path d="M74.5985 28.3066H67.1195V39.0821H74.5985V28.3066Z" fill="#263238"/>
<path d="M74.5985 41.9033H67.1195V52.6788H74.5985V41.9033Z" fill="#263238"/>
<path d="M74.5985 55.4937H67.1195V66.2691H74.5985V55.4937Z" fill="#263238"/>
<path d="M74.5985 69.083H67.1195V79.8584H74.5985V69.083Z" fill="#263238"/>
<path d="M74.5985 82.6802H67.1195V93.4556H74.5985V82.6802Z" fill="#263238"/>
<path d="M74.5985 96.2769H67.1195V107.052H74.5985V96.2769Z" fill="#263238"/>
<path d="M74.5985 109.86H67.1195V120.635H74.5985V109.86Z" fill="#263238"/>
<path d="M74.5985 123.457H67.1195V134.232H74.5985V123.457Z" fill="#263238"/>
<path d="M74.5985 137.054H67.1195V147.829H74.5985V137.054Z" fill="#263238"/>
<path d="M74.5985 150.643H67.1195V161.418H74.5985V150.643Z" fill="#263238"/>
<path d="M74.5985 164.233H67.1195V175.008H74.5985V164.233Z" fill="#263238"/>
<path d="M74.5985 177.83H67.1195V188.605H74.5985V177.83Z" fill="#263238"/>
<path d="M74.5985 28.3066H67.1195V39.0821H74.5985V28.3066Z" fill="#263238"/>
<path d="M74.5985 41.9033H67.1195V52.6788H74.5985V41.9033Z" fill="#263238"/>
<path d="M74.5985 55.4937H67.1195V66.2691H74.5985V55.4937Z" fill="#263238"/>
<path d="M74.5985 69.083H67.1195V79.8584H74.5985V69.083Z" fill="#263238"/>
<path d="M74.5985 82.6802H67.1195V93.4556H74.5985V82.6802Z" fill="#263238"/>
<path d="M74.5985 96.2769H67.1195V107.052H74.5985V96.2769Z" fill="#263238"/>
<path d="M74.5985 109.86H67.1195V120.635H74.5985V109.86Z" fill="#263238"/>
<path d="M74.5985 123.457H67.1195V134.232H74.5985V123.457Z" fill="#263238"/>
<path d="M74.5985 137.054H67.1195V147.829H74.5985V137.054Z" fill="#263238"/>
<path d="M74.5985 150.643H67.1195V161.418H74.5985V150.643Z" fill="#263238"/>
<path d="M74.5985 164.233H67.1195V175.008H74.5985V164.233Z" fill="#263238"/>
<path d="M74.5985 177.83H67.1195V188.605H74.5985V177.83Z" fill="#263238"/>
<path d="M86.9903 28.3066H79.5113V39.0821H86.9903V28.3066Z" fill="#263238"/>
<path d="M86.9903 41.9033H79.5113V52.6788H86.9903V41.9033Z" fill="#263238"/>
<path d="M86.9903 55.4937H79.5113V66.2691H86.9903V55.4937Z" fill="#263238"/>
<path d="M86.9903 69.083H79.5113V79.8584H86.9903V69.083Z" fill="#263238"/>
<path d="M86.9903 82.6802H79.5113V93.4556H86.9903V82.6802Z" fill="#263238"/>
<path d="M86.9903 96.2769H79.5113V107.052H86.9903V96.2769Z" fill="#263238"/>
<path d="M86.9903 109.86H79.5113V120.635H86.9903V109.86Z" fill="#263238"/>
<path d="M86.9903 123.457H79.5113V134.232H86.9903V123.457Z" fill="#263238"/>
<path d="M86.9903 137.054H79.5113V147.829H86.9903V137.054Z" fill="#263238"/>
<path d="M86.9903 150.643H79.5113V161.418H86.9903V150.643Z" fill="#263238"/>
<path d="M86.9903 164.233H79.5113V175.008H86.9903V164.233Z" fill="#263238"/>
<path d="M86.9903 177.83H79.5113V188.605H86.9903V177.83Z" fill="#263238"/>
<path d="M86.9903 28.3066H79.5113V39.0821H86.9903V28.3066Z" fill="#263238"/>
<path d="M86.9903 41.9033H79.5113V52.6788H86.9903V41.9033Z" fill="#263238"/>
<path d="M86.9903 55.4937H79.5113V66.2691H86.9903V55.4937Z" fill="#263238"/>
<path d="M86.9903 69.083H79.5113V79.8584H86.9903V69.083Z" fill="#263238"/>
<path d="M86.9903 82.6802H79.5113V93.4556H86.9903V82.6802Z" fill="#263238"/>
<path d="M86.9903 96.2769H79.5113V107.052H86.9903V96.2769Z" fill="#263238"/>
<path d="M86.9903 109.86H79.5113V120.635H86.9903V109.86Z" fill="#263238"/>
<path d="M86.9903 123.457H79.5113V134.232H86.9903V123.457Z" fill="#263238"/>
<path d="M86.9903 137.054H79.5113V147.829H86.9903V137.054Z" fill="#263238"/>
<path d="M86.9903 150.643H79.5113V161.418H86.9903V150.643Z" fill="#263238"/>
<path d="M86.9903 164.233H79.5113V175.008H86.9903V164.233Z" fill="#263238"/>
<path d="M86.9903 177.83H79.5113V188.605H86.9903V177.83Z" fill="#263238"/>
<path d="M33.9142 194.638H0V88.2523L33.9142 66.269V194.638Z" fill="#30C29F"/>
<path d="M29.5544 194.638H3.81393V91.2295L29.5544 74.5488V194.638Z" fill="#30C29F"/>
<path opacity="0.3" d="M29.5544 194.638H3.81393V91.2295L29.5544 74.5488V194.638Z" fill="black"/>
<g opacity="0.3">
<path d="M29.5544 93.0161H6.76299V93.8385H29.5544V93.0161Z" fill="black"/>
<path d="M29.5544 99.7363H6.76299V100.559H29.5544V99.7363Z" fill="black"/>
<path d="M29.5544 106.457H6.76299V107.279H29.5544V106.457Z" fill="black"/>
<path d="M29.5544 113.177H6.76299V114H29.5544V113.177Z" fill="black"/>
<path d="M29.5544 119.898H6.76299V120.72H29.5544V119.898Z" fill="black"/>
<path d="M29.5544 126.618H6.76299V127.441H29.5544V126.618Z" fill="black"/>
<path d="M29.5544 133.338H6.76299V134.161H29.5544V133.338Z" fill="black"/>
<path d="M29.5544 140.059H6.76299V140.881H29.5544V140.059Z" fill="black"/>
<path d="M29.5544 146.779H6.76299V147.602H29.5544V146.779Z" fill="black"/>
<path d="M29.5544 153.5H6.76299V154.322H29.5544V153.5Z" fill="black"/>
<path d="M29.5544 160.221H6.76299V161.043H29.5544V160.221Z" fill="black"/>
<path d="M29.5544 166.941H6.76299V167.763H29.5544V166.941Z" fill="black"/>
<path d="M29.5544 173.662H6.76299V174.484H29.5544V173.662Z" fill="black"/>
<path d="M29.5544 180.382H6.76299V181.204H29.5544V180.382Z" fill="black"/>
<path d="M29.5544 187.103H6.76299V187.925H29.5544V187.103Z" fill="black"/>
<path d="M29.5544 193.823H6.76299V194.645H29.5544V193.823Z" fill="black"/>
<path d="M17.7511 85.2107L17.7511 194.645H18.5734L18.5734 85.2107H17.7511Z" fill="black"/>
</g>
<path d="M29.5544 74.5488V78.2493L6.763 93.0159V194.638H3.82102V91.2224L29.5544 74.5488Z" fill="#30C29F"/>
<path opacity="0.2" d="M29.5544 74.5488V78.2493L6.763 93.0159V194.638H3.82102V91.2224L29.5544 74.5488Z" fill="black"/>
<path d="M63.7947 66.269H33.9142V194.638H63.7947V66.269Z" fill="#30C29F"/>
<path opacity="0.2" d="M63.7947 66.269H33.9142V194.638H63.7947V66.269Z" fill="black"/>
<g opacity="0.2">
<path d="M60.8953 74.5488H36.8137V77.4553H60.8953V74.5488Z" fill="black"/>
<path d="M60.8953 81.1274H36.8137V84.034H60.8953V81.1274Z" fill="black"/>
<path d="M60.8953 87.7134H36.8137V90.6199H60.8953V87.7134Z" fill="black"/>
<path d="M60.8953 94.292H36.8137V97.1985H60.8953V94.292Z" fill="black"/>
<path d="M60.8953 100.877H36.8137V103.784H60.8953V100.877Z" fill="black"/>
<path d="M60.8953 107.463H36.8137V110.37H60.8953V107.463Z" fill="black"/>
<path d="M60.8953 114.042H36.8137V116.949H60.8953V114.042Z" fill="black"/>
<path d="M60.8953 120.628H36.8137V123.534H60.8953V120.628Z" fill="black"/>
<path d="M60.8953 127.207H36.8137V130.113H60.8953V127.207Z" fill="black"/>
<path d="M60.8953 133.792H36.8137V136.699H60.8953V133.792Z" fill="black"/>
<path d="M60.8953 140.378H36.8137V143.285H60.8953V140.378Z" fill="black"/>
<path d="M60.8953 146.957H36.8137V149.863H60.8953V146.957Z" fill="black"/>
<path d="M60.8953 153.542H36.8137V156.449H60.8953V153.542Z" fill="black"/>
<path d="M60.8953 160.121H36.8137V163.028H60.8953V160.121Z" fill="black"/>
<path d="M60.8953 166.707H36.8137V169.614H60.8953V166.707Z" fill="black"/>
<path d="M60.8953 173.293H36.8137V176.2H60.8953V173.293Z" fill="black"/>
<path d="M60.8953 179.872H36.8137V182.778H60.8953V179.872Z" fill="black"/>
<path d="M60.8953 186.458H36.8137V189.364H60.8953V186.458Z" fill="black"/>
</g>
<path d="M187.336 58.7261H160.455V194.645H187.336V58.7261Z" fill="#30C29F"/>
<path opacity="0.2" d="M187.336 58.7261H160.455V194.645H187.336V58.7261Z" fill="black"/>
<path d="M160.455 58.7261H188.946V54.2741H160.455V58.7261Z" fill="#30C29F"/>
<path d="M160.447 54.2739H184.607V47.3195H160.447V54.2739Z" fill="#30C29F"/>
<path opacity="0.2" d="M160.447 54.2739H184.607V47.3195H160.447V54.2739Z" fill="black"/>
<path d="M160.455 47.3125H178.936V31.9717H160.455V47.3125Z" fill="#30C29F"/>
<path opacity="0.3" d="M160.455 47.3125H178.936V31.9717H160.455V47.3125Z" fill="black"/>
<g opacity="0.3">
<path d="M166.672 63.8726H163.028V78.1713H166.672V63.8726Z" fill="black"/>
</g>
<g opacity="0.3">
<path d="M166.672 83.3535H163.028V97.6522H166.672V83.3535Z" fill="black"/>
</g>
<g opacity="0.3">
<path d="M166.672 102.827H163.028V117.126H166.672V102.827Z" fill="black"/>
</g>
<g opacity="0.3">
<path d="M166.672 122.301H163.028V136.6H166.672V122.301Z" fill="black"/>
</g>
<g opacity="0.3">
<path d="M166.672 141.782H163.028V156.08H166.672V141.782Z" fill="black"/>
</g>
<g opacity="0.3">
<path d="M166.672 161.255H163.028V175.554H166.672V161.255Z" fill="black"/>
</g>
<g opacity="0.3">
<path d="M172.704 63.8726H169.061V78.1713H172.704V63.8726Z" fill="black"/>
</g>
<g opacity="0.3">
<path d="M172.704 83.3535H169.061V97.6522H172.704V83.3535Z" fill="black"/>
</g>
<g opacity="0.3">
<path d="M172.704 102.827H169.061V117.126H172.704V102.827Z" fill="black"/>
</g>
<g opacity="0.3">
<path d="M172.704 122.301H169.061V136.6H172.704V122.301Z" fill="black"/>
</g>
<g opacity="0.3">
<path d="M172.704 141.782H169.061V156.08H172.704V141.782Z" fill="black"/>
</g>
<g opacity="0.3">
<path d="M172.704 161.255H169.061V175.554H172.704V161.255Z" fill="black"/>
</g>
<g opacity="0.3">
<path d="M178.73 63.8726H175.086V78.1713H178.73V63.8726Z" fill="black"/>
</g>
<g opacity="0.3">
<path d="M178.73 83.3535H175.086V97.6522H178.73V83.3535Z" fill="black"/>
</g>
<g opacity="0.3">
<path d="M178.73 102.827H175.086V117.126H178.73V102.827Z" fill="black"/>
</g>
<g opacity="0.3">
<path d="M178.73 122.301H175.086V136.6H178.73V122.301Z" fill="black"/>
</g>
<g opacity="0.3">
<path d="M178.73 141.782H175.086V156.08H178.73V141.782Z" fill="black"/>
</g>
<g opacity="0.3">
<path d="M178.73 161.255H175.086V175.554H178.73V161.255Z" fill="black"/>
</g>
<g opacity="0.3">
<path d="M184.756 63.8726H181.112V78.1713H184.756V63.8726Z" fill="black"/>
</g>
<g opacity="0.3">
<path d="M184.756 83.3535H181.112V97.6522H184.756V83.3535Z" fill="black"/>
</g>
<g opacity="0.3">
<path d="M184.756 102.827H181.112V117.126H184.756V102.827Z" fill="black"/>
</g>
<g opacity="0.3">
<path d="M184.756 122.301H181.112V136.6H184.756V122.301Z" fill="black"/>
</g>
<g opacity="0.3">
<path d="M184.756 141.782H181.112V156.08H184.756V141.782Z" fill="black"/>
</g>
<g opacity="0.3">
<path d="M184.756 161.255H181.112V175.554H184.756V161.255Z" fill="black"/>
</g>
<path d="M160.447 58.7261H105.344V194.645H160.447V58.7261Z" fill="#30C29F"/>
<path d="M160.455 47.3125H107.988V54.2669H160.455V47.3125Z" fill="#30C29F"/>
<path d="M160.455 31.979H120.975V47.3198H160.455V31.979Z" fill="#30C29F"/>
<path opacity="0.2" d="M160.455 31.979H120.975V47.3198H160.455V31.979Z" fill="black"/>
<path d="M160.455 54.2671H103.699V58.719H160.455V54.2671Z" fill="#30C29F"/>
<path opacity="0.2" d="M160.455 54.2671H103.699V58.719H160.455V54.2671Z" fill="black"/>
<g opacity="0.3">
<path d="M118.097 63.8726H110.618V78.1713H118.097V63.8726Z" fill="black"/>
</g>
<g opacity="0.3">
<path d="M118.097 83.3535H110.618V97.6522H118.097V83.3535Z" fill="black"/>
</g>
<g opacity="0.3">
<path d="M118.097 102.827H110.618V117.126H118.097V102.827Z" fill="black"/>
</g>
<g opacity="0.3">
<path d="M118.097 122.301H110.618V136.6H118.097V122.301Z" fill="black"/>
</g>
<g opacity="0.3">
<path d="M118.097 141.782H110.618V156.08H118.097V141.782Z" fill="black"/>
</g>
<g opacity="0.3">
<path d="M118.097 161.255H110.618V175.554H118.097V161.255Z" fill="black"/>
</g>
<g opacity="0.3">
<path d="M130.461 63.8726H122.982V78.1713H130.461V63.8726Z" fill="black"/>
</g>
<g opacity="0.3">
<path d="M130.461 83.3535H122.982V97.6522H130.461V83.3535Z" fill="black"/>
</g>
<g opacity="0.3">
<path d="M130.461 102.827H122.982V117.126H130.461V102.827Z" fill="black"/>
</g>
<g opacity="0.3">
<path d="M130.461 122.301H122.982V136.6H130.461V122.301Z" fill="black"/>
</g>
<g opacity="0.3">
<path d="M130.461 141.782H122.982V156.08H130.461V141.782Z" fill="black"/>
</g>
<g opacity="0.3">
<path d="M130.461 161.255H122.982V175.554H130.461V161.255Z" fill="black"/>
</g>
<g opacity="0.3">
<path d="M142.824 63.8726H135.345V78.1713H142.824V63.8726Z" fill="black"/>
</g>
<g opacity="0.3">
<path d="M142.824 83.3535H135.345V97.6522H142.824V83.3535Z" fill="black"/>
</g>
<g opacity="0.3">
<path d="M142.824 102.827H135.345V117.126H142.824V102.827Z" fill="black"/>
</g>
<g opacity="0.3">
<path d="M142.824 122.301H135.345V136.6H142.824V122.301Z" fill="black"/>
</g>
<g opacity="0.3">
<path d="M142.824 141.782H135.345V156.08H142.824V141.782Z" fill="black"/>
</g>
<g opacity="0.3">
<path d="M142.824 161.255H135.345V175.554H142.824V161.255Z" fill="black"/>
</g>
<g opacity="0.3">
<path d="M155.18 63.8726H147.701V78.1713H155.18V63.8726Z" fill="black"/>
</g>
<g opacity="0.3">
<path d="M155.18 83.3535H147.701V97.6522H155.18V83.3535Z" fill="black"/>
</g>
<g opacity="0.3">
<path d="M155.18 102.827H147.701V117.126H155.18V102.827Z" fill="black"/>
</g>
<g opacity="0.3">
<path d="M155.18 122.301H147.701V136.6H155.18V122.301Z" fill="black"/>
</g>
<g opacity="0.3">
<path d="M155.18 141.782H147.701V156.08H155.18V141.782Z" fill="black"/>
</g>
<g opacity="0.3">
<path d="M155.18 161.255H147.701V175.554H155.18V161.255Z" fill="black"/>
</g>
<path opacity="0.3" d="M142.824 181.169H122.982V194.638H142.824V181.169Z" fill="black"/>
<path d="M242.49 117.133H215.608V194.638H242.49V117.133Z" fill="#30C29F"/>
<path opacity="0.2" d="M242.49 117.133H215.608V194.638H242.49V117.133Z" fill="black"/>
<path d="M215.608 117.14H244.099V112.688H215.608V117.14Z" fill="#30C29F"/>
<path d="M215.608 112.681H239.767V105.727H215.608V112.681Z" fill="#30C29F"/>
<path opacity="0.2" d="M215.608 112.681H239.767V105.727H215.608V112.681Z" fill="black"/>
<g opacity="0.3">
<path d="M221.832 122.287H218.188V136.585H221.832V122.287Z" fill="black"/>
</g>
<g opacity="0.3">
<path d="M221.832 141.761H218.188V156.059H221.832V141.761Z" fill="black"/>
</g>
<g opacity="0.3">
<path d="M221.832 161.241H218.188V175.54H221.832V161.241Z" fill="black"/>
</g>
<g opacity="0.3">
<path d="M227.858 122.287H224.214V136.585H227.858V122.287Z" fill="black"/>
</g>
<g opacity="0.3">
<path d="M227.858 141.761H224.214V156.059H227.858V141.761Z" fill="black"/>
</g>
<g opacity="0.3">
<path d="M227.858 161.241H224.214V175.54H227.858V161.241Z" fill="black"/>
</g>
<g opacity="0.3">
<path d="M233.883 122.287H230.24V136.585H233.883V122.287Z" fill="black"/>
</g>
<g opacity="0.3">
<path d="M233.883 141.761H230.24V156.059H233.883V141.761Z" fill="black"/>
</g>
<g opacity="0.3">
<path d="M233.883 161.241H230.24V175.54H233.883V161.241Z" fill="black"/>
</g>
<g opacity="0.3">
<path d="M239.909 122.287H236.265V136.585H239.909V122.287Z" fill="black"/>
</g>
<g opacity="0.3">
<path d="M239.909 141.761H236.265V156.059H239.909V141.761Z" fill="black"/>
</g>
<g opacity="0.3">
<path d="M239.909 161.241H236.265V175.54H239.909V161.241Z" fill="black"/>
</g>
<path d="M215.608 117.133H160.504V194.638H215.608V117.133Z" fill="#30C29F"/>
<path d="M215.608 105.727H163.141V112.681H215.608V105.727Z" fill="#30C29F"/>
<path d="M215.608 112.681H158.852V117.133H215.608V112.681Z" fill="#30C29F"/>
<path opacity="0.2" d="M215.608 112.681H158.852V117.133H215.608V112.681Z" fill="black"/>
<g opacity="0.3">
<path d="M173.25 122.287H165.771V136.585H173.25V122.287Z" fill="black"/>
</g>
<g opacity="0.3">
<path d="M173.25 141.761H165.771V156.059H173.25V141.761Z" fill="black"/>
</g>
<g opacity="0.3">
<path d="M173.25 161.241H165.771V175.54H173.25V161.241Z" fill="black"/>
</g>
<g opacity="0.3">
<path d="M185.614 122.287H178.135V136.585H185.614V122.287Z" fill="black"/>
</g>
<g opacity="0.3">
<path d="M185.614 141.761H178.135V156.059H185.614V141.761Z" fill="black"/>
</g>
<g opacity="0.3">
<path d="M185.614 161.241H178.135V175.54H185.614V161.241Z" fill="black"/>
</g>
<g opacity="0.3">
<path d="M197.977 122.287H190.498V136.585H197.977V122.287Z" fill="black"/>
</g>
<g opacity="0.3">
<path d="M197.977 141.761H190.498V156.059H197.977V141.761Z" fill="black"/>
</g>
<g opacity="0.3">
<path d="M197.977 161.241H190.498V175.54H197.977V161.241Z" fill="black"/>
</g>
<g opacity="0.3">
<path d="M210.34 122.287H202.861V136.585H210.34V122.287Z" fill="black"/>
</g>
<g opacity="0.3">
<path d="M210.34 141.761H202.861V156.059H210.34V141.761Z" fill="black"/>
</g>
<g opacity="0.3">
<path d="M210.34 161.241H202.861V175.54H210.34V161.241Z" fill="black"/>
</g>
</svg>
