<svg width="30" height="27" viewBox="0 0 30 27" fill="none" xmlns="http://www.w3.org/2000/svg">
<path d="M15 26.75L12.9458 24.9083C10.5611 22.7597 8.58959 20.9062 7.03126 19.3479C5.47293 17.7896 4.23334 16.3904 3.31251 15.1503C2.39168 13.9112 1.74851 12.7722 1.38301 11.7333C1.01657 10.6944 0.833344 9.63193 0.833344 8.54582C0.833344 6.32637 1.57709 4.4729 3.06459 2.9854C4.55209 1.4979 6.40557 0.75415 8.62501 0.75415C9.85279 0.75415 11.0215 1.01387 12.1313 1.53332C13.241 2.05276 14.1972 2.78471 15 3.72915C15.8028 2.78471 16.759 2.05276 17.8688 1.53332C18.9785 1.01387 20.1472 0.75415 21.375 0.75415C23.5945 0.75415 25.4479 1.4979 26.9354 2.9854C28.4229 4.4729 29.1667 6.32637 29.1667 8.54582C29.1667 9.63193 28.9839 10.6944 28.6184 11.7333C28.252 12.7722 27.6083 13.9112 26.6875 15.1503C25.7667 16.3904 24.5271 17.7896 22.9688 19.3479C21.4104 20.9062 19.4389 22.7597 17.0542 24.9083L15 26.75ZM15 22.925C17.2667 20.8944 19.132 19.1529 20.5958 17.7003C22.0597 16.2487 23.2167 14.986 24.0667 13.9122C24.9167 12.8374 25.507 11.8807 25.8375 11.042C26.1681 10.2043 26.3333 9.37221 26.3333 8.54582C26.3333 7.12915 25.8611 5.9486 24.9167 5.00415C23.9722 4.05971 22.7917 3.58748 21.375 3.58748C20.2653 3.58748 19.2382 3.90009 18.2938 4.52532C17.3493 5.15148 16.7 5.9486 16.3458 6.91665H13.6542C13.3 5.9486 12.6507 5.15148 11.7063 4.52532C10.7618 3.90009 9.73473 3.58748 8.62501 3.58748C7.20834 3.58748 6.02779 4.05971 5.08334 5.00415C4.1389 5.9486 3.66668 7.12915 3.66668 8.54582C3.66668 9.37221 3.83195 10.2043 4.16251 11.042C4.49307 11.8807 5.08334 12.8374 5.93334 13.9122C6.78334 14.986 7.94029 16.2487 9.40418 17.7003C10.8681 19.1529 12.7333 20.8944 15 22.925Z" fill="white"/>
</svg>
