<svg width="10" height="12" viewBox="0 0 10 12" fill="none" xmlns="http://www.w3.org/2000/svg">
<path d="M5 6.00002C5.32083 6.00002 5.59558 5.88569 5.82425 5.65702C6.05253 5.42874 6.16667 5.15419 6.16667 4.83335C6.16667 4.51252 6.05253 4.23777 5.82425 4.0091C5.59558 3.78083 5.32083 3.66669 5 3.66669C4.67917 3.66669 4.40461 3.78083 4.17633 4.0091C3.94767 4.23777 3.83333 4.51252 3.83333 4.83335C3.83333 5.15419 3.94767 5.42874 4.17633 5.65702C4.40461 5.88569 4.67917 6.00002 5 6.00002ZM5 10.2875C6.18611 9.19863 7.06597 8.2093 7.63958 7.31952C8.21319 6.43013 8.5 5.6403 8.5 4.95002C8.5 3.8903 8.16205 3.02249 7.48616 2.3466C6.81066 1.6711 5.98194 1.33335 5 1.33335C4.01805 1.33335 3.18914 1.6711 2.51325 2.3466C1.83775 3.02249 1.5 3.8903 1.5 4.95002C1.5 5.6403 1.7868 6.43013 2.36042 7.31952C2.93403 8.2093 3.81389 9.19863 5 10.2875ZM5 11.8334C3.43472 10.5014 2.26572 9.26416 1.493 8.1216C0.719888 6.97944 0.333332 5.92224 0.333332 4.95002C0.333332 3.49169 0.802527 2.32988 1.74092 1.4646C2.67892 0.599326 3.76528 0.166687 5 0.166687C6.23472 0.166687 7.32108 0.599326 8.25908 1.4646C9.19747 2.32988 9.66667 3.49169 9.66667 4.95002C9.66667 5.92224 9.2803 6.97944 8.50758 8.1216C7.73447 9.26416 6.56528 10.5014 5 11.8334Z" fill="#8EFFE4"/>
</svg>
