<svg width="1228" height="512" viewBox="0 0 1228 512" fill="none" xmlns="http://www.w3.org/2000/svg">
<path d="M411.632 153H200.781V342.6C200.781 374.239 224.856 381.373 236.894 380.985H377.849C407.671 374.471 412.797 352.681 411.632 342.6V153Z" fill="url(#paint0_linear_196_335)"/>
<path d="M295.739 79C262.202 109.745 320.416 119.157 295.739 143" stroke="#3180D5" stroke-width="5" stroke-linecap="round"/>
<path d="M322.959 99C301.259 120.137 338.927 126.608 322.959 143" stroke="#3180D5" stroke-width="5" stroke-linecap="round"/>
<path d="M254.76 290.12L235.14 269.96L254.76 249.8H270.6L250.98 269.96L270.6 290.12H254.76ZM320.548 216.77L296.248 318.29H283.918L308.218 216.77H320.548ZM332.368 249.8H348.298L367.918 269.96L348.298 290.12H332.368L352.078 269.96L332.368 249.8Z" fill="white"/>
<path d="M114.03 256.5C136.825 292 205.5 359.5 205.5 359.5L200.143 350.5L200.143 333.479L136.825 242.31C124.047 223.912 135.599 211.912 142.972 208.212L170.281 196.5L173.781 179.5L167.281 159C167.281 159 159.111 161.04 134.428 173.248C86.3819 197.011 91.2342 221 114.03 256.5Z" fill="url(#paint1_linear_196_335)"/>
<circle cx="179.683" cy="176.935" r="16.6481" transform="rotate(-34.7806 179.683 176.935)" fill="#791EB5" stroke="white" stroke-width="8"/>
<path d="M206.5 363L201 348L201 319C181.386 279.539 160.781 273.5 174.781 257L158.781 233C92.9641 272.867 191.547 337.671 206.5 363Z" fill="url(#paint2_linear_196_335)"/>
<path d="M179.734 234.458C184.975 242.004 183.11 252.362 175.575 257.594C168.041 262.827 157.684 260.958 152.443 253.412C147.203 245.866 149.068 235.509 156.602 230.276C164.136 225.043 174.494 226.912 179.734 234.458Z" fill="#0694DB" stroke="white" stroke-width="6"/>
<path d="M549.29 240.03H526.98V341H494.32V240.03H479.83V213.58H494.32V207.14C494.32 191.5 498.767 180 507.66 172.64C516.553 165.28 529.97 161.83 547.91 162.29V189.43C540.09 189.277 534.647 190.58 531.58 193.34C528.513 196.1 526.98 201.083 526.98 208.29V213.58H549.29V240.03ZM688.607 274.53C688.607 279.13 688.3 283.27 687.687 286.95H594.537C595.304 296.15 598.524 303.357 604.197 308.57C609.87 313.783 616.847 316.39 625.127 316.39C637.087 316.39 645.597 311.253 650.657 300.98H685.387C681.707 313.247 674.654 323.367 664.227 331.34C653.8 339.16 640.997 343.07 625.817 343.07C613.55 343.07 602.51 340.387 592.697 335.02C583.037 329.5 575.447 321.757 569.927 311.79C564.56 301.823 561.877 290.323 561.877 277.29C561.877 264.103 564.56 252.527 569.927 242.56C575.294 232.593 582.807 224.927 592.467 219.56C602.127 214.193 613.244 211.51 625.817 211.51C637.93 211.51 648.74 214.117 658.247 219.33C667.907 224.543 675.344 231.98 680.557 241.64C685.924 251.147 688.607 262.11 688.607 274.53ZM655.257 265.33C655.104 257.05 652.114 250.457 646.287 245.55C640.46 240.49 633.33 237.96 624.897 237.96C616.924 237.96 610.177 240.413 604.657 245.32C599.29 250.073 595.994 256.743 594.767 265.33H655.257ZM832.4 213.58V341H799.97V324.9C795.83 330.42 790.387 334.79 783.64 338.01C777.047 341.077 769.84 342.61 762.02 342.61C752.054 342.61 743.237 340.54 735.57 336.4C727.904 332.107 721.847 325.897 717.4 317.77C713.107 309.49 710.96 299.677 710.96 288.33V213.58H743.16V283.73C743.16 293.85 745.69 301.67 750.75 307.19C755.81 312.557 762.71 315.24 771.45 315.24C780.344 315.24 787.32 312.557 792.38 307.19C797.44 301.67 799.97 293.85 799.97 283.73V213.58H832.4ZM922.591 240.03H900.281V341H867.621V240.03H853.131V213.58H867.621V207.14C867.621 191.5 872.067 180 880.961 172.64C889.854 165.28 903.271 161.83 921.211 162.29V189.43C913.391 189.277 907.947 190.58 904.881 193.34C901.814 196.1 900.281 201.083 900.281 208.29V213.58H922.591V240.03ZM1000.04 343.07C987.771 343.07 976.731 340.387 966.918 335.02C957.105 329.5 949.361 321.757 943.688 311.79C938.168 301.823 935.408 290.323 935.408 277.29C935.408 264.257 938.245 252.757 943.918 242.79C949.745 232.823 957.641 225.157 967.608 219.79C977.575 214.27 988.691 211.51 1000.96 211.51C1013.22 211.51 1024.34 214.27 1034.31 219.79C1044.27 225.157 1052.09 232.823 1057.77 242.79C1063.59 252.757 1066.51 264.257 1066.51 277.29C1066.51 290.323 1063.52 301.823 1057.54 311.79C1051.71 321.757 1043.74 329.5 1033.62 335.02C1023.65 340.387 1012.46 343.07 1000.04 343.07ZM1000.04 315.01C1005.86 315.01 1011.31 313.63 1016.37 310.87C1021.58 307.957 1025.72 303.663 1028.79 297.99C1031.85 292.317 1033.39 285.417 1033.39 277.29C1033.39 265.177 1030.17 255.9 1023.73 249.46C1017.44 242.867 1009.7 239.57 1000.5 239.57C991.298 239.57 983.555 242.867 977.268 249.46C971.135 255.9 968.068 265.177 968.068 277.29C968.068 289.403 971.058 298.757 977.038 305.35C983.171 311.79 990.838 315.01 1000.04 315.01Z" fill="white"/>
<defs>
<linearGradient id="paint0_linear_196_335" x1="204.351" y1="178.186" x2="385.072" y2="167.217" gradientUnits="userSpaceOnUse">
<stop stop-color="#3180D5"/>
<stop offset="1" stop-color="#30C29F"/>
</linearGradient>
<linearGradient id="paint1_linear_196_335" x1="119.84" y1="169.22" x2="222.929" y2="317.654" gradientUnits="userSpaceOnUse">
<stop stop-color="#920FFF"/>
<stop offset="1" stop-color="#0D37C9"/>
</linearGradient>
<linearGradient id="paint2_linear_196_335" x1="130.354" y1="270.599" x2="162.014" y2="247.549" gradientUnits="userSpaceOnUse">
<stop stop-color="#3180D5"/>
<stop offset="1" stop-color="#30C29F"/>
</linearGradient>
</defs>
</svg>
