<svg width="32" height="32" viewBox="0 0 32 32" fill="none" xmlns="http://www.w3.org/2000/svg">
<path d="M31.9152 12.2566C31.6728 11.5107 30.9511 10.9984 29.935 10.8508L21.653 9.64709L17.9492 2.14231C17.4946 1.22155 16.7841 0.693359 16 0.693359C15.2158 0.693359 14.5054 1.22155 14.051 2.14238L10.3469 9.64709L2.06518 10.8507C1.04892 10.9984 0.327096 11.5109 0.084843 12.2567C-0.157472 13.0026 0.125281 13.8414 0.860665 14.558L6.85317 20.3996L5.43897 28.6481C5.26015 29.6909 5.56053 30.3199 5.84404 30.664C6.16585 31.0546 6.63311 31.281 7.16368 31.3045C7.18555 31.306 7.20755 31.3068 7.2298 31.3068H11.0458V25.3484C11.0458 23.6968 11.859 22.2324 13.1051 21.3317C11.859 20.431 11.0458 18.9666 11.0458 17.3149C11.0458 14.5831 13.2682 12.3607 16 12.3607C18.7318 12.3607 20.9543 14.5831 20.9543 17.3149C20.9543 18.9666 20.1411 20.431 18.8949 21.3317C20.1411 22.2323 20.9543 23.6968 20.9543 25.3484V31.3068H24.8028C24.8498 31.3068 24.896 31.3033 24.9411 31.2966C25.437 31.2489 25.8715 31.0193 26.1718 30.6441C26.4466 30.3008 26.7373 29.6759 26.561 28.6481L25.1463 20.3996L31.1396 14.558C31.8748 13.8413 32.1576 13.0024 31.9152 12.2566Z" fill="url(#paint0_linear_26_29)"/>
<defs>
<linearGradient id="paint0_linear_26_29" x1="0.541414" y1="4.07508" x2="27.9217" y2="2.19798" gradientUnits="userSpaceOnUse">
<stop stop-color="#3180D5"/>
<stop offset="1" stop-color="#30C29F"/>
</linearGradient>
</defs>
</svg>
