<svg width="27" height="13" viewBox="0 0 27 13" fill="none" xmlns="http://www.w3.org/2000/svg">
<path d="M23.4844 1.92146L20.1217 3.86302C20.1364 4.1689 20.1188 4.48083 20.0636 4.79477C19.8684 5.90508 19.2524 6.87277 18.3291 7.51958C17.4059 8.16633 16.2861 8.41471 15.176 8.21896C15.176 8.21896 12.2392 7.70702 8.75349 7.09877C8.24274 7.00964 7.90105 6.52283 7.99105 6.01221C8.08086 5.50289 8.56611 5.16246 9.07561 5.25133L15.5015 6.37239C16.7767 6.59733 17.9927 5.74546 18.2169 4.47014C18.4409 3.19577 17.5899 1.98096 16.3156 1.75627L9.15567 0.493768C7.34974 0.175331 5.4808 0.504893 3.89286 1.42177L0.00317383 3.66752L5.27355 12.7963L6.94855 11.8293L13.6881 11.8595C14.9575 11.8626 16.2131 11.5322 17.314 10.8966L25.8282 5.98096C26.5534 5.56227 27.0001 4.78858 27.0001 3.95121C27.0001 2.14689 25.0469 1.01927 23.4844 1.92146Z" fill="url(#paint0_linear_27_59)"/>
<defs>
<linearGradient id="paint0_linear_27_59" x1="0.459889" y1="1.74755" x2="23.2057" y2="-1.49493" gradientUnits="userSpaceOnUse">
<stop stop-color="#3180D5"/>
<stop offset="1" stop-color="#30C29F"/>
</linearGradient>
</defs>
</svg>
