<svg width="311" height="183" viewBox="0 0 311 183" fill="none" xmlns="http://www.w3.org/2000/svg">
<path d="M310.163 172.891H212.999L232.372 60.1953H305.029L310.163 172.891Z" fill="#3180D5"/>
<path d="M310.163 172.891H301.644L296.863 60.1953H305.029L310.163 172.891Z" fill="#2065AF"/>
<path d="M229.404 79.1839C223.219 106.122 210.696 140.225 201.03 147.108C193.232 152.659 152.295 162.43 150.017 162.679C144.361 163.248 133.17 123.33 139.058 121.709C146.447 119.664 181.52 118.573 183.517 116.527C185.515 114.481 198.35 97.0974 212.806 77.066C222.77 63.2278 233.239 62.4737 229.404 79.1839Z" fill="#D3766A"/>
<path d="M154.541 160.488C153.867 160.825 144.313 165.631 138.401 167.347C133.996 168.623 121.201 171.96 119.316 167.251C118.024 164.042 125.308 161.186 130.419 159.052C133.114 157.937 136.435 155.114 135.641 153.389C134.253 150.356 127.322 153.389 122.765 156.044C113.941 161.17 102.205 170.388 96.8218 165.911C94.7922 164.227 97.1507 161.146 100.608 158.13C94.9927 161.644 89.0162 164.548 86.6817 162.743C85.3501 161.724 85.2859 160.336 86.0319 158.732C84.2992 159.293 82.7669 159.181 81.7 158.058C79.8789 156.148 80.7614 153.333 82.7589 150.445C82.4167 150.407 82.0885 150.288 81.8012 150.098C81.5139 149.909 81.2757 149.653 81.1063 149.354C77.2396 143.465 96.5651 126.563 103.256 124.982C122.918 120.305 143.832 122.014 143.832 122.014C151.557 128.183 154.557 160.472 154.541 160.488Z" fill="#D3766A"/>
<path d="M125.621 142.382C120.94 143.111 116.468 144.832 112.505 147.428C107.515 150.725 104.21 154.576 100.031 158.451C100.015 158.473 100.008 158.499 100.009 158.526C100.011 158.553 100.021 158.578 100.038 158.598C100.056 158.618 100.079 158.632 100.106 158.638C100.132 158.643 100.159 158.639 100.183 158.627C102.173 156.782 110.435 149.851 112.569 148.279C116.421 145.373 120.885 143.384 125.621 142.463C125.694 142.455 125.677 142.374 125.621 142.382Z" fill="#263238"/>
<path d="M121.963 134.04C116.797 135.451 111.534 136.879 106.721 139.326C101.467 141.998 97.3592 146.362 93.3241 150.557C90.896 153.076 88.5268 155.651 86.2164 158.283C86.1202 158.387 86.2646 158.563 86.3689 158.451C90.4655 154.119 94.6932 149.91 99.0519 145.824C103.069 142.012 107.799 139.03 112.97 137.048C115.931 135.925 118.963 135.026 121.995 134.128C122.035 134.112 122.019 134.023 121.963 134.04Z" fill="#263238"/>
<path d="M116.444 126.739C111.422 127.774 107.042 128.657 102.59 131.344C96.7095 134.906 91.0217 140.906 89.0322 143.04C86.8261 145.391 84.7083 147.854 82.6145 150.26C82.5263 150.357 82.7027 150.509 82.791 150.405C87.5651 145.025 92.6804 139.958 98.1053 135.235C100.658 132.95 103.548 131.072 106.673 129.667C109.84 128.422 113.109 127.453 116.444 126.771C116.444 126.771 116.46 126.739 116.444 126.739Z" fill="#263238"/>
<path d="M183.814 112.596L221.518 110.992C221.518 110.992 228.369 92.2922 230.888 75.6943C233.407 59.0965 219.264 65.0489 205.265 82.9143C191.267 100.78 183.814 112.596 183.814 112.596Z" fill="#30C29F"/>
<path d="M196.16 101.309C196.417 101.237 196.674 101.213 196.962 101.156C197.186 101.107 197.418 101.109 197.64 101.161C197.863 101.213 198.071 101.314 198.25 101.457C198.428 101.601 198.573 101.782 198.672 101.988C198.771 102.194 198.823 102.42 198.824 102.649C198.819 102.854 198.868 103.057 198.965 103.239C199.062 103.42 199.204 103.573 199.377 103.683C199.567 103.807 199.785 103.881 200.011 103.9C200.268 103.948 200.524 103.98 200.813 104.052C200.556 104.125 200.3 104.157 200.011 104.213C199.722 104.271 199.423 104.24 199.153 104.125C198.868 104 198.626 103.796 198.455 103.537C198.284 103.278 198.192 102.975 198.19 102.665C198.188 102.461 198.133 102.261 198.03 102.086C197.927 101.91 197.781 101.764 197.604 101.662C197.409 101.547 197.189 101.481 196.962 101.469C196.674 101.421 196.417 101.389 196.16 101.309ZM222.69 78.3975C222.919 78.4143 223.141 78.4829 223.339 78.5981C223.515 78.7011 223.661 78.8474 223.763 79.023C223.866 79.1986 223.921 79.3976 223.925 79.6009C223.927 79.9113 224.019 80.2144 224.19 80.4736C224.361 80.7327 224.603 80.9367 224.888 81.0609C225.159 81.1739 225.458 81.2019 225.746 81.1411C226.003 81.093 226.259 81.0609 226.548 80.9887C226.292 80.9165 226.035 80.8844 225.746 80.8363C225.52 80.8186 225.302 80.744 225.112 80.6197C224.94 80.5077 224.8 80.3541 224.703 80.1732C224.606 79.9923 224.557 79.79 224.559 79.5848C224.548 79.2731 224.447 78.9713 224.267 78.7163C224.088 78.4612 223.838 78.2641 223.548 78.1488C223.272 78.0523 222.976 78.0329 222.69 78.0927C222.433 78.1408 222.176 78.1729 221.927 78.2451C222.184 78.3173 222.441 78.3494 222.69 78.3975ZM223.652 93.1022C223.479 93.2525 223.273 93.3597 223.051 93.415C222.856 93.4678 222.65 93.469 222.455 93.4183C222.259 93.3677 222.08 93.267 221.936 93.1262C221.715 92.9059 221.436 92.7544 221.131 92.6903C220.826 92.6262 220.509 92.6523 220.219 92.7652C219.948 92.8815 219.717 93.0738 219.553 93.3188C219.409 93.5354 219.248 93.7359 219.12 93.9686C219.352 93.8402 219.553 93.6798 219.77 93.5354C219.945 93.3923 220.151 93.2908 220.371 93.2385C220.572 93.196 220.781 93.2054 220.977 93.2657C221.174 93.3261 221.352 93.4354 221.494 93.5835C221.658 93.7499 221.857 93.877 222.076 93.9553C222.296 94.0336 222.53 94.0611 222.762 94.0356C222.994 94.0101 223.217 93.9323 223.414 93.8081C223.611 93.684 223.778 93.5167 223.901 93.3188C224.045 93.1022 224.206 92.8936 224.334 92.661C224.077 92.7973 223.877 92.9578 223.66 93.1022H223.652ZM213.4 75.9508C213.225 76.0996 213.02 76.209 212.798 76.2717C212.601 76.321 212.395 76.3196 212.199 76.2677C212.002 76.2158 211.822 76.1151 211.675 75.9748L211.475 75.7984C211.322 75.9508 211.178 76.1032 211.033 76.2636C211.11 76.3103 211.18 76.3669 211.242 76.4321C211.47 76.6462 211.755 76.7891 212.063 76.8432C212.371 76.8974 212.688 76.8604 212.975 76.7369C213.238 76.6117 213.461 76.4142 213.617 76.1674C213.761 75.9508 213.921 75.7502 214.05 75.5176C213.865 75.6379 213.625 75.8064 213.408 75.9508H213.4ZM209.14 90.0778C209.125 90.306 209.059 90.5279 208.948 90.7276C208.843 90.9019 208.697 91.047 208.522 91.1494C208.346 91.2518 208.148 91.3081 207.945 91.3132C207.633 91.3137 207.328 91.405 207.067 91.576C206.807 91.7469 206.602 91.9901 206.477 92.2759C206.368 92.5456 206.34 92.841 206.397 93.1262C206.453 93.3829 206.477 93.6396 206.549 93.9284C206.621 93.6717 206.653 93.415 206.709 93.1262C206.731 92.9021 206.802 92.6856 206.918 92.4925C207.03 92.3216 207.184 92.1819 207.365 92.0865C207.546 91.9911 207.748 91.9431 207.953 91.947C208.266 91.9378 208.57 91.8373 208.826 91.6576C209.083 91.478 209.281 91.2272 209.397 90.9362C209.49 90.6598 209.509 90.364 209.453 90.0778C209.397 89.8211 209.365 89.5644 209.293 89.2756C209.22 89.5644 209.196 89.8211 209.14 90.0778ZM219.938 104.446C219.926 104.674 219.86 104.897 219.745 105.095C219.642 105.271 219.496 105.417 219.321 105.519C219.145 105.622 218.946 105.677 218.743 105.681C218.433 105.682 218.131 105.773 217.872 105.942C217.613 106.112 217.408 106.353 217.283 106.636C217.168 106.906 217.137 107.205 217.194 107.494C217.251 107.751 217.283 108.007 217.355 108.296C217.427 108.039 217.459 107.783 217.507 107.494C217.528 107.268 217.602 107.051 217.724 106.86C217.835 106.688 217.989 106.548 218.17 106.452C218.351 106.357 218.554 106.309 218.759 106.315C219.07 106.304 219.372 106.203 219.627 106.023C219.882 105.844 220.08 105.594 220.195 105.304C220.291 105.028 220.311 104.731 220.251 104.446C220.203 104.189 220.171 103.932 220.098 103.643C220.026 103.932 219.994 104.189 219.938 104.446Z" fill="white"/>
<path d="M222.826 102.809C214.667 102.601 206.485 102.962 198.326 103.483C196.016 103.638 193.711 103.841 191.411 104.093C191.347 104.093 191.339 104.197 191.411 104.197C195.486 104.197 199.562 104.061 203.637 103.94C207.712 103.82 211.82 103.651 215.903 103.419C218.213 103.282 220.516 103.146 222.818 102.962C222.922 102.954 222.93 102.809 222.826 102.809Z" fill="#263238"/>
<path d="M194.395 172.891H290.661C291.72 170.95 275.933 86.5964 243.459 62.8428C236.239 57.5803 223.476 60.9656 219.922 66.0918C202.081 91.843 194.395 172.891 194.395 172.891Z" fill="#30C29F"/>
<path d="M235.236 101.309C235.493 101.237 235.75 101.213 236.038 101.156C236.262 101.107 236.494 101.109 236.716 101.161C236.939 101.213 237.147 101.314 237.326 101.457C237.504 101.601 237.649 101.782 237.748 101.988C237.847 102.194 237.899 102.42 237.9 102.649C237.895 102.854 237.944 103.057 238.041 103.239C238.138 103.42 238.28 103.573 238.453 103.683C238.644 103.805 238.861 103.879 239.087 103.9C239.344 103.948 239.6 103.98 239.889 104.052C239.632 104.125 239.376 104.157 239.087 104.213C238.798 104.27 238.499 104.239 238.229 104.125C237.944 104 237.702 103.796 237.531 103.537C237.36 103.278 237.268 102.975 237.266 102.665C237.264 102.461 237.209 102.261 237.106 102.085C237.003 101.91 236.857 101.764 236.68 101.662C236.485 101.546 236.265 101.48 236.038 101.469C235.75 101.421 235.525 101.389 235.236 101.309ZM250.198 152.226C250.424 152.242 250.644 152.311 250.839 152.426C251.015 152.527 251.162 152.671 251.264 152.846C251.367 153.02 251.422 153.218 251.425 153.421C251.425 153.733 251.517 154.037 251.688 154.298C251.859 154.559 252.102 154.764 252.388 154.889C252.66 154.998 252.958 155.026 253.246 154.969C253.503 154.921 253.759 154.889 254.048 154.817C253.792 154.744 253.535 154.712 253.246 154.656C253.02 154.642 252.802 154.57 252.612 154.448C252.44 154.336 252.3 154.182 252.203 154.001C252.106 153.82 252.056 153.618 252.059 153.413C252.054 153.1 251.956 152.795 251.775 152.539C251.595 152.282 251.341 152.087 251.048 151.977C250.776 151.876 250.48 151.856 250.198 151.921C249.941 151.969 249.684 152.001 249.395 152.073C249.684 152.153 249.965 152.185 250.198 152.234V152.226ZM267.846 104.213C268.073 104.224 268.293 104.29 268.488 104.405C268.665 104.507 268.811 104.653 268.914 104.829C269.017 105.005 269.072 105.204 269.074 105.408C269.076 105.719 269.168 106.022 269.339 106.281C269.51 106.54 269.752 106.744 270.036 106.868C270.307 106.983 270.606 107.014 270.895 106.956C271.152 106.9 271.408 106.868 271.697 106.796C271.44 106.724 271.184 106.692 270.895 106.644C270.669 106.624 270.451 106.55 270.261 106.427C270.088 106.317 269.945 106.163 269.849 105.982C269.752 105.801 269.703 105.598 269.708 105.392C269.707 105.163 269.655 104.938 269.556 104.731C269.456 104.525 269.312 104.344 269.134 104.201C268.955 104.058 268.747 103.957 268.524 103.904C268.301 103.852 268.07 103.851 267.846 103.9C267.59 103.956 267.333 103.98 267.044 104.052C267.349 104.133 267.614 104.165 267.862 104.221L267.846 104.213ZM222.69 78.3975C222.919 78.4143 223.141 78.4828 223.339 78.598C223.515 78.701 223.661 78.8473 223.763 79.0229C223.866 79.1985 223.921 79.3975 223.925 79.6008C223.927 79.9112 224.019 80.2144 224.19 80.4735C224.361 80.7327 224.603 80.9367 224.888 81.0608C225.159 81.1739 225.458 81.2018 225.746 81.141C226.003 81.0929 226.259 81.0608 226.548 80.9886C226.292 80.9164 226.035 80.8844 225.746 80.8362C225.52 80.8185 225.302 80.744 225.112 80.6196C224.94 80.5076 224.8 80.3541 224.703 80.1732C224.606 79.9923 224.557 79.7899 224.559 79.5848C224.548 79.2731 224.447 78.9712 224.267 78.7162C224.088 78.4612 223.838 78.264 223.548 78.1488C223.272 78.0523 222.975 78.0329 222.69 78.0926C222.433 78.1408 222.176 78.1729 221.927 78.2451C222.184 78.3173 222.441 78.3493 222.69 78.3975ZM250.486 77.8199C250.715 77.8353 250.936 77.901 251.136 78.0124C251.31 78.1166 251.456 78.2632 251.558 78.4385C251.66 78.6138 251.717 78.8122 251.722 79.0152C251.722 79.3269 251.814 79.6318 251.985 79.8925C252.156 80.1533 252.399 80.3585 252.684 80.4832C252.957 80.592 253.255 80.6199 253.543 80.5635C253.792 80.5073 254.048 80.4752 254.305 80.411C254.048 80.3388 253.792 80.3068 253.543 80.2506C253.316 80.2302 253.097 80.1589 252.901 80.042C252.73 79.9296 252.591 79.7758 252.495 79.5948C252.4 79.4138 252.352 79.2117 252.356 79.0072C252.346 78.6941 252.246 78.3905 252.066 78.1339C251.887 77.8773 251.636 77.6789 251.345 77.5632C251.069 77.4667 250.772 77.4472 250.486 77.507C250.23 77.5632 249.973 77.5953 249.684 77.6675C249.965 77.7316 250.238 77.7637 250.494 77.8199H250.486ZM215.871 122.744C216.099 122.759 216.321 122.825 216.521 122.937C216.694 123.041 216.838 123.188 216.939 123.363C217.04 123.539 217.095 123.737 217.098 123.939C217.099 124.251 217.19 124.556 217.361 124.817C217.532 125.077 217.775 125.283 218.061 125.407C218.333 125.516 218.631 125.544 218.919 125.488C219.176 125.439 219.433 125.407 219.721 125.335C219.465 125.263 219.208 125.231 218.919 125.175C218.694 125.157 218.477 125.085 218.285 124.966C218.114 124.854 217.973 124.701 217.876 124.52C217.779 124.339 217.73 124.136 217.732 123.931C217.729 123.618 217.63 123.313 217.45 123.056C217.269 122.8 217.015 122.604 216.721 122.495C216.449 122.394 216.154 122.374 215.871 122.439C215.614 122.487 215.357 122.519 215.069 122.592C215.365 122.632 215.622 122.664 215.879 122.712L215.871 122.744ZM246.178 169.273C246.407 169.287 246.629 169.353 246.828 169.465C247.003 169.569 247.148 169.716 247.25 169.891C247.352 170.067 247.409 170.265 247.414 170.468C247.419 170.772 247.511 171.069 247.679 171.323C247.846 171.578 248.083 171.779 248.361 171.904C248.633 172.013 248.931 172.041 249.219 171.984C249.476 171.928 249.732 171.896 250.021 171.824C249.764 171.751 249.508 171.727 249.219 171.671C248.993 171.654 248.775 171.579 248.585 171.455C248.413 171.345 248.272 171.193 248.175 171.013C248.078 170.834 248.028 170.632 248.032 170.428C248.031 170.198 247.979 169.971 247.879 169.764C247.779 169.557 247.635 169.375 247.455 169.231C247.276 169.087 247.067 168.985 246.843 168.933C246.62 168.88 246.387 168.879 246.162 168.928C245.906 168.984 245.657 169.016 245.36 169.088C245.681 169.136 245.954 169.168 246.187 169.224L246.178 169.273ZM231.257 144.284C231.486 144.295 231.709 144.361 231.907 144.476C232.082 144.578 232.228 144.725 232.329 144.901C232.431 145.076 232.484 145.276 232.485 145.479C232.487 145.789 232.579 146.092 232.75 146.352C232.92 146.611 233.163 146.815 233.447 146.939C233.718 147.054 234.017 147.084 234.306 147.027C234.562 146.971 234.819 146.939 235.108 146.867C234.851 146.795 234.594 146.762 234.306 146.714C234.08 146.694 233.863 146.619 233.672 146.498C233.492 146.386 233.345 146.228 233.248 146.041C233.15 145.853 233.106 145.642 233.118 145.431C233.117 145.202 233.064 144.976 232.963 144.77C232.863 144.564 232.718 144.383 232.539 144.24C232.36 144.097 232.151 143.995 231.928 143.943C231.705 143.891 231.473 143.89 231.249 143.939C230.993 143.987 230.736 144.019 230.447 144.091C230.752 144.147 231.009 144.179 231.265 144.235L231.257 144.284ZM197.083 169.898C196.857 169.878 196.64 169.803 196.449 169.682C196.275 169.572 196.134 169.419 196.038 169.237C195.942 169.056 195.896 168.852 195.904 168.647C195.892 168.354 195.801 168.07 195.64 167.825C195.479 167.581 195.254 167.385 194.989 167.259C194.989 167.468 194.941 167.66 194.925 167.853C195.032 167.957 195.118 168.081 195.175 168.219C195.233 168.357 195.263 168.505 195.262 168.655C195.264 168.965 195.356 169.268 195.527 169.528C195.698 169.787 195.94 169.991 196.224 170.115C196.495 170.23 196.794 170.26 197.083 170.203C197.34 170.147 197.596 170.115 197.885 170.043C197.604 169.93 197.348 169.898 197.091 169.85L197.083 169.898ZM203.645 148.824C203.874 148.836 204.096 148.902 204.295 149.017C204.47 149.12 204.616 149.266 204.719 149.442C204.821 149.617 204.877 149.816 204.88 150.019C204.882 150.33 204.974 150.633 205.145 150.892C205.316 151.151 205.559 151.355 205.843 151.479C206.114 151.595 206.413 151.625 206.701 151.568C206.958 151.512 207.207 151.479 207.463 151.407C207.207 151.335 206.958 151.303 206.701 151.255C206.475 151.237 206.257 151.163 206.068 151.038C205.893 150.929 205.75 150.776 205.653 150.595C205.556 150.413 205.508 150.209 205.514 150.003C205.503 149.692 205.402 149.39 205.223 149.135C205.043 148.88 204.793 148.683 204.503 148.567C204.228 148.471 203.931 148.451 203.645 148.511C203.388 148.567 203.132 148.591 202.843 148.664C203.14 148.688 203.436 148.72 203.653 148.776L203.645 148.824ZM243.964 123.37C244.193 123.388 244.415 123.456 244.614 123.57C244.789 123.673 244.935 123.82 245.038 123.995C245.14 124.171 245.196 124.37 245.2 124.573C245.202 124.883 245.294 125.187 245.465 125.446C245.636 125.705 245.878 125.909 246.162 126.033C246.431 126.145 246.728 126.173 247.013 126.113C247.27 126.065 247.526 126.033 247.815 125.961C247.558 125.889 247.302 125.857 247.013 125.809C246.787 125.788 246.57 125.714 246.379 125.592C246.208 125.479 246.068 125.326 245.973 125.145C245.878 124.964 245.83 124.762 245.834 124.557C245.823 124.245 245.722 123.944 245.542 123.688C245.363 123.433 245.113 123.236 244.823 123.121C244.547 123.025 244.25 123.005 243.964 123.065C243.708 123.113 243.451 123.145 243.162 123.217C243.459 123.241 243.716 123.273 243.972 123.322L243.964 123.37ZM279.262 157.592C279.488 157.608 279.707 157.673 279.904 157.785C280.079 157.888 280.225 158.034 280.327 158.21C280.43 158.385 280.486 158.584 280.489 158.788C280.49 159.099 280.581 159.404 280.752 159.665C280.923 159.926 281.166 160.131 281.452 160.256C281.724 160.364 282.022 160.392 282.31 160.336C282.567 160.28 282.824 160.248 283.113 160.175C282.856 160.103 282.599 160.079 282.31 160.023C282.085 160.004 281.867 159.93 281.677 159.806C281.504 159.697 281.363 159.545 281.266 159.365C281.169 159.185 281.12 158.984 281.123 158.78C281.124 158.55 281.073 158.324 280.974 158.116C280.875 157.909 280.731 157.727 280.552 157.583C280.374 157.439 280.165 157.337 279.942 157.284C279.718 157.232 279.486 157.23 279.262 157.279C279.005 157.336 278.748 157.368 278.46 157.44C278.773 157.464 279.029 157.464 279.286 157.544L279.262 157.592ZM265.239 136.735C265.468 136.749 265.69 136.815 265.889 136.927C266.063 137.031 266.208 137.178 266.311 137.353C266.413 137.529 266.469 137.727 266.475 137.93C266.475 138.242 266.566 138.547 266.737 138.807C266.908 139.068 267.151 139.273 267.437 139.398C267.71 139.507 268.008 139.535 268.296 139.478C268.552 139.422 268.809 139.398 269.098 139.326C268.841 139.254 268.584 139.222 268.296 139.165C268.07 139.15 267.852 139.078 267.662 138.957C267.49 138.845 267.349 138.691 267.252 138.51C267.156 138.329 267.106 138.127 267.108 137.922C267.098 137.61 266.996 137.308 266.817 137.053C266.637 136.798 266.387 136.601 266.098 136.486C265.823 136.387 265.526 136.365 265.239 136.422C264.982 136.478 264.734 136.51 264.477 136.582C264.758 136.606 265.007 136.606 265.263 136.654L265.239 136.735ZM223.636 93.1823C223.463 93.3326 223.257 93.4399 223.035 93.4952C222.84 93.548 222.634 93.5491 222.439 93.4985C222.243 93.4479 222.064 93.3472 221.919 93.2064C221.699 92.9861 221.42 92.8346 221.115 92.7705C220.81 92.7064 220.493 92.7324 220.203 92.8454C219.932 92.9617 219.701 93.1539 219.537 93.3989C219.392 93.6155 219.232 93.8161 219.104 94.0487C219.336 93.9204 219.537 93.7599 219.753 93.6155C219.929 93.4724 220.135 93.371 220.355 93.3187C220.556 93.2762 220.765 93.2856 220.961 93.3459C221.158 93.4063 221.336 93.5156 221.478 93.6637C221.642 93.83 221.84 93.9572 222.06 94.0355C222.28 94.1138 222.514 94.1412 222.746 94.1157C222.978 94.0902 223.2 94.0125 223.398 93.8883C223.595 93.7641 223.762 93.5968 223.885 93.3989C224.029 93.1823 224.19 92.9738 224.318 92.7411C224.077 92.7973 223.877 92.9577 223.66 93.1021L223.636 93.1823ZM265.143 122.969C264.972 123.12 264.769 123.229 264.549 123.29C264.352 123.339 264.146 123.338 263.95 123.286C263.753 123.234 263.573 123.133 263.426 122.993C263.206 122.775 262.927 122.626 262.624 122.564C262.321 122.501 262.006 122.527 261.717 122.64C261.447 122.753 261.216 122.943 261.052 123.185C260.907 123.402 260.747 123.602 260.618 123.835C260.851 123.707 261.052 123.546 261.268 123.402C261.443 123.257 261.649 123.156 261.87 123.105C262.07 123.062 262.277 123.072 262.472 123.132C262.668 123.193 262.844 123.302 262.985 123.45C263.149 123.615 263.348 123.741 263.567 123.818C263.787 123.896 264.021 123.923 264.252 123.897C264.483 123.872 264.706 123.795 264.903 123.671C265.1 123.548 265.267 123.382 265.392 123.185C265.536 122.969 265.696 122.768 265.825 122.535C265.568 122.648 265.368 122.808 265.143 122.969ZM239.255 67.383C239.084 67.5337 238.881 67.6434 238.662 67.7039C238.465 67.7572 238.258 67.7578 238.06 67.7057C237.863 67.6537 237.683 67.5507 237.539 67.4071C237.318 67.1881 237.038 67.0382 236.733 66.9755C236.428 66.9128 236.111 66.9401 235.822 67.0541C235.552 67.1674 235.32 67.357 235.156 67.5996C235.012 67.8243 234.851 68.0248 234.723 68.2574C234.955 68.1291 235.164 67.9687 235.381 67.8243C235.552 67.6801 235.756 67.5784 235.974 67.5274C236.175 67.4847 236.383 67.4932 236.579 67.552C236.775 67.6109 236.954 67.7183 237.097 67.8644C237.259 68.0326 237.458 68.1615 237.677 68.2414C237.897 68.3212 238.131 68.3499 238.364 68.3251C238.596 68.3003 238.819 68.2228 239.017 68.0985C239.215 67.9741 239.381 67.8062 239.504 67.6076C239.648 67.383 239.809 67.1825 239.937 66.9498C239.681 67.0702 239.472 67.2226 239.255 67.367V67.383ZM238.734 83.8365C238.716 84.0627 238.647 84.2821 238.533 84.4783C238.432 84.6546 238.286 84.8014 238.11 84.9041C237.934 85.0068 237.734 85.0619 237.531 85.0639C237.22 85.0659 236.917 85.1579 236.658 85.3288C236.399 85.4997 236.195 85.7421 236.071 86.0266C235.959 86.2982 235.928 86.5963 235.982 86.8849C236.038 87.1416 236.071 87.3983 236.143 87.6871C236.215 87.4304 236.247 87.1737 236.295 86.8849C236.314 86.6591 236.389 86.4414 236.512 86.2512C236.624 86.0793 236.777 85.9385 236.958 85.8417C237.139 85.745 237.341 85.6954 237.547 85.6977C237.775 85.697 238.001 85.6451 238.207 85.5458C238.413 85.4465 238.595 85.3023 238.738 85.1239C238.881 84.9454 238.982 84.7371 239.034 84.5143C239.086 84.2916 239.088 84.0599 239.039 83.8365C238.991 83.5798 238.959 83.3231 238.886 83.0343C238.83 83.3231 238.798 83.5798 238.734 83.8365ZM232.621 128.937C232.604 129.166 232.536 129.388 232.42 129.587C232.317 129.762 232.171 129.908 231.996 130.011C231.82 130.113 231.621 130.169 231.418 130.173C231.107 130.175 230.804 130.267 230.545 130.437C230.286 130.608 230.082 130.851 229.958 131.135C229.849 131.408 229.821 131.706 229.877 131.994C229.926 132.25 229.958 132.507 230.03 132.796C230.102 132.539 230.134 132.282 230.19 131.994C230.202 131.768 230.274 131.549 230.399 131.36C230.511 131.188 230.664 131.047 230.845 130.95C231.026 130.854 231.229 130.804 231.434 130.806C231.745 130.796 232.047 130.694 232.302 130.515C232.557 130.335 232.755 130.085 232.87 129.796C232.971 129.521 232.99 129.223 232.926 128.937C232.878 128.688 232.846 128.432 232.773 128.175C232.717 128.432 232.685 128.688 232.637 128.937H232.621ZM264.629 89.6285H264.501C264.189 89.629 263.884 89.7203 263.624 89.8913C263.363 90.0622 263.158 90.3054 263.033 90.5912C262.924 90.8636 262.896 91.1617 262.953 91.4495C263.001 91.7062 263.033 91.963 263.105 92.2518C263.177 91.995 263.21 91.7383 263.266 91.4495C263.282 91.2244 263.354 91.0068 263.474 90.8158C263.586 90.6439 263.74 90.5031 263.921 90.4063C264.102 90.3096 264.304 90.26 264.509 90.2623C264.651 90.2624 264.792 90.238 264.926 90.1901L264.629 89.6285ZM264.405 162.502C264.393 162.731 264.327 162.953 264.212 163.152C264.109 163.327 263.963 163.473 263.787 163.575C263.612 163.678 263.413 163.734 263.21 163.737C262.899 163.739 262.596 163.831 262.337 164.002C262.078 164.173 261.874 164.415 261.75 164.7C261.638 164.972 261.607 165.27 261.661 165.558C261.717 165.815 261.75 166.072 261.822 166.361C261.894 166.112 261.926 165.855 261.974 165.558C261.992 165.332 262.066 165.114 262.191 164.925C262.3 164.75 262.453 164.607 262.634 164.51C262.816 164.413 263.02 164.365 263.226 164.371C263.537 164.36 263.839 164.259 264.094 164.08C264.349 163.9 264.546 163.65 264.662 163.36C264.758 163.085 264.778 162.788 264.718 162.502C264.67 162.245 264.638 161.988 264.565 161.7C264.509 161.988 264.477 162.277 264.405 162.502ZM278.179 121.589C278.182 121.61 278.182 121.632 278.179 121.653C278.077 121.829 277.931 121.976 277.755 122.079C277.579 122.182 277.38 122.237 277.176 122.239C276.866 122.241 276.563 122.333 276.303 122.504C276.044 122.674 275.84 122.917 275.716 123.201C275.601 123.472 275.571 123.771 275.628 124.06C275.684 124.316 275.716 124.573 275.788 124.862C275.861 124.605 275.893 124.348 275.941 124.06C275.961 123.834 276.036 123.617 276.157 123.426C276.268 123.252 276.421 123.11 276.602 123.013C276.783 122.916 276.987 122.868 277.192 122.872C277.432 122.866 277.668 122.806 277.882 122.696C278.096 122.586 278.282 122.43 278.428 122.239L278.179 121.589ZM207.768 130.558C207.754 130.783 207.688 131.003 207.576 131.199C207.473 131.375 207.326 131.521 207.151 131.623C206.975 131.726 206.776 131.781 206.573 131.785C206.261 131.785 205.956 131.877 205.696 132.048C205.435 132.219 205.23 132.462 205.105 132.748C204.996 133.02 204.968 133.318 205.025 133.606C205.081 133.863 205.105 134.119 205.177 134.408C205.249 134.152 205.281 133.895 205.338 133.606C205.358 133.382 205.429 133.165 205.546 132.972C205.658 132.8 205.812 132.66 205.993 132.563C206.174 132.466 206.376 132.417 206.581 132.419C206.894 132.41 207.198 132.309 207.454 132.129C207.711 131.95 207.909 131.699 208.025 131.408C208.118 131.134 208.138 130.841 208.081 130.558C208.025 130.301 207.993 130.044 207.921 129.755C207.849 130.044 207.824 130.301 207.768 130.558ZM209.461 90.1339L209.052 91.4736C209.205 91.3219 209.323 91.1384 209.397 90.9361C209.486 90.6785 209.508 90.4024 209.461 90.1339ZM223.901 63.765C223.884 63.994 223.816 64.2162 223.7 64.4148C223.597 64.5902 223.451 64.7361 223.275 64.8386C223.1 64.9411 222.901 64.9969 222.698 65.0004C222.387 65.0025 222.084 65.0945 221.825 65.2654C221.566 65.4362 221.362 65.6786 221.238 65.9631C221.126 66.2348 221.095 66.5328 221.149 66.8215C221.205 67.0782 221.238 67.3349 221.31 67.6237C221.382 67.367 221.414 67.1103 221.462 66.8215C221.48 66.5954 221.554 66.3774 221.679 66.1877C221.791 66.0159 221.944 65.875 222.125 65.7783C222.306 65.6815 222.509 65.632 222.714 65.6342C223.025 65.6235 223.327 65.5222 223.582 65.3427C223.837 65.1632 224.034 64.9132 224.15 64.6234C224.246 64.3477 224.266 64.0509 224.206 63.765C224.158 63.5164 224.126 63.2596 224.053 63.0029C223.989 63.2596 223.957 63.5164 223.909 63.765H223.901ZM219.93 104.445C219.918 104.674 219.852 104.897 219.737 105.095C219.634 105.271 219.488 105.416 219.313 105.519C219.137 105.622 218.938 105.677 218.735 105.681C218.425 105.682 218.123 105.773 217.864 105.942C217.604 106.112 217.4 106.353 217.275 106.636C217.16 106.906 217.129 107.205 217.186 107.494C217.243 107.751 217.275 108.007 217.347 108.296C217.419 108.039 217.451 107.783 217.499 107.494C217.52 107.268 217.594 107.051 217.716 106.86C217.827 106.688 217.981 106.548 218.162 106.452C218.343 106.357 218.546 106.309 218.751 106.315C219.062 106.304 219.364 106.203 219.619 106.023C219.874 105.844 220.071 105.594 220.187 105.304C220.283 105.028 220.303 104.731 220.243 104.445C220.195 104.189 220.163 103.932 220.09 103.643C220.026 103.932 219.994 104.189 219.938 104.445H219.93ZM255.524 109.917C255.51 110.142 255.444 110.362 255.332 110.558C255.229 110.734 255.082 110.88 254.907 110.982C254.731 111.085 254.532 111.14 254.329 111.144C254.017 111.144 253.712 111.236 253.452 111.407C253.191 111.578 252.986 111.821 252.861 112.107C252.752 112.379 252.724 112.677 252.781 112.965C252.837 113.222 252.861 113.478 252.933 113.767C253.005 113.511 253.037 113.254 253.094 112.965C253.115 112.741 253.186 112.524 253.302 112.331C253.414 112.159 253.568 112.019 253.749 111.922C253.93 111.825 254.132 111.775 254.337 111.778C254.65 111.769 254.954 111.668 255.21 111.488C255.467 111.309 255.665 111.058 255.781 110.767C255.874 110.493 255.894 110.2 255.837 109.917C255.781 109.66 255.749 109.403 255.677 109.114C255.58 109.403 255.58 109.66 255.532 109.917H255.524ZM222.633 155.595C222.617 155.821 222.548 156.041 222.433 156.237C222.331 156.413 222.185 156.56 222.009 156.662C221.833 156.765 221.634 156.82 221.43 156.822C221.12 156.824 220.817 156.916 220.557 157.087C220.298 157.258 220.094 157.5 219.97 157.785C219.858 158.056 219.83 158.356 219.89 158.643C219.938 158.9 219.97 159.157 220.042 159.445C220.114 159.189 220.147 158.932 220.195 158.643C220.215 158.418 220.29 158.2 220.411 158.009C220.523 157.838 220.677 157.697 220.858 157.6C221.039 157.503 221.241 157.454 221.446 157.456C221.675 157.455 221.901 157.403 222.107 157.304C222.313 157.205 222.494 157.061 222.637 156.882C222.78 156.704 222.882 156.495 222.934 156.273C222.986 156.05 222.987 155.818 222.938 155.595C222.89 155.338 222.858 155.081 222.786 154.793C222.69 155.057 222.69 155.338 222.641 155.595H222.633ZM250.238 95.7976C250.408 95.6467 250.612 95.5369 250.831 95.4767C251.028 95.4273 251.235 95.4287 251.431 95.4806C251.627 95.5325 251.808 95.6333 251.954 95.7735C252.174 95.9923 252.452 96.1428 252.755 96.2069C253.059 96.2709 253.374 96.2458 253.663 96.1345C253.934 96.0182 254.165 95.8259 254.329 95.581C254.473 95.3644 254.634 95.1638 254.762 94.9312C254.53 95.0595 254.329 95.22 254.112 95.3644C253.938 95.5089 253.732 95.6106 253.511 95.6612C253.311 95.7038 253.103 95.6945 252.908 95.6341C252.713 95.5737 252.537 95.4642 252.396 95.3162C252.232 95.1513 252.033 95.0254 251.813 94.948C251.594 94.8706 251.36 94.8436 251.129 94.869C250.897 94.8945 250.675 94.9717 250.478 95.0949C250.28 95.2182 250.113 95.3843 249.989 95.581C249.845 95.7976 249.684 95.9981 249.556 96.2308C249.821 96.1024 250.021 95.942 250.246 95.7976H250.238ZM229.468 114.602C229.641 114.451 229.848 114.344 230.07 114.289C230.266 114.236 230.473 114.235 230.669 114.285C230.866 114.336 231.047 114.437 231.193 114.577C231.413 114.796 231.691 114.947 231.994 115.011C232.297 115.075 232.613 115.05 232.902 114.938C233.173 114.822 233.404 114.63 233.568 114.385C233.712 114.168 233.872 113.968 234.001 113.735C233.768 113.863 233.568 114.024 233.351 114.168C233.176 114.313 232.97 114.415 232.749 114.465C232.548 114.507 232.34 114.497 232.144 114.437C231.947 114.377 231.769 114.268 231.626 114.12C231.463 113.954 231.264 113.827 231.044 113.748C230.825 113.67 230.59 113.643 230.359 113.668C230.127 113.694 229.904 113.771 229.707 113.896C229.509 114.02 229.343 114.187 229.22 114.385C229.075 114.602 228.915 114.81 228.786 115.043C229.059 114.946 229.26 114.746 229.476 114.602H229.468ZM215.405 142.31C215.578 142.162 215.781 142.053 215.999 141.989C216.196 141.94 216.402 141.941 216.599 141.993C216.795 142.045 216.975 142.146 217.122 142.286C217.343 142.505 217.623 142.655 217.928 142.718C218.233 142.78 218.549 142.753 218.839 142.639C219.109 142.526 219.341 142.336 219.505 142.093C219.649 141.877 219.81 141.668 219.938 141.436C219.705 141.572 219.505 141.724 219.28 141.869C219.112 142.019 218.907 142.122 218.687 142.166C218.486 142.212 218.277 142.205 218.08 142.146C217.884 142.086 217.705 141.977 217.563 141.829C217.336 141.615 217.05 141.472 216.743 141.418C216.435 141.364 216.118 141.4 215.831 141.524C215.567 141.649 215.345 141.847 215.189 142.093C215.044 142.31 214.884 142.511 214.756 142.743C214.996 142.615 215.197 142.454 215.413 142.31H215.405ZM221.494 171.102C221.666 170.953 221.869 170.846 222.088 170.789C222.284 170.736 222.491 170.735 222.687 170.786C222.884 170.836 223.065 170.937 223.211 171.078C223.431 171.298 223.711 171.449 224.016 171.514C224.321 171.578 224.637 171.552 224.928 171.439C225.199 171.322 225.43 171.13 225.594 170.885C225.738 170.668 225.898 170.468 226.027 170.235C225.794 170.364 225.594 170.524 225.369 170.668C225.197 170.813 224.994 170.914 224.775 170.965C224.574 171.009 224.365 171 224.169 170.939C223.972 170.879 223.794 170.769 223.652 170.62C223.489 170.454 223.29 170.327 223.07 170.249C222.851 170.17 222.616 170.143 222.385 170.168C222.153 170.194 221.93 170.272 221.733 170.396C221.535 170.52 221.369 170.687 221.246 170.885C221.101 171.102 220.941 171.31 220.812 171.535C221.085 171.398 221.278 171.238 221.494 171.102ZM248.714 139.47C248.884 139.319 249.087 139.21 249.307 139.149C249.504 139.1 249.711 139.101 249.907 139.153C250.103 139.205 250.283 139.306 250.43 139.446C250.651 139.665 250.931 139.815 251.236 139.878C251.541 139.94 251.857 139.913 252.147 139.799C252.415 139.686 252.644 139.496 252.805 139.254C252.949 139.037 253.11 138.828 253.246 138.596C253.013 138.732 252.805 138.885 252.588 139.029C252.418 139.18 252.21 139.282 251.987 139.326C251.787 139.372 251.58 139.365 251.384 139.306C251.189 139.247 251.012 139.137 250.871 138.989C250.644 138.775 250.358 138.632 250.051 138.578C249.743 138.524 249.426 138.561 249.139 138.684C248.871 138.807 248.646 139.005 248.489 139.254C248.344 139.47 248.192 139.671 248.056 139.903C248.288 139.767 248.497 139.607 248.714 139.462V139.47ZM267.445 150.934C267.618 150.786 267.821 150.677 268.039 150.613C268.236 150.564 268.442 150.565 268.639 150.617C268.835 150.669 269.015 150.77 269.162 150.91C269.383 151.129 269.663 151.279 269.968 151.341C270.273 151.404 270.589 151.377 270.879 151.263C271.149 151.15 271.38 150.96 271.545 150.717C271.689 150.501 271.849 150.3 271.978 150.068C271.745 150.196 271.545 150.356 271.32 150.501C271.148 150.645 270.945 150.747 270.726 150.798C270.525 150.841 270.316 150.832 270.12 150.771C269.923 150.711 269.745 150.601 269.603 150.453C269.44 150.286 269.241 150.159 269.021 150.081C268.802 150.003 268.567 149.975 268.336 150.001C268.104 150.026 267.881 150.104 267.684 150.228C267.486 150.352 267.32 150.519 267.197 150.717C267.052 150.934 266.892 151.134 266.763 151.367C267.02 151.231 267.229 151.046 267.445 150.926V150.934ZM235.934 159.63C236.106 159.481 236.309 159.371 236.528 159.309C236.725 159.26 236.931 159.261 237.128 159.313C237.324 159.365 237.504 159.466 237.651 159.606C237.872 159.825 238.152 159.975 238.457 160.038C238.762 160.1 239.078 160.073 239.368 159.959C239.638 159.846 239.869 159.656 240.034 159.413C240.178 159.197 240.33 158.988 240.467 158.756C240.234 158.892 240.025 159.052 239.809 159.197C239.635 159.343 239.429 159.444 239.207 159.494C239.007 159.536 238.8 159.527 238.605 159.466C238.41 159.406 238.233 159.297 238.092 159.149C237.864 158.935 237.579 158.792 237.271 158.738C236.963 158.683 236.646 158.72 236.359 158.844C236.098 158.972 235.876 159.169 235.718 159.413C235.573 159.63 235.413 159.831 235.276 160.063C235.525 159.935 235.718 159.774 235.934 159.63ZM276.575 171.102C276.746 170.953 276.949 170.846 277.168 170.789C277.364 170.736 277.571 170.735 277.768 170.786C277.964 170.836 278.145 170.937 278.291 171.078C278.511 171.298 278.791 171.449 279.096 171.514C279.401 171.578 279.718 171.552 280.008 171.439C280.279 171.322 280.51 171.13 280.674 170.885C280.818 170.668 280.979 170.468 281.107 170.235C280.874 170.364 280.674 170.524 280.449 170.668C280.277 170.813 280.074 170.914 279.856 170.965C279.654 171.008 279.446 170.998 279.249 170.938C279.053 170.878 278.875 170.768 278.732 170.62C278.569 170.454 278.37 170.327 278.151 170.249C277.931 170.17 277.697 170.143 277.465 170.168C277.233 170.194 277.01 170.272 276.813 170.396C276.616 170.52 276.449 170.687 276.326 170.885C276.181 171.102 276.021 171.31 275.893 171.535C276.157 171.398 276.358 171.238 276.575 171.102ZM283.794 139.944C283.603 139.887 283.429 139.782 283.289 139.639C283.126 139.472 282.927 139.345 282.707 139.267C282.488 139.189 282.253 139.161 282.021 139.187C281.79 139.212 281.567 139.29 281.369 139.414C281.172 139.538 281.006 139.706 280.882 139.903C280.738 140.12 280.578 140.321 280.449 140.553C280.682 140.425 280.882 140.264 281.099 140.12C281.272 139.972 281.474 139.863 281.693 139.799C281.89 139.75 282.096 139.751 282.292 139.803C282.489 139.855 282.669 139.956 282.816 140.096C283.111 140.393 283.512 140.563 283.931 140.569L283.794 139.944ZM206.902 163.601C207.075 163.453 207.277 163.344 207.496 163.28C207.693 163.231 207.899 163.232 208.095 163.284C208.292 163.336 208.472 163.437 208.619 163.577C208.839 163.797 209.119 163.949 209.423 164.013C209.728 164.077 210.045 164.051 210.335 163.938C210.606 163.822 210.838 163.629 211.001 163.384C211.146 163.168 211.306 162.967 211.434 162.735C211.202 162.863 211.001 163.023 210.777 163.168C210.605 163.312 210.401 163.414 210.183 163.465C209.982 163.507 209.773 163.498 209.577 163.437C209.38 163.377 209.202 163.268 209.06 163.12C208.897 162.953 208.698 162.826 208.478 162.748C208.259 162.669 208.024 162.642 207.792 162.668C207.561 162.693 207.338 162.771 207.14 162.895C206.943 163.019 206.777 163.186 206.653 163.384C206.509 163.601 206.348 163.81 206.22 164.034C206.517 163.882 206.717 163.737 206.934 163.593L206.902 163.601ZM204.584 115.267C204.752 115.114 204.956 115.004 205.177 114.946C205.374 114.893 205.581 114.893 205.778 114.945C205.976 114.997 206.156 115.1 206.3 115.243C206.521 115.462 206.801 115.612 207.106 115.675C207.411 115.738 207.727 115.71 208.017 115.596C208.285 115.483 208.514 115.293 208.675 115.051C208.819 114.826 208.98 114.626 209.116 114.393C208.883 114.521 208.675 114.682 208.458 114.826C208.288 114.978 208.08 115.081 207.857 115.123C207.657 115.167 207.45 115.16 207.255 115.101C207.06 115.042 206.883 114.933 206.742 114.786C206.514 114.572 206.228 114.429 205.921 114.375C205.613 114.321 205.296 114.358 205.009 114.481C204.744 114.604 204.519 114.798 204.359 115.043C204.215 115.267 204.062 115.468 203.926 115.701C204.19 115.564 204.399 115.404 204.616 115.259L204.584 115.267Z" fill="white"/>
<path d="M209.694 88.5299C208.811 91.7388 207.956 94.9476 207.127 98.1565C207.231 96.7526 207.383 95.3568 207.568 93.9609C207.568 93.8807 207.456 93.8406 207.431 93.9609C207.09 95.6926 206.899 97.4507 206.862 99.2154C205.867 103.093 204.937 106.984 204.07 110.888C202.426 118.372 200.958 125.921 199.738 133.486C199.056 137.762 198.527 142.054 197.797 146.322C197.797 146.402 197.909 146.434 197.925 146.322C198.591 142.543 199.481 138.789 200.332 135.034C201.182 131.28 201.936 127.574 202.738 123.843C204.295 116.327 205.947 108.834 207.488 101.325C208.362 97.0895 209.172 92.8458 210.047 88.6181C210.052 88.595 210.054 88.5709 210.05 88.5472C210.047 88.5236 210.038 88.5009 210.026 88.4804C210.001 88.439 209.961 88.4092 209.914 88.3975C209.868 88.3858 209.818 88.3932 209.777 88.418C209.735 88.4428 209.705 88.4831 209.694 88.5299Z" fill="#263238"/>
<path d="M225.265 84.2298C231.073 84.2298 238.461 73.5122 240.507 65.7788C240.643 65.2494 234.185 47.0631 233.287 43.3168C233.102 42.5146 211.234 54.6922 211.234 54.6922C211.234 54.6922 215.438 61.9683 216.978 68.4903C217.122 69.076 219.649 84.2539 225.265 84.2298Z" fill="#D3766A"/>
<path d="M219.681 69.9102C218.923 70.1208 218.147 70.2631 217.363 70.3354C217.267 69.8781 217.186 69.493 217.13 69.1962C217.133 69.183 217.133 69.1693 217.13 69.1561C217.134 69.1214 217.134 69.0865 217.13 69.0518C217.13 68.9395 217.09 68.8192 217.058 68.6988C217.062 68.6749 217.062 68.6506 217.058 68.6266V68.5304C216.703 67.0729 216.263 65.6372 215.742 64.2305C214.721 61.5068 213.526 58.8514 212.164 56.2805C212.052 56.0666 211.948 55.874 211.852 55.7029L211.338 54.7563L211.916 54.4274L212.718 54.0022L213.231 53.7214L213.865 53.3685L214.451 53.0476L214.563 52.9834L215.365 52.5662L215.542 52.47L216.304 52.0528L216.705 51.8362L217.94 51.1624L218.887 50.649L219.689 50.2157L222.433 48.7397L223.315 48.2583L226.484 46.5897L227.166 46.2368L227.503 45.956L228.04 45.6752L229.196 45.0896L229.901 44.7366C230.246 44.5601 230.567 44.4077 230.872 44.2633C231.025 44.1831 231.177 44.1189 231.313 44.0547C231.731 43.8542 232.116 43.6937 232.388 43.5734L232.581 43.4932C232.854 49.8467 232.316 66.5248 219.681 69.9102Z" fill="#263238"/>
<path d="M226.749 15.2071C231.923 22.4993 235.453 47.352 231.426 54.5158C225.586 64.8804 212.132 70.167 202.345 62.2572C192.863 54.596 188.844 22.1463 193.706 15.2152C200.861 5.04305 219.096 4.44941 226.749 15.2071Z" fill="#D3766A"/>
<path d="M208.25 37.1317C208.25 37.0595 208.386 37.1878 208.394 37.26C208.587 38.9367 209.092 40.8299 210.688 41.1668C210.737 41.1668 210.745 41.2631 210.688 41.2631C208.763 41.2952 208.121 38.7762 208.25 37.1317Z" fill="#263238"/>
<path d="M209.445 35.1822C212.108 34.5885 213.111 39.9955 210.64 40.5089C208.17 41.0223 207.215 35.6876 209.445 35.1822Z" fill="#263238"/>
<path d="M199.072 39.1213C199.072 39.0571 198.96 39.2176 198.968 39.2898C199.337 40.9423 199.473 42.8917 198.07 43.726C198.029 43.726 198.07 43.8383 198.07 43.8223C199.891 43.2206 199.682 40.6294 199.072 39.1213Z" fill="#263238"/>
<path d="M197.267 37.6612C194.556 37.958 195.342 43.3569 197.861 43.0841C200.38 42.8114 199.538 37.4125 197.267 37.6612Z" fill="#263238"/>
<path d="M211.106 32.3184C210.362 32.2445 209.623 32.1293 208.891 31.9735C208.09 31.9587 207.316 31.6764 206.693 31.1712C206.529 30.9759 206.433 30.7323 206.42 30.4774C206.407 30.2226 206.478 29.9704 206.621 29.7593C206.973 29.3916 207.416 29.1237 207.905 28.9827C208.394 28.8418 208.911 28.833 209.405 28.9571C210.444 29.0554 211.41 29.5356 212.116 30.3049C212.27 30.4885 212.367 30.713 212.395 30.9509C212.422 31.1888 212.38 31.4296 212.272 31.6437C212.165 31.8577 211.997 32.0356 211.79 32.1555C211.583 32.2754 211.345 32.3321 211.106 32.3184Z" fill="#263238"/>
<path d="M194.684 35.3428C195.377 35.0633 196.054 34.7473 196.714 34.3962C197.475 34.1568 198.137 33.675 198.599 33.0244C198.703 32.7915 198.728 32.5306 198.668 32.2825C198.609 32.0343 198.469 31.8128 198.27 31.6526C197.831 31.3944 197.331 31.2583 196.822 31.2583C196.313 31.2583 195.813 31.3944 195.374 31.6526C194.398 32.0305 193.601 32.7643 193.144 33.7063C193.051 33.9256 193.023 34.1673 193.065 34.4019C193.107 34.6365 193.217 34.8538 193.38 35.0273C193.543 35.2008 193.753 35.3231 193.985 35.3791C194.217 35.4351 194.46 35.4225 194.684 35.3428Z" fill="#263238"/>
<path d="M213.063 52.1893C212.742 52.6546 212.445 53.2643 211.852 53.4247C211.23 53.5304 210.593 53.5031 209.982 53.3445C209.97 53.3391 209.956 53.3385 209.943 53.3428C209.93 53.3471 209.919 53.356 209.912 53.3679C209.905 53.3797 209.903 53.3936 209.905 53.407C209.908 53.4205 209.915 53.4325 209.926 53.4408C210.225 53.7233 210.594 53.9196 210.996 54.0086C211.397 54.0976 211.815 54.076 212.205 53.9462C212.527 53.7957 212.797 53.5531 212.981 53.2489C213.166 52.9447 213.255 52.5927 213.239 52.2374C213.247 52.1332 213.111 52.1251 213.063 52.1893Z" fill="#263238"/>
<path d="M210.392 47.5606C210.09 48.2949 209.64 48.959 209.07 49.5112C208.5 50.0634 207.822 50.4918 207.078 50.7695C206.434 51.0239 205.755 51.1834 205.065 51.2428C204.931 51.2544 204.797 51.2544 204.664 51.2428C204.541 51.251 204.418 51.251 204.295 51.2428C204.203 51.2431 204.113 51.2135 204.039 51.1586C203.966 51.1036 203.912 51.0262 203.886 50.938C203.881 50.8819 203.881 50.8256 203.886 50.7695V50.6251C203.613 49.3496 203.372 47.4162 203.372 47.4162C202.947 47.7371 200.765 49.2533 200.677 48.5794C199.971 42.9639 199.185 36.7547 199.666 31.0349C199.674 30.9995 199.694 30.9678 199.722 30.9452C199.751 30.9225 199.786 30.9102 199.822 30.9102C199.859 30.9102 199.894 30.9225 199.922 30.9452C199.951 30.9678 199.971 30.9995 199.979 31.0349C200.869 36.3937 200.781 41.8649 201.623 47.2558C202.396 46.702 203.245 46.2617 204.142 45.9482C204.335 45.9482 204.535 49.7587 204.704 50.3202V50.3844C206.902 50.2561 208.402 49.3014 210.223 47.4644C210.311 47.3039 210.464 47.3922 210.392 47.5606Z" fill="#263238"/>
<path d="M205.699 50.4486C206.569 51.2376 207.627 51.7901 208.771 52.053C209.401 52.1708 210.051 52.0895 210.632 51.8204C211.892 51.2268 211.699 49.9994 211.258 49.0046C211.022 48.476 210.723 47.9777 210.368 47.5205C209.164 48.97 207.528 49.996 205.699 50.4486Z" fill="#263238"/>
<path d="M208.771 52.0289C209.401 52.1467 210.051 52.0654 210.632 51.7962C211.892 51.2026 211.699 49.9752 211.258 48.9805C209.854 49.3976 208.635 50.625 208.771 52.0289Z" fill="#FF99BA"/>
<path opacity="0.2" d="M225.818 25.6438C227.471 27.7376 231.081 32.7594 232.308 32.8236C231.041 24.7293 228.979 17.6617 225.754 13.8993C224.42 12.3455 222.813 11.0486 221.013 10.0728C221.478 12.2067 224.061 23.4938 225.818 25.6438Z" fill="#263238"/>
<path d="M201.704 20.7261C202.704 21.6643 203.929 22.3303 205.26 22.6603C206.592 22.9904 207.986 22.9735 209.309 22.6113C210.664 22.2429 211.902 21.5333 212.905 20.5502C213.907 19.5671 214.641 18.3434 215.036 16.9958C215.036 16.9788 215.043 16.9625 215.055 16.9504C215.067 16.9384 215.084 16.9316 215.101 16.9316C215.118 16.9316 215.134 16.9384 215.146 16.9504C215.158 16.9625 215.165 16.9788 215.165 16.9958C214.868 18.442 214.184 19.7801 213.184 20.8669C212.185 21.9536 210.909 22.748 209.493 23.1649C208.077 23.4943 206.599 23.4453 205.208 23.0229C203.817 22.6004 202.561 21.8194 201.567 20.7582C201.574 20.7469 201.583 20.737 201.593 20.7291C201.604 20.7213 201.616 20.7157 201.628 20.7127C201.641 20.7097 201.655 20.7094 201.667 20.7117C201.68 20.714 201.693 20.7189 201.704 20.7261Z" fill="#263238"/>
<path d="M207.752 0.053122C212.397 -0.364031 216.938 1.72173 218.983 4.68994C220.126 6.37732 220.663 8.40196 220.508 10.4338C220.508 10.514 220.339 10.514 220.339 10.4338C220.238 8.66296 219.664 6.9516 218.677 5.47839C217.689 4.00519 216.324 2.82418 214.724 2.05866C212.963 1.16538 211.019 0.693176 209.045 0.679254C207.071 0.665333 205.121 1.11008 203.348 1.97844C201.612 2.78388 200.22 4.18381 199.425 5.92536C199.353 6.10184 198.992 6.02963 199.048 5.85315C199.955 2.81275 203.549 0.438186 207.752 0.053122Z" fill="#263238"/>
<path d="M181.977 13.1293C182.477 10.7555 183.802 8.6354 185.715 7.14478C188.355 5.06704 191.604 4.96275 194.821 4.93066C194.909 4.93066 194.917 5.06704 194.821 5.06704C192.077 5.10715 189.293 5.30771 186.943 6.86401C184.992 8.1377 183.543 10.0486 182.843 12.2709C182.191 14.5479 182.379 16.9838 183.375 19.1331C184.371 21.2823 186.107 23.0012 188.266 23.9753C189.525 24.5029 190.878 24.7673 192.243 24.7521C193.607 24.7369 194.954 24.4425 196.2 23.8871C196.297 23.8469 196.393 23.9833 196.289 24.0315C194.612 24.8554 192.738 25.1959 190.878 25.0148C189.018 24.8338 187.246 24.1383 185.759 23.0064C184.272 21.8745 183.13 20.3509 182.461 18.6063C181.791 16.8618 181.621 14.9652 181.969 13.1293H181.977Z" fill="#263238"/>
<path d="M229.34 20.5177C229.34 20.5177 232.765 11.6933 228.538 7.36133C226.131 4.89051 219.272 6.05372 219.272 6.05372C218.194 4.79613 216.878 3.76444 215.399 3.01818C213.92 2.27191 212.308 1.82584 210.656 1.7057C204.72 1.0559 198.238 5.24348 198.238 5.24348C198.238 5.24348 192.374 2.74057 187.569 6.28637C180.878 11.228 183.06 22.0499 190.689 24.7374C196.056 26.6065 202.41 21.3119 202.41 21.3119C203.083 21.3119 210.344 24.609 214.764 17.9586C214.764 17.9586 219.36 21.1675 222.786 18.1431C223.503 19.1632 224.517 19.9381 225.689 20.3628C226.861 20.7876 228.136 20.8416 229.34 20.5177Z" fill="#263238"/>
<path d="M211.731 44.4396C210.782 44.5004 209.83 44.3731 208.93 44.065C208.031 43.7569 207.201 43.274 206.488 42.6441C205.775 42.0142 205.194 41.2497 204.778 40.3945C204.362 39.5393 204.118 38.6103 204.062 37.6609C203.979 36.3131 204.274 34.969 204.916 33.781C205.558 32.5931 206.521 31.609 207.694 30.9405C208.867 30.272 210.204 29.9459 211.554 29.9993C212.903 30.0527 214.21 30.4833 215.327 31.2424C216.444 32.0014 217.325 33.0585 217.871 34.2934C218.417 35.5283 218.606 36.8917 218.416 38.2286C218.227 39.5655 217.666 40.8224 216.797 41.8565C215.929 42.8905 214.788 43.6604 213.504 44.0786C212.931 44.2735 212.335 44.3948 211.731 44.4396ZM205.041 37.5967C205.118 38.8331 205.559 40.0191 206.31 41.0045C207.061 41.99 208.087 42.7309 209.258 43.1334C210.43 43.5359 211.695 43.5821 212.892 43.266C214.09 42.95 215.168 42.2859 215.988 41.3578C216.809 40.4297 217.336 39.2791 217.502 38.0516C217.669 36.824 217.468 35.5745 216.925 34.4611C216.382 33.3477 215.521 32.4203 214.451 31.7961C213.381 31.1719 212.15 30.879 210.913 30.9543C210.393 30.9885 209.878 31.0855 209.381 31.2431C208.056 31.6723 206.911 32.529 206.126 33.6788C205.34 34.8286 204.959 36.2066 205.041 37.5967Z" fill="#30C29F"/>
<path d="M196.722 47.3358C193.81 47.9054 190.809 45.1859 190.047 41.2711C189.667 39.5055 189.849 37.6651 190.569 36.0085C190.836 35.2795 191.287 34.6317 191.878 34.1278C192.469 33.6238 193.179 33.2807 193.941 33.1315C194.703 32.9823 195.491 33.0321 196.228 33.2761C196.965 33.5201 197.627 33.95 198.15 34.5244C199.44 35.7849 200.304 37.4174 200.621 39.1933C201.343 42.8996 199.818 46.4133 197.179 47.2155C197.029 47.265 196.877 47.3052 196.722 47.3358ZM191.451 36.4176C190.813 37.8874 190.653 39.5208 190.994 41.0865C191.66 44.4719 194.147 46.8545 196.537 46.3892C198.928 45.9239 200.332 42.7792 199.674 39.3858C199.394 37.8083 198.632 36.3563 197.492 35.2304C197.063 34.7833 196.533 34.4457 195.947 34.2461C195.361 34.0464 194.735 33.9906 194.123 34.0832C194.002 34.1012 193.884 34.1308 193.77 34.1714C193.249 34.3648 192.774 34.6643 192.375 35.051C191.975 35.4377 191.661 35.9031 191.451 36.4176Z" fill="#30C29F"/>
<path d="M204.463 38.431L204.937 37.5887C203.677 36.8908 200.925 36.1607 199.578 38.3909L200.38 38.9043C201.623 36.9068 204.351 38.3749 204.463 38.431Z" fill="#30C29F"/>
<path d="M236.472 34.0588L237.234 33.4572C236.953 33.1042 234.426 30.0077 232.236 30.0799C230.198 30.1521 217.7 33.8342 217.17 33.9947L217.443 34.9252C221.029 33.8583 230.688 31.0987 232.268 31.0425C233.712 31.0024 235.79 33.2085 236.472 34.0588Z" fill="#30C29F"/>
<path d="M228.105 35.9762C228.105 35.9762 231.065 26.7025 235.116 27.5048C239.167 28.307 238.598 40.6371 235.004 43.4127C234.568 43.8006 234.058 44.0962 233.505 44.2818C232.952 44.4674 232.366 44.5392 231.785 44.4927C231.203 44.4462 230.637 44.2825 230.12 44.0114C229.604 43.7404 229.147 43.3675 228.778 42.9154L228.105 35.9762Z" fill="#D3766A"/>
<path d="M234.867 31.0347C234.931 31.0347 234.972 31.0988 234.923 31.139C232.428 33.1766 231.755 36.2892 231.554 39.3537C232.075 38.038 233.046 37.0994 234.763 37.669C234.859 37.669 234.819 37.8375 234.763 37.8455C234.212 37.842 233.673 38.0089 233.221 38.3235C232.769 38.638 232.425 39.0847 232.236 39.6024C231.928 40.4698 231.715 41.3682 231.602 42.2818C231.546 42.5786 231.049 42.5866 231.057 42.2818V42.2096C229.837 38.5755 231.081 32.615 234.867 31.0347Z" fill="#263238"/>
<path d="M255.813 71.1779C271.36 87.8319 308.35 150.325 296.357 161.828C284.364 173.332 217.82 157.817 199.128 148.937C193.561 146.289 214.691 111.618 221.23 110.807C226.669 110.134 254.489 122.841 255.292 121.236C256.206 119.431 249.885 107.823 243.194 83.6523C235.477 55.8234 248.946 63.8215 255.813 71.1779Z" fill="#D3766A"/>
<path d="M193.601 99.6326C180.092 97.7554 176.329 99.3438 165.772 91.6987C158.841 86.6848 152.664 88.9551 156.611 96.9292C163.085 109.965 180.012 116.054 186.486 116.479L193.601 99.6326Z" fill="#D3766A"/>
<path d="M229.5 112.645C229.5 112.645 214.314 104.213 200.115 100.78C190.288 98.4132 168.347 95.6296 147.353 117.281C142.372 122.424 138.914 133.27 150.097 127.839C158.039 123.972 161.906 119.126 166.944 117.723C166.944 117.723 164.192 132.05 169.527 136.831C174.197 141.018 179.159 144.868 184.376 148.351C185.231 147.541 186.034 146.678 186.782 145.768C186.782 145.768 192.197 149.779 202.377 148.801L229.5 112.645Z" fill="#D3766A"/>
<path d="M190.376 100.018C185.683 102.464 175.816 107.823 169.27 115.011C162.002 122.993 150.145 140.337 156.09 145.648C160.454 149.538 165.564 143.313 165.564 143.313C165.564 143.313 162.178 151.512 166.887 154.167C171.179 156.574 174.837 151.536 174.837 151.536C174.837 151.536 173.642 156.863 178.223 158.395C183.734 160.24 185.346 148.768 192.542 145.808C194.155 145.15 190.376 100.018 190.376 100.018Z" fill="#D3766A"/>
<path d="M178.985 121.284C174.974 124.317 167.537 133.542 165.492 143.097C165.443 143.313 165.58 143.466 165.668 143.281C169.226 135.458 173.725 128.098 179.065 121.364C179.097 121.308 179.033 121.252 178.985 121.284Z" fill="#263238"/>
<path d="M186.839 128.857C183.63 131.833 176.41 141.693 174.661 151.439C174.621 151.656 174.773 151.8 174.853 151.608C177.997 143.617 182.034 136.006 186.887 128.921C186.951 128.873 186.879 128.825 186.839 128.857Z" fill="#263238"/>
<path d="M166.936 117.634C162.531 118.934 159.667 121.091 155.945 123.675C154.123 124.977 152.229 126.177 150.273 127.269C148.476 128.239 145.837 129.675 143.92 128.183C142.861 127.341 142.877 125.776 143.118 124.589C143.373 123.218 143.92 121.919 144.722 120.779C144.762 120.722 144.666 120.65 144.626 120.706C143.867 121.7 143.254 122.797 142.805 123.963C142.326 125.044 142.186 126.244 142.404 127.405C143.054 129.812 145.917 130.149 147.939 129.483C149.15 129.041 150.314 128.48 151.413 127.806C152.48 127.188 153.514 126.531 154.533 125.841C156.627 124.421 158.641 122.888 160.718 121.452C162.736 120.095 164.839 118.87 167.016 117.786C167.036 117.776 167.051 117.757 167.058 117.736C167.065 117.714 167.062 117.69 167.052 117.67C167.041 117.65 167.023 117.635 167.001 117.628C166.979 117.621 166.956 117.623 166.936 117.634Z" fill="#263238"/>
<path d="M157.71 133.133C158.849 130.622 165.018 120.161 167.024 117.738C167.031 117.726 167.034 117.712 167.033 117.697C167.031 117.683 167.025 117.67 167.014 117.659C167.004 117.649 166.991 117.643 166.977 117.641C166.962 117.639 166.948 117.643 166.936 117.65C163.502 120.907 157.983 129.547 156.699 132.323C155.416 135.098 153.964 138.556 153.964 141.604C153.964 146.209 157.012 147.075 158.143 147.3C159.482 147.544 160.864 147.32 162.058 146.666C163.456 145.805 164.665 144.67 165.612 143.329C165.66 143.265 165.572 143.177 165.516 143.241C163.911 145.054 161.272 146.843 158.777 146.514C158.224 146.461 157.688 146.298 157.198 146.035C156.709 145.772 156.278 145.414 155.929 144.982C155.247 143.874 154.985 142.559 155.191 141.275C155.56 138.437 156.412 135.684 157.71 133.133Z" fill="#263238"/>
<path d="M174.661 151.439C174.019 151.985 172.703 153.894 170.61 154.303C169.866 154.506 169.085 154.524 168.333 154.356C167.581 154.188 166.881 153.84 166.294 153.341C165.215 152.215 164.619 150.712 164.633 149.153C164.807 147.201 165.129 145.265 165.596 143.361C165.596 143.273 165.508 143.233 165.484 143.321C164.714 145.316 164.246 147.414 164.096 149.546C164.067 150.39 164.208 151.232 164.511 152.02C164.814 152.808 165.273 153.528 165.861 154.135C166.493 154.729 167.277 155.137 168.126 155.314C168.975 155.491 169.857 155.43 170.674 155.138C171.476 154.833 174.083 153.172 174.829 151.536C174.853 151.495 174.693 151.415 174.661 151.439Z" fill="#263238"/>
<path d="M192.109 144.981C191.401 145.456 190.747 146.008 190.16 146.626C189.51 147.252 188.884 147.902 188.282 148.559C187.064 149.896 185.989 151.356 185.074 152.915C184.143 154.48 183.285 156.221 181.768 157.304C181.049 157.852 180.175 158.16 179.27 158.183C178.366 158.206 177.477 157.943 176.731 157.432C175.944 156.86 175.378 156.036 175.126 155.097C174.826 154.078 174.728 153.01 174.837 151.953C174.837 151.936 174.831 151.919 174.819 151.907C174.806 151.895 174.79 151.889 174.773 151.889C174.756 151.889 174.74 151.895 174.728 151.907C174.716 151.919 174.709 151.936 174.709 151.953C174.542 152.893 174.467 153.846 174.484 154.801C174.567 155.668 174.877 156.498 175.383 157.207C175.929 157.904 176.657 158.437 177.486 158.747C178.316 159.057 179.214 159.132 180.084 158.964C182.009 158.611 183.413 157.167 184.464 155.603C185.619 153.862 186.582 152.009 187.825 150.316C188.475 149.426 189.117 148.527 189.831 147.685C190.545 146.843 191.435 146.024 192.157 145.11C192.27 145.038 192.205 144.933 192.109 144.981Z" fill="#263238"/>
<path d="M197.492 148.912C194.978 148.636 192.496 148.12 190.079 147.372C189.999 147.372 189.895 147.565 189.967 147.605C191.135 148.14 192.36 148.544 193.617 148.808C194.884 149.081 196.185 149.162 197.476 149.049C197.54 149.041 197.572 148.92 197.492 148.912Z" fill="#263238"/>
<path d="M280.449 133.398C272.694 128.148 264.195 124.092 255.236 121.364C252.701 120.562 250.141 119.888 247.582 119.19C247.57 119.195 247.559 119.203 247.552 119.214C247.545 119.225 247.541 119.237 247.541 119.251C247.541 119.264 247.545 119.276 247.552 119.287C247.559 119.298 247.57 119.306 247.582 119.311C252.042 120.703 256.418 122.348 260.691 124.236C264.969 126.076 269.194 127.991 273.366 129.98C275.772 131.111 278.051 132.347 280.385 133.55C280.395 133.56 280.408 133.567 280.422 133.571C280.435 133.575 280.45 133.575 280.464 133.572C280.478 133.569 280.491 133.563 280.502 133.554C280.513 133.545 280.521 133.533 280.527 133.52C280.532 133.507 280.535 133.493 280.533 133.479C280.532 133.464 280.528 133.451 280.52 133.439C280.512 133.427 280.502 133.417 280.49 133.409C280.477 133.402 280.463 133.398 280.449 133.398Z" fill="#263238"/>
<path d="M287.669 110.454L249.925 109.203C249.925 109.203 242.897 90.5752 240.226 74.0014C237.555 57.4276 251.128 62.4896 265.295 80.2347C279.462 97.9797 287.669 110.454 287.669 110.454Z" fill="#30C29F"/>
<path d="M254.12 95.3644C253.946 95.5089 253.74 95.6106 253.519 95.6612C253.319 95.7038 253.111 95.6945 252.916 95.6341C252.721 95.5737 252.545 95.4643 252.404 95.3163C252.24 95.1513 252.041 95.0255 251.821 94.9481C251.602 94.8706 251.368 94.8436 251.137 94.8691C250.905 94.8945 250.683 94.9717 250.486 95.095C250.288 95.2182 250.121 95.3843 249.997 95.581C249.853 95.7976 249.692 95.9982 249.564 96.2308C249.796 96.1025 249.997 95.942 250.222 95.7976C250.392 95.6467 250.596 95.5369 250.815 95.4767C251.012 95.4274 251.219 95.4287 251.415 95.4806C251.611 95.5325 251.791 95.6333 251.938 95.7735C252.158 95.9923 252.436 96.1428 252.739 96.2069C253.043 96.271 253.358 96.2458 253.647 96.1345C253.918 96.0183 254.149 95.826 254.313 95.581C254.457 95.3644 254.618 95.1638 254.746 94.9312C254.538 95.0595 254.337 95.22 254.12 95.3644ZM266.009 88.4252C265.953 88.1685 265.921 87.9118 265.849 87.623C265.777 87.8797 265.745 88.1364 265.696 88.4252C265.681 88.6509 265.615 88.8702 265.504 89.067C265.401 89.2423 265.255 89.3882 265.079 89.4908C264.903 89.5933 264.704 89.649 264.501 89.6526C264.189 89.6531 263.884 89.7444 263.624 89.9154C263.363 90.0863 263.158 90.3295 263.033 90.6153C262.924 90.8877 262.896 91.1858 262.953 91.4736C263.001 91.7303 263.033 91.9871 263.105 92.2759C263.177 92.0191 263.21 91.7624 263.266 91.4736C263.282 91.2485 263.354 91.0309 263.474 90.8399C263.586 90.668 263.74 90.5272 263.921 90.4304C264.102 90.3337 264.304 90.2841 264.509 90.2864C264.738 90.284 264.963 90.231 265.168 90.1314C265.374 90.0317 265.555 89.8877 265.698 89.7098C265.842 89.5319 265.944 89.3244 265.998 89.1023C266.052 88.8802 266.055 88.649 266.009 88.4252ZM252.749 67.6719C252.74 67.7626 252.74 67.8539 252.749 67.9446C252.805 68.1933 252.829 68.45 252.901 68.7067C252.973 68.45 253.005 68.1933 253.061 67.9446C252.989 67.8323 252.877 67.7521 252.765 67.6719H252.749ZM279.647 99.0626C279.365 99.0561 279.096 98.9378 278.901 98.7337C278.68 98.5147 278.4 98.3648 278.095 98.3021C277.79 98.2394 277.474 98.2668 277.184 98.3807C276.914 98.494 276.683 98.6836 276.518 98.9262C276.374 99.1509 276.213 99.3514 276.085 99.5841C276.318 99.4557 276.518 99.2953 276.743 99.1509C276.911 99.0006 277.116 98.8981 277.337 98.854C277.537 98.8098 277.745 98.8175 277.942 98.8764C278.139 98.9354 278.317 99.0437 278.46 99.191C278.663 99.3832 278.912 99.5192 279.184 99.5853C279.455 99.6514 279.739 99.6455 280.008 99.568L279.647 99.0626ZM253.527 80.2506C253.3 80.2302 253.081 80.1589 252.885 80.042C252.714 79.9296 252.574 79.7758 252.479 79.5948C252.384 79.4139 252.336 79.2117 252.34 79.0072C252.33 78.6941 252.23 78.3906 252.05 78.134C251.871 77.8774 251.62 77.679 251.329 77.5632C251.053 77.4667 250.756 77.4473 250.47 77.507C250.214 77.5632 249.957 77.5953 249.668 77.6675C249.925 77.7317 250.182 77.7638 250.47 77.8199C250.699 77.8353 250.92 77.9011 251.12 78.0124C251.294 78.1166 251.44 78.2632 251.542 78.4385C251.644 78.6139 251.701 78.8122 251.706 79.0152C251.706 79.327 251.798 79.6319 251.968 79.8926C252.139 80.1533 252.383 80.3586 252.668 80.4833C252.941 80.5921 253.239 80.6199 253.527 80.5635C253.775 80.5074 254.032 80.4833 254.289 80.4111C254.056 80.3389 253.8 80.3068 253.551 80.2506H253.527ZM270.887 106.652C270.661 106.633 270.443 106.558 270.253 106.435C270.08 106.325 269.937 106.171 269.841 105.99C269.744 105.809 269.695 105.606 269.699 105.4C269.699 105.171 269.647 104.946 269.548 104.74C269.448 104.533 269.304 104.352 269.126 104.209C268.947 104.066 268.739 103.965 268.516 103.913C268.293 103.86 268.062 103.859 267.838 103.908C267.582 103.964 267.325 103.988 267.036 104.06C267.293 104.133 267.55 104.165 267.838 104.221C268.065 104.232 268.285 104.298 268.48 104.413C268.656 104.515 268.803 104.661 268.906 104.837C269.009 105.013 269.064 105.213 269.066 105.416C269.068 105.727 269.16 106.03 269.331 106.289C269.502 106.548 269.744 106.752 270.028 106.876C270.299 106.991 270.598 107.022 270.887 106.964C271.143 106.908 271.4 106.876 271.689 106.804C271.424 106.732 271.168 106.7 270.911 106.652H270.887Z" fill="white"/>
<path d="M251.473 109.074C251.265 109.074 249.941 108.842 249.933 108.842C249.837 108.352 247.687 100.563 247.117 98.8699C245.97 95.4124 244.614 92.019 243.307 88.6256C243.295 88.6082 243.278 88.595 243.258 88.588C243.239 88.581 243.217 88.5807 243.197 88.5871C243.177 88.5934 243.16 88.6061 243.148 88.6232C243.136 88.6403 243.129 88.6609 243.13 88.6818C243.98 91.6019 244.783 94.538 245.657 97.4581C245.392 97.0409 245.136 96.6558 244.855 96.2066C244.349 95.3402 243.9 94.4417 243.427 93.5593C243.416 93.5436 243.401 93.5322 243.383 93.527C243.364 93.5217 243.345 93.5231 243.328 93.5308C243.311 93.5384 243.297 93.5519 243.288 93.5689C243.28 93.5858 243.278 93.6052 243.283 93.6235C243.686 94.8471 244.244 96.0143 244.943 97.0971C245.244 97.561 245.574 98.0058 245.93 98.4287L246.146 99.1588C246.684 100.859 249.444 109.291 249.588 109.299H251.409C251.569 109.331 251.569 109.074 251.473 109.074Z" fill="#263238"/>
<path d="M281.548 103.146C273.414 102.536 265.215 102.496 257.049 102.624C254.733 102.656 252.42 102.745 250.109 102.889C250.099 102.893 250.09 102.9 250.084 102.91C250.077 102.919 250.074 102.93 250.074 102.941C250.074 102.952 250.077 102.963 250.084 102.973C250.09 102.982 250.099 102.989 250.109 102.993C254.185 103.21 258.26 103.258 262.343 103.338C266.426 103.419 270.526 103.451 274.617 103.411C276.927 103.411 279.238 103.37 281.548 103.298C281.564 103.293 281.578 103.283 281.588 103.269C281.598 103.255 281.603 103.239 281.603 103.222C281.603 103.205 281.598 103.189 281.588 103.175C281.578 103.161 281.564 103.151 281.548 103.146Z" fill="#263238"/>
<path d="M150.875 175.643H156.635V171.88H150.875V175.643Z" fill="#3180D5"/>
<path d="M143.407 175.394H149.166V171.632H143.407V175.394Z" fill="#3180D5"/>
<path d="M135.93 175.145H141.69V171.383H135.93V175.145Z" fill="#3180D5"/>
<path d="M128.461 174.896H134.221V171.134H128.461V174.896Z" fill="#3180D5"/>
<path d="M120.985 174.648H126.745V170.886H120.985V174.648Z" fill="#3180D5"/>
<path d="M113.516 174.399H119.276V170.637H113.516V174.399Z" fill="#3180D5"/>
<path d="M106.039 174.15H111.799V170.388H106.039V174.15Z" fill="#3180D5"/>
<path d="M98.5707 173.902H104.331V170.139H98.5707V173.902Z" fill="#3180D5"/>
<path d="M91.094 173.653H96.8539V169.891H91.094V173.653Z" fill="#3180D5"/>
<path d="M89.6821 177.809H158.047V173.236L89.6821 171.327V177.809Z" fill="#FFCA31"/>
<path d="M22.9617 159.759H135.818L117.872 75.7344H5.00812L22.9617 159.759Z" fill="#3180D5"/>
<path d="M18.7821 159.759H131.646L113.692 75.7344H0.836548L18.7821 159.759Z" fill="#FFCA31"/>
<path d="M56.4863 112.877C56.8309 114.791 57.822 116.528 59.2939 117.798C60.7658 119.069 62.6293 119.795 64.5727 119.857C65.4501 119.884 66.3224 119.713 67.1241 119.355C67.9257 118.997 68.6358 118.462 69.201 117.791C69.7662 117.119 70.1717 116.328 70.3872 115.477C70.6026 114.626 70.6224 113.737 70.4449 112.877C70.0962 110.966 69.1039 109.231 67.6328 107.961C66.1618 106.692 64.3006 105.963 62.3585 105.898C61.4811 105.87 60.6088 106.042 59.8071 106.399C59.0055 106.757 58.2954 107.292 57.7302 107.964C57.165 108.636 56.7595 109.427 56.544 110.278C56.3286 111.129 56.3088 112.017 56.4863 112.877Z" fill="#263238"/>
<path d="M50.7024 181.699H106.208V177.391L50.7024 175.594V181.699Z" fill="#3180D5"/>
<path d="M35.6127 181.691H65.415L83.3606 134.617H53.5583L35.6127 181.691Z" fill="#3180D5"/>
<path d="M30.7031 181.691H60.5054L78.459 134.617H48.6567L30.7031 181.691Z" fill="#3180D5"/>
<path d="M160.157 182.846H217.387C222.273 182.846 215.205 168.944 197.38 163.593C179.554 158.242 154.501 177.632 160.157 182.846Z" fill="#FFCA31"/>
<path d="M182.619 182.847C182.257 181.33 181.793 179.84 181.231 178.386C180.675 176.951 179.996 175.566 179.201 174.247C178.421 172.924 177.49 171.696 176.426 170.589L175.624 169.786L174.733 169.04C174.172 168.495 173.474 168.142 172.856 167.645C174.329 168.241 175.687 169.091 176.867 170.155C178.061 171.223 179.084 172.467 179.899 173.846C180.714 175.216 181.363 176.678 181.833 178.202C182.296 179.709 182.56 181.271 182.619 182.847Z" fill="#263238"/>
<path d="M175.832 169.618C175.03 170.035 174.268 170.42 173.498 170.878C172.728 171.335 171.949 171.736 171.195 172.185C169.687 173.092 168.187 174.006 166.767 175.033C165.325 176.022 163.982 177.147 162.756 178.394C162.148 179.016 161.61 179.702 161.152 180.44C160.672 181.176 160.324 181.991 160.125 182.847C160.176 181.946 160.408 181.065 160.807 180.256C161.214 179.447 161.709 178.686 162.283 177.985C163.457 176.613 164.805 175.399 166.294 174.375C169.225 172.34 172.435 170.738 175.824 169.618H175.832Z" fill="#263238"/>
</svg>
